<svg xmlns="http://www.w3.org/2000/svg"  width="80" height="80" viewBox="0 0 80 80">
  <defs>
    <filter id="chartFilter" width="128.3%" height="147.2%" x="-14.2%" y="-18.1%" filterUnits="objectBoundingBox">
      <feOffset dy="2" in="SourceAlpha" result="shadowOffsetOuter1"/>
      <feGaussianBlur in="shadowOffsetOuter1" result="shadowBlurOuter1" stdDeviation="2.5"/>
      <feComposite in="shadowBlurOuter1" in2="SourceAlpha" operator="out" result="shadowBlurOuter1"/>
      <feColorMatrix in="shadowBlurOuter1" values="0 0 0 0 0 0 0 0 0 0 0 0 0 0 0 0 0 0 0.171984266 0"/>
    </filter>
    <path id="chartPath" d="M14.856 22.002 64.872 22c1.783 0 2.43.186 3.082.534.652.349 1.163.86 1.512 1.512.348.652.534 1.299.534 3.082v25.744c0 1.783-.186 2.43-.534 3.082a3.635 3.635 0 0 1-1.512 1.512c-.652.348-1.299.534-3.082.534H15.128c-1.783 0-2.43-.186-3.082-.534a3.635 3.635 0 0 1-1.512-1.512c-.33-.618-.514-1.23-.532-2.81L10 27.128c0-1.783.186-2.43.534-3.082a3.635 3.635 0 0 1 1.512-1.512c.618-.33 1.23-.514 2.81-.532Z"/>
  </defs>
  <g fill="none" fill-rule="evenodd">
    <path fill="currentColor" d="M40 15a1 1 0 0 1 1 1v4h-2v-4a1 1 0 0 1 1-1Zm-9.123 52.546a1 1 0 0 1-1.323.353l-.048-.025a.935.935 0 0 1-.352-1.317l2.569-4.144h-6.47a1 1 0 0 1-1-1v-1h32v1a1 1 0 0 1-1 1h-6.976l2.569 4.144a.935.935 0 0 1-.352 1.317l-.048.025a1 1 0 0 1-1.323-.353l-3.181-5.133H34.058Z" opacity=".33"/>
    <g fill-rule="nonzero">
      <use xlink:href="#chartPath" fill="#000" filter="url(#chartFilter)"/>
      <use xlink:href="#chartPath" fill="currentColor" fill-opacity=".33"/>
    </g>
    <g fill="currentColor" transform="translate(21 28)">
      <rect width="2" height="3.467" y="18.533" rx="1"/>
      <rect width="2" height="5.2" x="4" y="16.8" rx="1"/>
      <rect width="2" height="13" x="8" y="9" rx="1"/>
      <rect width="2" height="9.533" x="12" y="12.467" rx="1"/>
      <rect width="2" height="6.933" x="16" y="15.067" rx="1"/>
      <rect width="2" height="13" x="20" y="9" rx="1"/>
      <rect width="2" height="16" x="24" y="6" rx="1"/>
      <rect width="2" height="22" x="28" rx="1"/>
      <rect width="2" height="20" x="32" y="2" rx="1"/>
      <rect width="2" height="19" x="36" y="3" rx="1"/>
    </g>
    <path fill="currentColor" d="M20 52h40v1H20z"/>
  </g>
</svg>
