<svg xmlns="http://www.w3.org/2000/svg" width="80" height="80" viewBox="0 0 80 80"><defs><radialGradient id="c" cx="15.603%" cy="12.064%" r="100.748%" fx="15.603%" fy="12.064%"><stop offset="0%" stop-color="currentColor"/><stop offset="100%" stop-color="currentColor" stop-opacity=".75"/></radialGradient><filter id="b" width="138.6%" height="138.6%" x="-19.3%" y="-14.8%" filterUnits="objectBoundingBox"><feOffset dy="2" in="SourceAlpha" result="shadowOffsetOuter1"/><feGaussianBlur in="shadowOffsetOuter1" result="shadowBlurOuter1" stdDeviation="2.5"/><feColorMatrix in="shadowBlurOuter1" values="0 0 0 0 0 0 0 0 0 0 0 0 0 0 0 0 0 0 0.171984266 0"/></filter><circle id="a" cx="40" cy="40" r="22"/></defs><g fill="none"><use xlink:href="#a" fill="#000" filter="url(#b)"/><circle cx="40" cy="40" r="22" fill="url(#c)" opacity=".5"/><path fill="currentColor" d="M39.932 18.003h.055l.251.006.088.004a22.5 22.5 0 0 1 3.092.317c3.56.63 6.73 2.033 9.607 4.211.146.097.244.242.341.339a.251.251 0 0 1-.076.025c4.01 3.292 6.806 8.002 7.617 13.359.066.308.102.625.122.942a21.752 21.752 0 0 1-.27 6.39c-1.491 8.153-7.731 14.767-16.024 16.794a21.473 21.473 0 0 1-5.04.61h-.24.24-.12c10.51 0 19.265-7.489 21.184-17.404.288-1.58.4-3.217.312-4.89-.017-.484-.01-.993-.042-1.5-.034-.316-.075-.63-.122-.942-.126-.581-.362-1.136-.811-1.623l.027.033-.022.032-.037.05-.007.091a.747.747 0 0 0 .126.386l.059.086c.244.29.293.629.244.968-.13 1.025-.866 1.522-1.64 1.957l-.31.172c-.147.049-.586-.048-.39.388.145.338.438.242.682.193.195-.048.341-.097.488-.193.34-.194.39 0 .34.242-.145.968-.39 1.887-1.12 2.71-.927 1.065-1.708 2.178-1.269 3.775.244.823.147 1.694-.78 2.275-.439.29-.78.726-.634 1.355a.714.714 0 0 1-.341.823c-.293.097-.293.339-.44.58-.535 1.017-1.12 2.034-2.389 2.276-1.121.193-1.17.242-1.365-.823-.098-.533-.634-.871-.585-1.5.097-.63-.049-1.21-.39-1.743-.342-.532-.244-1.065-.098-1.646.098-.435.585-.726.488-1.161-.195-.968-.293-1.936-1.024-2.71-.244-.243-.244-.485-.195-.823.048-.388.39-1.017.048-1.162-.585-.242-1.17-.823-1.706-.774-.878.048-1.756.338-2.682.435-.39.049-.634 0-.976-.193-.829-.484-1.073-1.452-1.804-2.033-.439-.387-.439-.92-.293-1.355.147-.484.293-.92.147-1.356-.342-1.064.536-1.597.877-2.371.244-.436.78-.436.927-.775.244-.774.78-1.355 1.268-1.936.244-.29.097-.532-.244-.532-.439.048-.439-.29-.488-.532-.195-1.259.195-1.646 1.463-1.5h.098c.195 0 .439.144.536-.146.098-.242.147-.484-.048-.726-.147-.145-.293-.29-.488-.387-.098-.049-.244-.146-.244-.194.049-.145.244-.097.341-.145.39-.242.976.048 1.22-.484.438-.049.634-.63 1.121-.678.293 0 .537-.097.342-.484-.098-.242.097-.484.34-.484.293 0 .098.242.098.387 0 .146-.048.242.195.194.196.048.098-.145.147-.194.195-.193.292-.29.049-.58-.196-.242-.342-.388-.683-.194-.39.194-.585-.048-.732-.436-.195-.387-.097-.58.293-.677.488-.097.878-.339 1.22-.678.487-.532 1.12-.435 1.755-.339.487.097.877.436 1.316.63.126.041.216.19.363.17a21.51 21.51 0 0 0-13.052-4.896l.088.004a22 22 0 0 0-.338-.01l.25.006c-.213-.006-.425-.01-.636-.009l.386.004-.056-.001ZM39.448 61c-11.571-.067-20.984-9.21-21.431-20.647l-.01-.271A24.634 24.634 0 0 1 18 39.5l.002.294-.002-.181V39.5C18 27.626 27.66 18 39.575 18c-3.917.006-7.631 1.096-11.177 3.186-.39.242-.243.677-.243.968 0 .193.487-.145.731.048.049-.097.098-.193.098-.29-.05-.484.146-.678.731-.58l.14-.036a1.57 1.57 0 0 0 .494-.255c-.146-.194-.293.048-.439.048-.049 0-.097-.048-.097-.048 0-.049.048-.097.097-.097.195-.097.39-.145.585 0 .293.193.585.193.927.097.341-.049.634-.242 1.024 0 .097.048.097-.097 0-.146.292-.048.536-.048.829.146.078.051.177.082.28.112l.155.046c.232.074.443.19.443.568 0 .096.536.096.341.387-.146.193-.439.532-.78.145-.098-.097-.195-.145-.293-.048v.145c.585.774-.536.435-.585.871 0 .097-.536 0-.683-.194-.195-.29-.439-.29-.731-.242-.098 0-.293.049-.293-.096 0-.049.147-.146.244-.194a.469.469 0 0 1 .11-.021l.22-.006.109-.021c.293-.146.78-.242.731-.581-.048-.339-.487-.29-.877-.242-.44.097-.537.532-.878.677-.244.097-.439.146-.683.242.272.51.02.518-.246.52l-.121.002c-.12.005-.225.025-.267.108-.146.29-.195-.29-.39-.146-.731.484-1.56.678-2.194 1.307-.195.145-.195.533-.05.533.44.048.684.435 1.074.387.39-.049.39.145.195.387-.098.145-.342.387-.049.532.244.097.439-.096.488-.338.048-.436.341-.63.731-.775.195-.097.439-.242.439-.387 0-.532.488-.774.683-1.162.195-.484.682-.242 1.073-.242.146 0 .487.194.438.388-.146.87.39.387.586.242.426-.34.517-.16.598.15l.036.14c.097.242-.098.58.243.726.634.242.537.63.244 1.113-.097.194-.244.34.195.387.44 0-.048.388.098.63.097.145-.146.242-.293.145-.39-.29-.975.048-1.073-.145-.195-.388.44-.533.586-.872.048-.048.048-.096.097-.145-.049 0-.097-.048-.146-.048-.634.484-1.366.242-2.048.387-.05 0-.098.048-.147.048 0 .049.05.097.05.097.584 0 .243.242.145.484-.097.145-.097.29.098.436.098.097.341 0 .341.193-.048.097-.292.194-.439.242-.243.049-.487.097-.634.29-.048.05-.146.05-.195.05-.097-.05-.048-.098 0-.194.05-.097.05-.146.098-.242-.049.048-.146.048-.244.096-.634.242-1.024.775-1.512 1.065-.487.34-1.024.581-1.316 1.065-.44.63-.78 1.259-1.512 1.646-.683.339-.927.968-.731 1.694.097.339.048.774-.293.774-.293.049-.293-.387-.341-.677-.05-.194.097-.484-.195-.581-.39-.097-.78-.34-1.122 0-.244.242-.439.242-.683.193a.744.744 0 0 0-.634.146c-.829.484-.877 1.355-.975 2.13-.098.386-.146.919.39 1.064.488.097.83-.048.927-.63.048-.338.487-.435.731-.338.341.145.049.387 0 .58-.049.34-.195.63-.341.92-.147.29-.098.388.244.34.829-.098.877 0 .731.822a2.413 2.413 0 0 0-.097.58c-.05.485.34.824.78.63.244-.097.439-.097.585.048l.064.055c.206.144.335-.068.424-.2.585-.871 1.268-1.016 2.097-.58.34.193.731.338 1.219.193.195-.048.536-.242.78.194l.148.25c.3.5.653.973 1.364 1.056.682.097 1.121.388 1.365 1.065.02.058.035.124.05.193l.045.211c.05.212.12.41.295.467.83.34 1.56.968 2.536 1.017.683.048 1.17.532 1.56.968.39.435.147 1.065-.243 1.549-.293.387-.732.726-.683 1.258.049.532.049 1.016-.098 1.5-.195.63-.243 1.259-1.17 1.356-.439.048-1.17.193-1.024.92.097.435-.049.774-.293 1.064-.292.29-.439.63-.536.968-.098.339-.293.484-.683.387-.39-.097-.244.097-.146.242.341.63.097.871-.536.871-.44 0-.244.775-.78.63 0 .048.048.145.097.145.292.048.097.193.097.387-.048.339-.39.823.293.968 0 0 .049.097.049.145-.586.92.341 1.017.78 1.404.049.048.146.097.195.145h-.195c-.683-.339-1.463-.387-2-1.016-.292-.34-.536-.678-.682-1.065-.342-.871-1.122-1.549-1.268-2.517-.244-1.597-.488-3.243-.634-4.888-.049-.581-.341-1.017-.829-1.21-.78-.34-1.073-.968-1.414-1.646a9.293 9.293 0 0 0-.878-1.5c-.244-.34-.39-.63-.146-1.017.048-.048.097-.193.048-.242-.34-.532 0-.92.293-1.307.39-.58.683-1.161.341-1.887-.146-.29-.195-.775-.536-.097-.098.145-.195.048-.293 0-.39-.242-.877-.436-.975-1.065-.049-.145-.244-.484-.585-.58-.732-.243-1.22-.872-2.048-.969-.44-.048-1.024-.484-.976-1.113 0-.435 0-.823-.146-1.21-.097-.242.098-.58-.195-.823-.049.34-.049.63-.049.92 0 .097-.048.145-.048.242a.366.366 0 0 1-.098-.194c-.049-.096-.049-.242-.049-.338-.048.096-.097.242-.146.338a20.778 20.778 0 0 0-.492 5.054l.01.27c.085 2.154.511 4.286 1.262 6.39 3.088 8.635 11.186 14.031 19.823 14.251ZM59.12 45.87c0 .145.05.242.098.387-.244 1.113-.683 2.13-1.17 3.146-.098.145-.244.242-.39.194-.196-.049-.196-.242-.147-.387.342-.872.098-1.888 1.024-2.517.195-.097.244-.387.342-.533.048-.096.146-.193.243-.29ZM56 42.288c-.244 0-.342.146-.39.34 0 .144-.05.338.194.338s.244-.29.342-.436c.097-.193-.049-.193-.147-.242Zm-.147-8.712c-.195.049-.097.194-.049.29.586 1.162 1.073 2.372 1.56 3.534.098.242.391.436.635.678.049.048.097.048.146.096 0-.048.049-.145 0-.048 0-1.404-.926-2.178-1.317-3.243-.146-.435-.438-.774-.682-1.161-.049-.097-.147-.194-.293-.146Zm-29.356 2.41.097.01c.341.049.634.097.83.388-.294.096-.635.145-.927.29-.196-.048-.342-.145-.488-.194.341.049.146-.58.585-.484Zm-2.244-1.006c.732 0 1.17.532 1.707.871 0 0 .049.145.049.242-.244.145-.537.049-.634-.048-.488-.533-.927-.871-1.707-.581-.146.048-.097-.145-.049-.194.195-.193.44-.242.634-.29Zm34.624-1.742c-.147.096-.098.242 0 .387.195.29.439.484.536.774.197.745.395.696.644.368l.007-.011.001-.011a.54.54 0 0 1 .03-.104l.028.033.024-.033a6.84 6.84 0 0 0 .095-.145c-.488-.242-.926-.532-1.073-1.065-.049-.097-.146-.29-.292-.193Zm-8.138-5.228c-.128-.132-.254-.238-.396-.097-.244.242.244.436.341.678 0 .097.195.097.244.194.195.29 1.024.193.536.92-.146.241-.341.387-.439.629-.097.193-.292-.049-.438-.097-.098-.049-.196-.145-.196-.194.025-.097.086-.109.153-.103l.101.015a.158.158 0 0 0 .088-.009c.195 0 .39.049.439-.193.048-.145-.098-.29-.244-.387-.244-.097-.439-.242-.634-.388a2.327 2.327 0 0 1-.278-.246l-.134-.136c-.358-.361-.732-.678-1.441-.15-.439.29-1.073.58-1.317 1.21-.195.436-.439.726-.926.774-.195.049-.44 0-.44.242 0 .194.293.146.44.146.146 0 .341.096.439 0 .877-.678 1.95-.34 2.925-.484.147-.049.44.048.39.193-.243.968.293 1.21 1.073 1.307.05 0 .147.242.195.242.114-.048.239.054.367.17l.097.088c.227.202.459.343.658-.306.049-.194.341-.242.585-.146.683.34 1.317.726 2.146.533.195-.049.536.29.683-.049.146-.387.292-.774.243-1.355 0-.097-.097-.145-.146-.145-.39.145-.683-.145-1.024-.145-.634 0-1.024-.242-1.121-.871-.05-.242-.098-.581-.488-.484-.342.096-.146.338-.098.58.098.242 0 .484-.195.581-.244.097-.292-.193-.39-.339-.488-.629-.585-1.597-1.512-1.936a.569.569 0 0 1-.175-.128Zm-1.372.726c.244.242.098.533.195.775.05.097 0 .29-.146.339-.292 0-.097-.29-.244-.388.05-.242.147-.484.195-.726Zm4.926-.58a.999.999 0 0 0-.342 1.016c.098.29.39.436.634.339.585-.242 1.073-.097 1.56.193.147.097.39.242.488 0 .098-.242-.097-.338-.243-.435-.244-.194-.537-.387-.732-.63-.097-.145.098-.435-.292-.387-.05 0-.098 0-.098.049-.098.193.146.145.195.242 0 .048-.049.048-.146.048-.195.048-.342.048-.488-.145-.146-.194-.292-.533-.536-.29Zm-28.674.048c-.244.048-.39.242-.488.435a2.585 2.585 0 0 0-.244.533c.049 0 .098.048.147 0 .292-.242.292-.678.682-.92-.097 0-.097-.048-.097-.048Zm.487.193c-.097.097.05.242.098.194.195-.145.439-.29.585-.484.049-.048-.244-.145-.439-.145-.39-.097-.097.29-.244.435Zm-.243-1.016c-.293.048-.586.194-.732.387-.049.097.293-.048.39.097.195-.145.585.145.634-.242.049-.194-.146-.242-.292-.242Zm20.14-3.291c.39-.097.682.145.634.63 0 .144.146.29.243.386.342.34.586.678.586 1.113a6.018 6.018 0 0 1-.927.097c-.195 0-.39.194-.634.049.195-.194.049-.533.195-.678.537-.484.049-.532-.244-.678-.195-.387-.244-.774.147-.92Zm-.586.823c.147 0 .293.048.44.096l-.046.125c-.073.212-.134.44-.296.601-.146.146-.536.242-.732.194-.292-.097 0-.387 0-.58 0-.291.39-.388.634-.436Zm6.047-1.694c-.042.098-.168.164-.303.226l-.116.053c-.287.132-.52.283.03.737v.145c-.342.242-.245.968-.927.871-.05 0-.195 0-.098.097.39.484.927 0 1.414.145.147.049.244-.145.293-.338.049-.533.195-.968.878-.63.048.049.195.049.195-.048 0 0-.098-.097-.195-.097h-.342c-.341-.048-.634-.048-.829-.387-.195-.339-.048-.484.244-.63.049-.048.146-.144.049-.144-.098-.049-.293-.049-.293 0Zm-15.166-3.872c2.341.145 4.633-.34 6.925-.049l1.61.29c.097 0 .146.05.194.097-.048 0-.146.049-.097.049-.585 0-1.073.097-1.22.726-.048.097-.34.145-.438.242-.098.145-.83-.194-.293.387.049.097-.049.145-.146.194-.195.096-.39.242-.585.242-1.073.048-2.048.58-3.121.726-.537.048-.78.532-1.17.87-.196.194-.342.533-.732.388-.439-.194-1.024-.242-1.024-.92.049-.435-.049-.92.536-1.064.293-.097.39-.34.098-.581-.049-.049-.098-.097-.098-.145.147-.775-.439-.533-.829-.63-.077-.025-.177-.004-.284.026l-.13.037c-.26.072-.512.1-.512-.45a.223.223 0 0 1-.073.021l-.147.006-.073.022c-.829.29-1.658.484-2.39 1.016l-.255.028c-.256.02-.512.02-.768.02-.098 0-.244.097-.293-.048 0-.048.146-.145.244-.194.195-.048.439.049.585-.145 0 0 .439-.097 0-.193-.146 0 0-.146.049-.146a.92.92 0 0 0 .117-.038l.234-.1a.643.643 0 0 1 .234-.055c1.317-.145 2.536-.726 3.852-.63Zm6.047 2.855c.098-.193.293-.048.44-.048h1.17c.146 0 .34.048.34.242 0 .145-.145.145-.292.242-.244.048-.536.145-.78.193-.195-.048-.39-.048-.536-.096-.293-.097-.147-.436-.342-.533Zm-12.386-.726c-.126.083-.215.095-.3.005l-.042-.053c-.34.193.196.242.05.484-.147.242.243.387.34.339.44-.049.44-.436.342-.775-.049-.193-.244-.048-.39 0Z"/></g></svg>
