<svg xmlns="http://www.w3.org/2000/svg" width="80" height="80" viewBox="0 0 80 80">
  <g fill="currentColor" fill-rule="evenodd" transform="translate(0 17)">
    <path d="M39.9883,4.97379915e-14 L50.303,5.955 L44.378,9.3077 L44.3967,14.4024632 L40.00935,11.9117 L33,15.8717 L33,20.9467757 L28.63135,18.4808 L21.6407,22.4459 L21.622,30.5536 L28.63135,34.4808 L35.6124,30.5536 L35.622,25.4704206 L39.9907,27.9117 L46.9905,23.9844 L46.9905,18.8808145 L51.3687,21.3426 L58.3685,17.4153 L58.376,10.616 L80,23.1008 L40.0117,46.188 L0,23.0872 L39.9883,4.97379915e-14 Z"/>
    <polygon points="51.369 13.235 58.368 9.308 58.368 17.415 51.369 21.343" opacity=".6"/>
    <polygon points="39.991 19.804 46.99 15.877 46.99 23.984 39.991 27.912" opacity=".6"/>
    <polygon points="44.397 9.303 51.387 5.343 58.378 9.303 51.387 13.263" opacity=".9"/>
    <polygon points="33.019 15.872 40.009 11.912 47 15.872 40.009 19.832" opacity=".9"/>
    <polygon points="51.378 13.235 44.378 9.308 44.397 14.402 46.99 15.872 46.988 18.88 51.369 21.343" opacity=".8"/>
    <polygon points="40 19.804 33 15.877 33 20.947 35.612 22.441 35.612 25.46 40 27.912" opacity=".8"/>
    <polygon points="28.613 26.373 35.612 22.446 35.612 30.554 28.613 34.481" opacity=".6"/>
    <polygon points="21.641 22.441 28.631 18.481 35.622 22.441 28.631 26.401" opacity=".9"/>
    <polygon points="28.622 26.373 21.622 22.446 21.622 30.554 28.622 34.481" opacity=".8"/>
  </g>
</svg>
