<svg width="14px" height="14px" viewBox="0 0 24 24" version="1.1" xmlns="http://www.w3.org/2000/svg">
    <g stroke="none" stroke-width="1" fill="none" fill-rule="evenodd">
        <path d="M11.7759872,0 C11.8071212,0 11.8380271,0.000956542222 11.8686759,0.00284124889 L11.7948545,0.00243403556 C18.5388056,0.0209381111 24,5.38562116 24,12.0006256 C24,18.5255835 18.6864744,23.8340282 12.0695365,23.9951 L11.7976963,24 C10.9938296,24 10.3421669,23.3617792 10.3421669,22.5744938 C10.3421669,21.8143563 10.9496622,21.1931801 11.7151011,21.1512443 L11.7944151,21.1488889 L11.7946119,20.5269112 L11.702457,20.5297222 C10.8985903,20.5297222 10.2469275,19.8915013 10.2469275,19.104216 C10.2469275,18.3169307 10.8985903,17.6787099 11.702457,17.6787099 C11.7334105,17.6787099 11.7641383,17.6796561 11.7946119,17.6815208 L11.7946119,16.991656 L11.702457,16.9944669 C10.8985903,16.9944669 10.2469275,16.356246 10.2469275,15.5689607 C10.2469275,14.7816754 10.8985903,14.1434545 11.702457,14.1434545 C11.7334105,14.1434545 11.7641383,14.1444008 11.7946119,14.1462655 L11.7946119,13.4564007 C11.7641383,13.4582653 11.7334105,13.4592116 11.702457,13.4592116 C10.8985903,13.4592116 10.2469275,12.8209908 10.2469275,12.0337054 C10.2469275,11.2464201 10.8985903,10.6081992 11.702457,10.6081992 L11.7946119,10.6110102 L11.7946119,9.92114538 C11.7641383,9.92301 11.7334105,9.92395631 11.702457,9.92395631 C10.8985903,9.92395631 10.2469275,9.28573542 10.2469275,8.49845013 C10.2469275,7.7111648 10.8985903,7.07294396 11.702457,7.07294396 C11.7334105,7.07294396 11.7641383,7.07389022 11.7946119,7.07575489 L11.7946119,6.38589009 L11.702457,6.38870098 C10.8985903,6.38870098 10.2469275,5.75048013 10.2469275,4.96319484 C10.2469275,4.17590951 10.8985903,3.53768867 11.702457,3.53768867 C11.7334105,3.53768867 11.7641383,3.53863493 11.7946119,3.5404996 L11.7944151,2.85288889 L11.7759872,2.85344569 C10.9991775,2.85344569 10.3643771,2.25797339 10.3215215,1.5076834 L10.3192154,1.42672285 C10.3192154,0.638765578 10.9714343,0 11.7759872,0 Z M8.20918628,21.4974491 C8.87451863,21.4974491 9.41387706,22.0150558 9.41387706,22.653556 C9.41387706,23.2920563 8.87451863,23.8096629 8.20918628,23.8096629 C7.54385389,23.8096629 7.00449546,23.2920563 7.00449546,22.653556 C7.00449546,22.0150558 7.54385389,21.4974491 8.20918628,21.4974491 Z M4.59947316,21.2394966 C5.00789058,21.2394966 5.33897828,21.5528916 5.33897828,21.939484 C5.33897828,22.3260763 5.00789058,22.6394713 4.59947316,22.6394713 C4.19105574,22.6394713 3.85996805,22.3260763 3.85996805,21.939484 C3.85996805,21.5528916 4.19105574,21.2394966 4.59947316,21.2394966 Z M8.20918628,17.7570063 C8.94874365,17.7570063 9.54827339,18.3323576 9.54827339,19.0420895 C9.54827339,19.7518213 8.94874365,20.3271727 8.20918628,20.3271727 C7.46962886,20.3271727 6.87009912,19.7518213 6.87009912,19.0420895 C6.87009912,18.3323576 7.46962886,17.7570063 8.20918628,17.7570063 Z M4.59947316,18.1480165 C5.19387537,18.1480165 5.67573355,18.6036514 5.67573355,19.1657055 C5.67573355,19.7277596 5.19387537,20.1833944 4.59947316,20.1833944 C4.00507096,20.1833944 3.52321277,19.7277596 3.52321277,19.1657055 C3.52321277,18.6036514 4.00507096,18.1480165 4.59947316,18.1480165 Z M1.34218086,18.1480165 C1.6941736,18.1480165 1.97952009,18.4181147 1.97952009,18.7512976 C1.97952009,19.0844804 1.6941736,19.3545786 1.34218086,19.3545786 C0.990188124,19.3545786 0.704841632,19.0844804 0.704841632,18.7512976 C0.704841632,18.4181147 0.990188124,18.1480165 1.34218086,18.1480165 Z M4.59947316,14.5341717 C5.27472122,14.5341717 5.82211793,15.0517784 5.82211793,15.6902786 C5.82211793,16.3287788 5.27472122,16.8463856 4.59947316,16.8463856 C3.9242251,16.8463856 3.37682839,16.3287788 3.37682839,15.6902786 C3.37682839,15.0517784 3.9242251,14.5341717 4.59947316,14.5341717 Z M8.20918628,14.274516 C8.94874365,14.274516 9.54827339,14.8498673 9.54827339,15.5595992 C9.54827339,16.269331 8.94874365,16.8446824 8.20918628,16.8446824 C7.46962886,16.8446824 6.87009912,16.269331 6.87009912,15.5595992 C6.87009912,14.8498673 7.46962886,14.274516 8.20918628,14.274516 Z M0.989760045,14.7252199 C1.53638942,14.7252199 1.97952009,15.1446705 1.97952009,15.662089 C1.97952009,16.1795075 1.53638942,16.5989581 0.989760045,16.5989581 C0.443130666,16.5989581 0,16.1795075 0,15.662089 C0,15.1446705 0.443130666,14.7252199 0.989760045,14.7252199 Z M4.59947316,11.0587448 C5.27472122,11.0587448 5.82211793,11.5763516 5.82211793,12.2148518 C5.82211793,12.853352 5.27472122,13.3709587 4.59947316,13.3709587 C3.9242251,13.3709587 3.37682839,12.853352 3.37682839,12.2148518 C3.37682839,11.5763516 3.9242251,11.0587448 4.59947316,11.0587448 Z M8.20918628,10.7920257 C8.94874365,10.7920257 9.54827339,11.3673771 9.54827339,12.0771089 C9.54827339,12.7868407 8.94874365,13.3621921 8.20918628,13.3621921 C7.46962886,13.3621921 6.87009912,12.7868407 6.87009912,12.0771089 C6.87009912,11.3673771 7.46962886,10.7920257 8.20918628,10.7920257 Z M0.989760045,11.2241238 C1.53638942,11.2241238 1.97952009,11.6435744 1.97952009,12.1609929 C1.97952009,12.6784114 1.53638942,13.097862 0.989760045,13.097862 C0.443130666,13.097862 0,12.6784114 0,12.1609929 C0,11.6435744 0.443130666,11.2241238 0.989760045,11.2241238 Z M4.59947316,7.583318 C5.27472122,7.583318 5.82211793,8.10092467 5.82211793,8.73942489 C5.82211793,9.37792511 5.27472122,9.89553182 4.59947316,9.89553182 C3.9242251,9.89553182 3.37682839,9.37792511 3.37682839,8.73942489 C3.37682839,8.10092467 3.9242251,7.583318 4.59947316,7.583318 Z M8.20918628,7.30953542 C8.94874365,7.30953542 9.54827339,7.88488676 9.54827339,8.59461862 C9.54827339,9.30435044 8.94874365,9.87970178 8.20918628,9.87970178 C7.46962886,9.87970178 6.87009912,9.30435044 6.87009912,8.59461862 C6.87009912,7.88488676 7.46962886,7.30953542 8.20918628,7.30953542 Z M0.989760045,7.72302769 C1.53638942,7.72302769 1.97952009,8.14247831 1.97952009,8.65989684 C1.97952009,9.17731538 1.53638942,9.59676596 0.989760045,9.59676596 C0.443130666,9.59676596 0,9.17731538 0,8.65989684 C0,8.14247831 0.443130666,7.72302769 0.989760045,7.72302769 Z M8.20918628,3.82704516 C8.94874365,3.82704516 9.54827339,4.40239649 9.54827339,5.11212831 C9.54827339,5.82186013 8.94874365,6.39721147 8.20918628,6.39721147 C7.46962886,6.39721147 6.87009912,5.82186013 6.87009912,5.11212831 C6.87009912,4.40239649 7.46962886,3.82704516 8.20918628,3.82704516 Z M4.59947316,4.3005756 C5.16217988,4.3005756 5.6183438,4.73191453 5.6183438,5.26399804 C5.6183438,5.79608156 5.16217988,6.22742049 4.59947316,6.22742049 C4.03676645,6.22742049 3.58060252,5.79608156 3.58060252,5.26399804 C3.58060252,4.73191453 4.03676645,4.3005756 4.59947316,4.3005756 Z M1.31386032,4.96724413 C1.68149406,4.96724413 1.97952009,5.24934422 1.97952009,5.59733231 C1.97952009,5.9453204 1.68149406,6.22742049 1.31386032,6.22742049 C0.946226577,6.22742049 0.648200545,5.9453204 0.648200545,5.59733231 C0.648200545,5.24934422 0.946226577,4.96724413 1.31386032,4.96724413 Z M4.59947316,1.54587433 C5.04792992,1.54587433 5.41147594,1.88999314 5.41147594,2.3144852 C5.41147594,2.73897724 5.04792992,3.08309604 4.59947316,3.08309604 C4.15101641,3.08309604 3.78747038,2.73897724 3.78747038,2.3144852 C3.78747038,1.88999314 4.15101641,1.54587433 4.59947316,1.54587433 Z M8.20918628,0.331217071 C8.90821399,0.331217071 9.47488791,0.875037653 9.47488791,1.54587433 C9.47488791,2.21671102 8.90821399,2.7605316 8.20918628,2.7605316 C7.51015857,2.7605316 6.9434846,2.21671102 6.9434846,1.54587433 C6.9434846,0.875037653 7.51015857,0.331217071 8.20918628,0.331217071 Z" id="simbolo" fill="currentColor" fill-rule="nonzero"></path>
    </g>
</svg>
