<svg viewBox="0 0 176 70" xmlns="http://www.w3.org/2000/svg">
  <defs>
    <style>
      @font-face {
        font-family: 'Inter';
        src: url('https://fonts.googleapis.com/css2?family=Inter:wght@400;500;600;700') format('woff');
      }
      text {
        font-family: 'Inter', sans-serif;
      }
    </style>
  </defs>
<!-- Ripple -->
<circle
      fill="rgba(0,0,0,0)"
      style="transform-origin: 35px 35px"
      cx="35"
       cy="35"
      r="17.5"
    > <animate
              attributeName="fill-opacity"
              keyTimes="0; 0.7; 1"
              values="0.7;0;0"
              begin="0s"
              dur="1.5s"
              fill="freeze"
              repeatCount="indefinite"
            /><animateTransform
              type="scale"
              additive="sum"
              attributeName="transform"
              keyTimes="0; 0.7; 1"
              values="1; 2; 2"
              begin="0s"
              dur="1.5s"
              fill="freeze"
              repeatCount="indefinite"
            /></circle>
<circle
      fill="#ffc107"
      style="transform-origin: 89.66666666666666px 35px"
      cx="89.66666666666666"
       cy="35"
      r="17.5"
    > <animate
              attributeName="fill-opacity"
              keyTimes="0; 0.7; 1"
              values="0.7;0;0"
              begin="0s"
              dur="1.5s"
              fill="freeze"
              repeatCount="indefinite"
            /><animateTransform
              type="scale"
              additive="sum"
              attributeName="transform"
              keyTimes="0; 0.7; 1"
              values="1; 2; 2"
              begin="0s"
              dur="1.5s"
              fill="freeze"
              repeatCount="indefinite"
            /></circle>
<circle
      fill="#E41A0C"
      style="transform-origin: 144.33333333333331px 35px"
      cx="144.33333333333331"
       cy="35"
      r="17.5"
    > <animate
              attributeName="fill-opacity"
              keyTimes="0; 0.7; 1"
              values="0.7;0;0"
              begin="0s"
              dur="1.5s"
              fill="freeze"
              repeatCount="indefinite"
            /><animateTransform
              type="scale"
              additive="sum"
              attributeName="transform"
              keyTimes="0; 0.7; 1"
              values="1; 2; 2"
              begin="0s"
              dur="1.5s"
              fill="freeze"
              repeatCount="indefinite"
            /></circle>
<!-- Pulse -->
<circle
      fill="#2d9cf0"
      style="transform-origin: 35px 35px"
      cx="35"
       cy="35"
      r="17.5"
    ></circle>
<circle
      fill="#ffc107"
      style="transform-origin: 89.66666666666666px 35px"
      cx="89.66666666666666"
       cy="35"
      r="17.5"
    ><animateTransform
              type="scale"
              additive="sum"
              attributeName="transform"
              keyTimes="0; 0.6; 0.9; 1"
              values="1; 1.2; 1; 1"
              begin="0s"
              dur="1.5s"
              fill="freeze"
              repeatCount="indefinite"
            /></circle>
<circle
      fill="#E41A0C"
      style="transform-origin: 144.33333333333331px 35px"
      cx="144.33333333333331"
       cy="35"
      r="17.5"
    ><animateTransform
              type="scale"
              additive="sum"
              attributeName="transform"
              keyTimes="0; 0.6; 0.9; 1"
              values="1; 1.2; 1; 1"
              begin="0s"
              dur="1.5s"
              fill="freeze"
              repeatCount="indefinite"
            /></circle>
<!-- Name --><text
      fill="#545454"
      font-size="16"
      x="35"
      y="64"
      text-anchor="middle"
      dominant-baseline="middle"
    >Text</text><text
      fill="#545454"
      font-size="16"
      x="89.66666666666666"
      y="64"
      text-anchor="middle"
      dominant-baseline="middle"
    >Text</text><text
      fill="#545454"
      font-size="16"
      x="144.33333333333331"
      y="64"
      text-anchor="middle"
      dominant-baseline="middle"
    >Text</text>
<!-- Icon --><path
      fill="#ffffff"
      transform="translate(24.5, 24.5) scale(0.875)"
      d="M4 19H8.6L2.62 8.64C2.23 8 2 7.29 2 6.5C2 4.29 3.79 2.5 6 2.5C7.86 2.5 9.43 3.78 9.87 5.5H14V3C14 1.9 14.9 1 16 1V3.59L17.59 2H22V4H18.41L16 6.41V6.59L18.41 9H22V11H17.59L16 9.41V12C14.9 12 14 11.11 14 10V7.5H9.87C9.77 7.89 9.61 8.26 9.41 8.6L15.41 19H20C21.11 19 22 19.9 22 21V22H2V21C2 19.9 2.9 19 4 19M7.91 10C7.35 10.32 6.7 10.5 6 10.5L10.91 19H13.1L7.91 10M6 4.5C4.89 4.5 4 5.4 4 6.5C4 7.61 4.89 8.5 6 8.5C7.11 8.5 8 7.61 8 6.5C8 5.4 7.11 4.5 6 4.5Z"
      /><path
      fill="#545454"
      transform="translate(79.16666666666666, 24.5) scale(0.875)"
      d="M4 19H8.6L2.62 8.64C2.23 8 2 7.29 2 6.5C2 4.29 3.79 2.5 6 2.5C7.86 2.5 9.43 3.78 9.87 5.5H14V3C14 1.9 14.9 1 16 1V3.59L17.59 2H22V4H18.41L16 6.41V6.59L18.41 9H22V11H17.59L16 9.41V12C14.9 12 14 11.11 14 10V7.5H9.87C9.77 7.89 9.61 8.26 9.41 8.6L15.41 19H20C21.11 19 22 19.9 22 21V22H2V21C2 19.9 2.9 19 4 19M7.91 10C7.35 10.32 6.7 10.5 6 10.5L10.91 19H13.1L7.91 10M6 4.5C4.89 4.5 4 5.4 4 6.5C4 7.61 4.89 8.5 6 8.5C7.11 8.5 8 7.61 8 6.5C8 5.4 7.11 4.5 6 4.5Z"
      /><path
      fill="#ffffff"
      transform="translate(133.83333333333331, 24.5) scale(0.875)"
      d="M4 19H8.6L2.62 8.64C2.23 8 2 7.29 2 6.5C2 4.29 3.79 2.5 6 2.5C7.86 2.5 9.43 3.78 9.87 5.5H14V3C14 1.9 14.9 1 16 1V3.59L17.59 2H22V4H18.41L16 6.41V6.59L18.41 9H22V11H17.59L16 9.41V12C14.9 12 14 11.11 14 10V7.5H9.87C9.77 7.89 9.61 8.26 9.41 8.6L15.41 19H20C21.11 19 22 19.9 22 21V22H2V21C2 19.9 2.9 19 4 19M7.91 10C7.35 10.32 6.7 10.5 6 10.5L10.91 19H13.1L7.91 10M6 4.5C4.89 4.5 4 5.4 4 6.5C4 7.61 4.89 8.5 6 8.5C7.11 8.5 8 7.61 8 6.5C8 5.4 7.11 4.5 6 4.5Z"
      /></svg>
