<svg viewBox="0 0 24 24" version="1.1" xmlns="http://www.w3.org/2000/svg">
    <g stroke="none" fill="none" fill-rule="nonzero">
        <path d="M18.6080442,15.0451014 C18.8034851,15.4870659 18.6036382,16.003785 18.1616737,16.1992259 C17.7197093,16.3946668 17.2029901,16.19482 17.0075492,15.7528555 C16.8121083,15.3108911 17.0119551,14.7941719 17.4539196,14.598731 C17.8958841,14.4032901 18.4126033,14.6031369 18.6080442,15.0451014 Z M20.8840241,12.8552975 C21.252384,13.1680925 21.2974283,13.7202777 20.9846333,14.0886376 C20.6718383,14.4569976 20.1196531,14.5020418 19.7512932,14.1892468 C19.3829333,13.8764518 19.337889,13.3242667 19.650684,12.9559067 C19.963479,12.5875468 20.5156642,12.5425025 20.8840241,12.8552975 Z M21.9881063,9.80540512 C22.4576399,9.91971993 22.7456017,10.3930226 22.6312869,10.8625563 C22.5169721,11.33209 22.0436694,11.6200518 21.5741357,11.505737 C21.104602,11.3914221 20.8166403,10.9181194 20.9309551,10.4485858 C21.0452699,9.97905209 21.5185726,9.6910903 21.9881063,9.80540512 Z M22.7084813,7.47731154 C22.8010694,7.95160808 22.4916335,8.41115882 22.017337,8.50374685 C21.5430404,8.59633488 21.0834897,8.28689899 20.9909017,7.81260246 C20.8983136,7.33830592 21.2077495,6.87875518 21.682046,6.78616715 C22.1563426,6.69357913 22.6158933,7.00301501 22.7084813,7.47731154 Z M8.45900496,6.29570738 C8.92507461,6.42341341 9.19937252,6.9047637 9.0716665,7.37083335 C8.94396047,7.836903 8.46261018,8.11120091 7.99654053,7.98349488 C7.53047088,7.85578885 7.25617297,7.37443856 7.383879,6.90836891 C7.51158502,6.44229927 7.99293532,6.16800135 8.45900496,6.29570738 Z M21.1856869,4.14573633 C21.4834123,4.52637961 21.4161941,5.07630612 21.0355508,5.37403155 C20.6549075,5.67175699 20.104981,5.6045388 19.8072556,5.22389551 C19.5095302,4.84325223 19.5767484,4.29332572 19.9573916,3.99560028 C20.3380349,3.69787484 20.8879614,3.76509304 21.1856869,4.14573633 Z M10.3263694,3.69195007 C10.6876083,4.01294262 10.7202344,4.56600047 10.3992418,4.92723935 C10.0782493,5.28847823 9.52519141,5.32110433 9.16395253,5.00011178 C8.80271365,4.67911922 8.77008755,4.12606138 9.0910801,3.76482249 C9.41207266,3.40358361 9.9651305,3.37095751 10.3263694,3.69195007 Z M18.433451,1.91494043 C18.8676221,2.12713186 19.0475722,2.65111222 18.8353807,3.08528332 C18.6231893,3.51945442 18.0992089,3.69940449 17.6650378,3.48721305 C17.2308667,3.27502162 17.0509167,2.75104125 17.2631081,2.31687016 C17.4752995,1.88269906 17.9992799,1.70274899 18.433451,1.91494043 Z M13.1510447,2.17825708 C13.3333303,2.62580788 13.1182903,3.13639114 12.6707395,3.31867671 C12.2231887,3.50096227 11.7126054,3.28592231 11.5303199,2.83837151 C11.3480343,2.39082071 11.5630743,1.88023745 12.0106251,1.69795189 C12.4581759,1.51566632 12.9687591,1.73070628 13.1510447,2.17825708 Z M15.8545433,1.99385871 C15.8545433,2.47710786 15.4627925,2.86885871 14.9795433,2.86885871 C14.4962942,2.86885871 14.1045433,2.47710786 14.1045433,1.99385871 C14.1045433,1.51060955 14.4962942,1.11885871 14.9795433,1.11885871 C15.4627925,1.11885871 15.8545433,1.51060955 15.8545433,1.99385871 Z" fill="currentColor" transform="translate(14.961, 8.9925) rotate(4) translate(-14.961, -8.9925)"></path>
        <path d="M14.0770861,8 C14.7457252,8 14.9881898,8.06961921 15.2326343,8.20034953 C15.4770787,8.33107985 15.6689202,8.52292128 15.7996505,8.76736572 C15.9303808,9.01181017 16,9.25427485 16,9.9229139 L16,20.0770861 C16,20.7457252 15.9303808,20.9881898 15.7996505,21.2326343 C15.6689202,21.4770787 15.4770787,21.6689202 15.2326343,21.7996505 C14.9881898,21.9303808 14.7457252,22 14.0770861,22 L3.9229139,22 C3.25427485,22 3.01181017,21.9303808 2.76736572,21.7996505 C2.52292128,21.6689202 2.33107985,21.4770787 2.20034953,21.2326343 C2.06961921,20.9881898 2,20.7457252 2,20.0770861 L2,9.9229139 C2,9.25427485 2.06961921,9.01181017 2.20034953,8.76736572 C2.33107985,8.52292128 2.52292128,8.33107985 2.76736572,8.20034953 C3.01181017,8.06961921 3.25427485,8 3.9229139,8 L14.0770861,8 Z M14.2698167,9.50083977 L3.73018335,9.50083977 C3.60057666,9.50226205 3.54249818,9.50554719 3.51112019,9.51112019 C3.50554719,9.54249818 3.50226205,9.60057666 3.50083977,9.73018335 L3.50083977,20.2698166 C3.50226205,20.3994233 3.50554719,20.4575018 3.51112019,20.4888798 C3.55504938,20.496682 3.65131152,20.5 3.9229139,20.5 L14.0770861,20.5 C14.3486885,20.5 14.4449506,20.496682 14.4888798,20.4888798 C14.496682,20.4449506 14.5,20.3486885 14.5,20.0770861 L14.5,9.9229139 C14.5,9.65131152 14.496682,9.55504938 14.4888798,9.51112019 C14.4575018,9.50554719 14.3994234,9.50226205 14.2698167,9.50083977 Z" fill="currentColor"></path>
    </g>
</svg>