<?xml version="1.0" encoding="utf-8"?>
<svg viewBox="0 0 24 24" width="24" height="24" xmlns="http://www.w3.org/2000/svg">
  <path fill="currentColor" d="M 11.171 19.805 C 11.694 20.328 12.026 20.929 12.196 21.537 C 12.352 21.452 12.465 21.339 12.585 21.219 C 13.363 20.441 13.363 19.168 12.585 18.39 C 12.196 18.001 11.56 18.001 11.171 18.39 C 10.782 18.779 10.782 19.416 11.171 19.805 Z M 9.868 0.351 L 13.875 0.351 C 14.412 0.336 14.872 0.796 14.872 1.348 L 14.872 14.348 L 8.871 14.348 L 8.871 1.348 C 8.878 1.073 8.984 0.825 9.168 0.641 C 9.345 0.464 9.585 0.351 9.868 0.351 Z M 13.999 16.976 C 15.562 18.539 15.562 21.07 13.999 22.633 C 12.939 23.694 11.27 24.259 9.756 24.047 C 10.351 23.453 10.683 22.145 9.756 21.219 C 8.582 20.045 8.582 18.15 9.756 16.976 C 10.93 15.802 12.825 15.802 13.999 16.976 Z M 10.872 12.348 L 12.871 12.348 L 12.872 2.347 L 10.872 2.348 L 10.872 12.348 Z" style="transform-origin: 12.0211px 12.2209px;" transform="matrix(0.707107007504, 0.707107007504, -0.707107007504, 0.707107007504, -3.25106e-7, 9.307e-9)"/>
</svg>
