<svg viewBox="0 0 24 24" version="1.1" xmlns="http://www.w3.org/2000/svg">
    <path d="M12,3 C16.9705627,3 21,7.02943725 21,12 C21,16.9705627 16.9705627,21 12,21 C7.02943725,21 3,16.9705627 3,12 C3,7.02943725 7.02943725,3 12,3 Z M9.52512627,8.46446609 C9.23223305,8.17157288 8.75735931,8.17157288 8.46446609,8.46446609 C8.17157288,8.75735931 8.17157288,9.23223305 8.46446609,9.52512627 L10.9400469,11.9992929 L8.46446609,14.4748737 C8.17157288,14.767767 8.17157288,15.2426407 8.46446609,15.5355339 L8.54127003,15.6026553 C8.83524118,15.8263931 9.25664082,15.8040194 9.52512627,15.5355339 L12,13.0606602 L14.4748737,15.5355339 C14.767767,15.8284271 15.2426407,15.8284271 15.5355339,15.5355339 C15.8284271,15.2426407 15.8284271,14.767767 15.5355339,14.4748737 L13.0606602,12 L15.5355339,9.52512627 C15.8284271,9.23223305 15.8284271,8.75735931 15.5355339,8.46446609 L15.45873,8.39734473 C15.1647588,8.17360686 14.7433592,8.19598064 14.4748737,8.46446609 L12.0007071,10.9386327 L9.52512627,8.46446609 Z" fill="currentColor"/>
</svg>
