<svg viewBox="0 0 24 24" version="1.1" xmlns="http://www.w3.org/2000/svg">
    <g stroke="none" stroke-width="1" fill="none" fill-rule="evenodd">
        <path d="M22,16.3714831 C22,16.7752418 21.6729895,17.1022523 21.2692308,17.1022523 L9.57692308,17.1022523 C8.09894523,17.1022523 6.89774769,15.9001428 6.89774769,14.4230769 L6.89774769,8.57692308 L8.35928615,8.57692308 L8.35928615,14.4230769 C8.35928615,15.0944726 8.90552738,15.6407138 9.57692308,15.6407138 L16.6407138,15.6407138 L16.6407138,8.57692308 C16.6407138,7.90552738 16.0944726,7.35928615 15.4230769,7.35928615 L3.73076923,7.35928615 C3.32701046,7.35928615 3,7.03227569 3,6.62851692 C3,6.22475815 3.32701046,5.89774769 3.73076923,5.89774769 L6.89774769,5.89774769 L6.89774769,2.73076923 C6.89774769,2.32701046 7.22475815,2 7.62851692,2 C8.03227569,2 8.35928615,2.32701046 8.35928615,2.73076923 L8.35928615,5.89774769 L15.4230769,5.89774769 C16.9010548,5.89774769 18.1022523,7.09985723 18.1022523,8.57692308 L18.1022523,15.6407138 L21.2692308,15.6407138 C21.6729895,15.6407138 22,15.9677243 22,16.3714831 Z M16.6407138,20.2692308 C16.6407138,20.6729895 16.9677243,21 17.3714831,21 C17.7752418,21 18.1022523,20.6729895 18.1022523,20.2692308 L18.1022523,18.3208246 L16.6407138,18.3208246 L16.6407138,20.2692308 Z" fill="currentColor" fill-rule="nonzero"></path>
    </g>
</svg>
