<svg viewBox="0 0 24 24" version="1.1" xmlns="http://www.w3.org/2000/svg">
    <path d="M12,0 C5.52692308,0 1,2.39142857 1,5.81142857 C1,5.85428571 1,5.89714286 1,5.94 C1,5.98285714 1,6 1,6 L1,18.1885714 C1,21.6085714 5.52692308,24 12,24 C18.4730769,24 23,21.6085714 23,18.1885714 L23,6 C23,6 23,6 23,5.94 C23,5.88 23,5.85428571 23,5.81142857 C23,2.39142857 18.4730769,0 12,0 Z M21.3076923,12 C21.3076923,14.0571429 17.7453846,16.2857143 12,16.2857143 C6.25461538,16.2857143 2.69230769,14.0571429 2.69230769,12 L2.69230769,9.14571429 C4.62153846,10.86 8.03153846,12 12,12 C15.9684615,12 19.3784615,10.8685714 21.3076923,9.14571429 L21.3076923,12 Z M12,1.71428571 C17.83,1.71428571 21.3076923,3.79714286 21.3076923,5.81142857 C21.3076923,7.97142857 17.5676923,10.2857143 12,10.2857143 C6.43230769,10.2857143 2.69230769,7.97142857 2.69230769,5.81142857 C2.69230769,3.79714286 6.17,1.71428571 12,1.71428571 Z M12,22.2857143 C6.17,22.2857143 2.69230769,20.2028571 2.69230769,18.1885714 L2.69230769,15.2742857 C4.60461538,16.9371429 7.98076923,18 12,18 C16.0192308,18 19.3953846,16.9371429 21.3076923,15.2742857 L21.3076923,18.1885714 C21.3076923,20.2028571 17.83,22.2857143 12,22.2857143 Z" fill="currentColor" fill-rule="nonzero"></path>
</svg>