<svg
  viewBox="0 0 48 48"
  version="1.1"
  xmlns="http://www.w3.org/2000/svg"
>
  <g stroke="none" stroke-width="1" fill="none" fill-rule="evenodd">
    <g>
      <rect id="Rectangle" x="0" y="0" width="48" height="48"/>
      <path
        d="M37,29.551124 L37,34.2227342 C37,37.426124 31.4047055,40.2290901 24.5012036,40.2290901 C17.7152563,40.2290901 12.1924725,37.5203346 12.0072089,34.3852616 L12.0005266,34.0898775 L12.0024072,29.551124 L12.2320494,29.5506504 C13.355048,32.0396414 18.4206765,33.9322829 24.5,33.9322829 C30.5798127,33.9322829 35.6450689,32.0396414 36.7679716,29.5506504 L37,29.551124 Z"
        id="Path"
        fill="currentColor"
        fill-rule="nonzero"
      />
      <path
        d="M37,21.9152542 L37,26.5868644 C37,26.7275865 36.9892024,26.8675359 36.9679706,27.006509 C36.9549767,26.9244144 36.937119,26.8552851 36.9138889,26.8048877 C36.1444444,29.3811588 30.8736111,31.5506504 24.5,31.5506504 C18.1258333,31.5506504 12.8559722,29.3811588 12.0868056,26.8048877 C12.0643785,26.8524853 12.0470002,26.9167912 12.0338896,26.9919403 C12.012493,26.858138 12.0024072,26.7228621 12.0024072,26.5868644 L12.0005266,26.4540078 L12.0024072,21.9152542 L12.3965461,21.9157273 C13.7878678,24.2480109 18.679292,25.9830508 24.5,25.9830508 C30.3211765,25.9830508 35.2122791,24.2480109 36.6034885,21.9157273 L37,21.9152542 Z"
        id="Path"
        fill="currentColor"
        fill-rule="nonzero"
      />
      <path
        d="M30.7500001,9.6152881 C34.6175136,10.5690056 37,12.3315481 37,14.2389831 C37,14.3240944 36.9952564,14.4089172 36.985849,14.4933925 L37,14.4932203 L37,19.1648305 C37,19.2515038 36.9959039,19.337884 36.9877965,19.4239234 C36.9739995,19.2761354 36.9506832,19.1493166 36.9138889,19.0694915 C36.1444444,21.6457627 30.8736111,23.8152542 24.5,23.8152542 C18.1258333,23.8152542 12.8559722,21.6457627 12.0868056,19.0694915 C12.0501381,19.1473118 12.0269666,19.2697951 12.0138775,19.4113082 L12.005249,19.2888896 L12.0005266,19.0319739 L12.0024072,14.4932203 L12.014151,14.4933925 C12.0047436,14.4089172 12,14.3240944 12,14.2389831 C12,12.3315481 14.3824864,10.5690056 18.2499999,9.6152881 C22.1175134,8.66157063 26.8824866,8.66157063 30.7500001,9.6152881 Z"
        id="Path"
        fill="currentColor"
        fill-rule="nonzero"
      />
    </g>
  </g>
</svg>
