<?xml version="1.0" encoding="utf-8"?>
<svg viewBox="0 0 24 24" xmlns="http://www.w3.org/2000/svg">
  <path d="M 9 9 L 9 15.039 C 8.979 16.126 8.092 17 7 17 L 4 17 C 2.908 17 2.021 16.126 2 15.039 L 2 9 C 2 7.895 2.895 7 4 7 L 7 7 C 8.105 7 9 7.895 9 9 Z M 4 15 L 7 15 L 7 9 L 4 9 L 4 15 Z" fill="currentColor"/>
  <path d="M 15 17 L 15 9 L 13 9 L 13 7 L 17 7 L 17 17 L 15 17" fill="currentColor"/>
  <rect x="11" y="15" width="2" height="2"  fill="currentColor"/>
  <path d="M 20 17 L 20 9 L 18 9 L 18 7 L 22 7 L 22 17 L 20 17"  fill="currentColor"/>
</svg>
