<svg viewBox="0 0 53 43" xmlns="http://www.w3.org/2000/svg">
  <path d="M45.187 15.423c4.175 0 7.625-3.45 7.625-7.624 0-4.175-3.45-7.625-7.625-7.625s-7.602 3.45-7.602 7.625 3.427 7.624 7.602 7.624ZM7.131 42.098h35.376c3.955 0 6.24-2.285 6.24-6.811v-17.49c-1.055.395-2.175.593-3.362.615v17.204L32.839 23.202l6.591-6.482a10.145 10.145 0 0 1-2.395-2.154l-9.843 9.712c-.945.945-1.802 1.363-2.659 1.363-.879 0-1.714-.418-2.659-1.363L5.284 7.908c.484-.197 1.056-.307 1.715-.307h27.575c0-1.186.22-2.329.616-3.362H6.47c-3.955 0-6.24 2.263-6.24 6.79v24.258c0 4.548 2.307 6.811 6.9 6.811Zm-3.538-6.811v-24.5l12.634 12.415-12.612 12.48c-.022-.132-.022-.264-.022-.395Zm20.94-6.263c1.538 0 3.032-.637 4.57-2.153l1.428-1.406 13.096 12.964c-.461.22-1.01.307-1.648.307H7c-.615 0-1.143-.088-1.604-.285l13.14-12.986 1.428 1.406c1.538 1.516 3.01 2.153 4.57 2.153Z" fill="currentColor"/>
</svg>
