<svg viewBox="0 0 24 24" version="1.1" xmlns="http://www.w3.org/2000/svg">
    <path d="M8.53033009,10.2803301 C8.26406352,10.5465966 7.84739984,10.5708027 7.55378835,10.3529482 L7.46966991,10.2803301 C7.1767767,9.98743687 7.1767767,9.51256313 7.46966991,9.21966991 L11.4696699,5.21966991 C11.7625631,4.9267767 12.2374369,4.9267767 12.5303301,5.21966991 L16.5303301,9.21966991 C16.8232233,9.51256313 16.8232233,9.98743687 16.5303301,10.2803301 C16.2374369,10.5732233 15.7625631,10.5732233 15.4696699,10.2803301 L12.69,7.5 L12.75,9.05 L12.75,15.25 C12.75,15.6642136 12.4142136,16 12,16 C11.5857864,16 11.25,15.6642136 11.25,15.25 L11.25,9.05 L11.31,7.5 L8.53033009,10.2803301 Z M6.75066528,18.4986694 L17.2493347,18.4986694 C17.6639157,18.4986694 18,18.8347537 18,19.2493347 C18,19.6639157 17.6639157,20 17.2493347,20 L6.75066528,20 C6.3360843,20 6,19.6639157 6,19.2493347 C6,18.8347537 6.3360843,18.4986694 6.75066528,18.4986694 Z" fill="currentColor" fill-rule="nonzero"></path>
</svg>
