<svg viewBox="0 0 24 24" version="1.1" xmlns="http://www.w3.org/2000/svg">
    <path d="M20,0 C22.209139,0 24,1.790861 24,4 L24,20 C24,22.209139 22.209139,24 20,24 L4,24 C1.790861,24 0,22.209139 0,20 L0,4 C0,1.790861 1.790861,0 4,0 L20,0 Z M20,2 L4,2 C2.8954305,2 2,2.8954305 2,4 L2,20 C2,21.1045695 2.8954305,22 4,22 L20,22 C21.1045695,22 22,21.1045695 22,20 L22,4 C22,2.8954305 21.1045695,2 20,2 Z" id="path" fill-opacity="0.25" fill="currentColor" fill-rule="nonzero"></path>
    <path d="M11.2,19.6 C11.6,20.1333333 12.4,20.1333333 12.8,19.6 L15.8,15.6 C16.1313708,15.1581722 16.0418278,14.5313708 15.6,14.2 C15.1581722,13.8686292 14.5313708,13.9581722 14.2,14.4 L12,17.333 L9.8,14.4 C9.49411922,13.992159 8.93651067,13.8844895 8.50502515,14.1309704 L8.4,14.2 C7.9581722,14.5313708 7.86862915,15.1581722 8.2,15.6 L11.2,19.6 Z M11.2,4.4 C11.6,3.86666667 12.4,3.86666667 12.8,4.4 L15.8,8.4 C16.1313708,8.8418278 16.0418278,9.46862915 15.6,9.8 C15.1581722,10.1313708 14.5313708,10.0418278 14.2,9.6 L12,6.667 L9.8,9.6 C9.49411922,10.007841 8.93651067,10.1155105 8.50502515,9.86902959 L8.4,9.8 C7.9581722,9.46862915 7.86862915,8.8418278 8.2,8.4 L11.2,4.4 Z" id="path" fill="currentColor" fill-rule="nonzero"></path>
</svg>
