<svg xmlns="http://www.w3.org/2000/svg" viewBox="0 0 24 24"><path d="M10.4068542,17.4968542 C10.783412,17.4968542 11.095154,17.7743637 11.1487223,18.1360247 L11.1568542,18.2468542 C11.1568542,18.6610678 10.8210678,18.9968542 10.4068542,18.9968542 L5.75,18.9968542 C5.33578644,18.9968542 5,18.6610678 5,18.2468542 L5,13.59 C5,13.1757864 5.33578644,12.84 5.75,12.84 C6.16421356,12.84 6.5,13.1757864 6.5,13.59 L6.49953319,16.5215137 L7.55312229,15.3830718 L9.96578954,13.0128683 C10.2620367,12.7218351 10.7374853,12.7239457 11.0311371,13.0175974 C11.2950501,13.2815105 11.3190422,13.6944913 11.1031133,13.9855076 L11.0264497,14.0735284 L8.61378246,16.443732 L7.47534055,17.4973211 L10.4068542,17.4968542 Z M13.5939527,6.5 C13.2173949,6.5 12.905653,6.22249055 12.8520846,5.8608295 L12.8439527,5.75 C12.8439527,5.33578644 13.1797392,5 13.5939527,5 L18.250807,5 C18.6650205,5 19.000807,5.33578644 19.000807,5.75 L19.000807,10.4068542 C19.000807,10.8210678 18.6650205,11.1568542 18.250807,11.1568542 C17.8365934,11.1568542 17.500807,10.8210678 17.500807,10.4068542 L17.5012738,7.47534055 L16.4476847,8.61378246 L14.0350174,10.983986 C13.7387702,11.2750191 13.2633217,11.2729086 12.9696699,10.9792568 C12.7057569,10.7153438 12.6817648,10.3023629 12.8976936,10.0113466 L12.9743573,9.92332581 L15.3870245,7.55312229 L16.5254664,6.49953319 L13.5939527,6.5 Z" fill="currentColor"/></svg>
