<svg xmlns="http://www.w3.org/2000/svg" viewBox="0 0 24 24">
  <path fill="currentColor" d="M12.96 22h-1.92c-.664 0-1.158-.399-1.32-1.055l-.417-1.833-.456-.162-1.586.988c-.57.37-1.206.285-1.68-.19l-1.33-1.33c-.485-.475-.56-1.112-.2-1.682l.997-1.586-.161-.447-1.833-.418C2.4 14.124 2 13.629 2 12.965v-1.891c0-.665.399-1.16 1.054-1.321l1.814-.437.18-.447-1.006-1.586c-.361-.57-.285-1.197.2-1.682l1.329-1.34c.475-.465 1.101-.55 1.68-.19l1.587.988.465-.17.418-1.834C9.882 2.39 10.376 2 11.04 2h1.918c.674 0 1.159.39 1.32 1.055l.418 1.833.475.171 1.586-.988c.58-.36 1.206-.275 1.671.19l1.34 1.34c.474.485.56 1.112.19 1.682l-.998 1.586.18.447 1.805.437c.665.161 1.054.656 1.054 1.32v1.891c0 .665-.399 1.16-1.054 1.321l-1.823.418-.162.447.997 1.586c.361.57.285 1.207-.2 1.682l-1.329 1.33c-.475.475-1.11.56-1.68.19l-1.587-.988-.465.162-.418 1.833c-.161.656-.646 1.055-1.32 1.055Zm-.124-1.15c.228 0 .351-.104.39-.313l.55-2.309a6.376 6.376 0 0 0 1.405-.56l2.014 1.254c.18.114.351.095.522-.067l1.15-1.159c.16-.162.18-.323.056-.513l-1.244-2.014c.18-.37.408-.874.541-1.397l2.318-.542c.208-.038.322-.161.322-.39v-1.652c0-.228-.104-.352-.322-.4l-2.308-.541c-.143-.542-.38-1.055-.541-1.406l1.244-2.005c.123-.2.114-.36-.048-.522l-1.159-1.15c-.17-.162-.332-.18-.531-.067L15.2 6.333c-.389-.2-.92-.409-1.434-.561l-.54-2.309c-.039-.209-.162-.313-.39-.313h-1.672c-.228 0-.351.095-.39.313l-.55 2.328c-.532.133-1.007.352-1.405.551L6.815 5.097c-.2-.114-.361-.095-.532.067l-1.159 1.15c-.161.161-.17.323-.047.522L6.32 8.841l-.159.336c-.14.307-.29.676-.392 1.07l-2.308.542c-.218.047-.313.17-.313.399v1.653c0 .228.105.351.313.39l2.318.541c.142.532.351 1.026.55 1.397l-1.244 2.014c-.123.19-.104.351.048.513l1.158 1.16c.171.16.342.18.523.066l2.013-1.255c.38.219.864.419 1.396.561l.55 2.309c.039.218.162.313.39.313h1.672ZM12 15.634c-1.994 0-3.628-1.644-3.628-3.639 0-1.976 1.634-3.61 3.628-3.61 1.985 0 3.628 1.634 3.628 3.61 0 1.995-1.643 3.64-3.628 3.64Zm0-1.14c1.358 0 2.488-1.13 2.488-2.499 0-1.349-1.13-2.48-2.488-2.48-1.349 0-2.479 1.131-2.479 2.48 0 1.359 1.13 2.5 2.479 2.5Z"/>
</svg>
