<svg viewBox="0 0 24 24" version="1.1" xmlns="http://www.w3.org/2000/svg">
    <g stroke="none" fill="none" fill-rule="nonzero">
        <path d="M13,3.835 L13,5.165 L5.5,5.165 C4.76269986,5.165 4.165,5.76269986 4.165,6.5 L4.165,17 C4.165,17.1449393 4.18809761,17.284484 4.23081279,17.4151538 L6.84528896,14.8556353 C7.21573833,14.4927461 7.80212775,14.4732524 8.19586017,14.8107373 L10.5,16.7857143 L14.7484514,13.1441845 C15.1647549,12.7873529 15.7907586,12.8322956 16.1518195,13.2449365 L19.7774471,17.3889699 C19.8148721,17.2659017 19.835,17.1353014 19.835,17 L19.834,11 L21.164,11 L21.165,17 C21.165,18.4718389 19.9718389,19.665 18.5,19.665 L5.5,19.665 C4.02816114,19.665 2.835,18.4718389 2.835,17 L2.835,6.5 C2.835,5.02816114 4.02816114,3.835 5.5,3.835 L13,3.835 Z M7.50095242,8.24900294 C8.46797674,8.24900294 9.25190485,9.03293104 9.25190485,9.99995536 C9.25190485,10.9669797 8.46797674,11.7509078 7.50095242,11.7509078 C6.5339281,11.7509078 5.75,10.9669797 5.75,9.99995536 C5.75,9.03293104 6.5339281,8.24900294 7.50095242,8.24900294 Z M16.5,3.51962484 L16.5058953,3.69964034 C16.6065655,5.74776085 18.247685,7.3909069 20.2949606,7.49478509 L20.501,7.5 C18.3652961,7.5 16.620524,9.17377806 16.5068863,11.2811317 L16.501,11.5 C16.501,9.290861 14.710139,7.5 12.501,7.5 C14.6367039,7.5 16.381476,5.82622194 16.4951137,3.71886832 L16.5,3.51962484 Z M20.4993752,1 C20.4993752,2.38036678 21.6183835,3.49937516 22.9987503,3.49937516 C21.6183835,3.49937516 20.4993752,4.61838353 20.4993752,5.99875031 C20.4993752,4.61838353 19.3803668,3.49937516 18,3.49937516 C19.3251521,3.49937516 20.4094363,2.46809704 20.4940588,1.1643346 L20.4993752,1 Z" fill="currentColor"></path>
    </g>
</svg>
