<svg width="24px" height="24px" viewBox="0 0 24 24" version="1.1" xmlns="http://www.w3.org/2000/svg">
    <g stroke="none" stroke-width="1" fill="none" fill-rule="evenodd">
        <circle stroke-opacity="0.2" stroke="currentColor" stroke-width="2" cx="12" cy="12" r="11"></circle>
        <path d="M11.9524064,8.08028721 C12.7545455,8.08028721 13.3962567,7.44321149 13.3962567,6.67036554 C13.3962567,5.87663185 12.7545455,5.25 11.9524064,5.25 C11.1502674,5.25 10.5085561,5.87663185 10.5085561,6.67036554 C10.5085561,7.44321149 11.1502674,8.08028721 11.9524064,8.08028721 Z M10.1449198,17.25 L14.4550802,17.25 C14.9256684,17.25 15.3,16.9157963 15.3,16.4458225 C15.3,16.0071802 14.9256684,15.6625326 14.4550802,15.6625326 L13.2572193,15.6625326 L13.2572193,10.7225849 C13.2572193,10.1063969 12.9470588,9.69908616 12.3481283,9.69908616 L10.3374332,9.69908616 C9.85614973,9.69908616 9.49251337,10.0541775 9.49251337,10.4928198 C9.49251337,10.9627937 9.85614973,11.2969974 10.3374332,11.2969974 L11.4176471,11.2969974 L11.4176471,15.6625326 L10.1449198,15.6625326 C9.67433155,15.6625326 9.3,16.0071802 9.3,16.4458225 C9.3,16.9157963 9.67433155,17.25 10.1449198,17.25 Z" fill="currentColor" fill-rule="nonzero"></path>
    </g>
</svg>
