<svg width="24px" height="24px" viewBox="0 0 24 24" version="1.1" xmlns="http://www.w3.org/2000/svg">
    <g stroke="none" stroke-width="1" fill="none" fill-rule="evenodd">
        <path d="M11.8504,4 C11.872,4 11.8928,4.0008 11.9136,4.0016 L11.9752,4.0024 C16.4192,4.0736 20,7.6272 20,12 C20,16.396 16.3832,19.9632 11.9088,19.9992 L11.8656,20 C11.6072,20 11.3608,19.8992 11.1784,19.7216 C10.9968,19.5432 10.8944,19.3016 10.8952,19.0496 C10.8944,18.5352 11.3128,18.1144 11.8392,18.1 C11.8472,18.1016 11.856,18.1024 11.8656,18.1024 C11.9216,18.1024 11.9768,18.08 12.0168,18.0408 C12.0568,18.0016 12.0792,17.948 12.0792,17.892 C12.0792,17.8304 12.0512,17.772 12.0032,17.7328 C11.9552,17.6928 11.8912,17.676 11.8296,17.6856 L11.8016,17.6864 C11.5448,17.6864 11.2976,17.5864 11.1152,17.408 C10.9328,17.2296 10.8312,16.988 10.8312,16.736 C10.8312,16.4736 10.9416,16.2232 11.1376,16.0432 C11.3328,15.864 11.5952,15.7712 11.8632,15.788 L11.8632,15.7712 C11.956,15.7712 12.0416,15.7176 12.0784,15.6344 C12.116,15.5504 12.0984,15.4528 12.0344,15.3864 C11.9712,15.32 11.8728,15.2976 11.7848,15.3288 L11.8016,15.3296 C11.5448,15.3296 11.2976,15.2296 11.1152,15.0512 C10.9328,14.8728 10.8312,14.6312 10.8312,14.3792 C10.8312,14.1168 10.9416,13.8664 11.1376,13.6864 C11.3328,13.5072 11.5952,13.4144 11.8632,13.4312 L11.8632,13.4192 C11.9552,13.4192 12.0392,13.3672 12.0768,13.2856 C12.1152,13.204 12.1008,13.1088 12.0408,13.0408 C11.98,12.9736 11.8848,12.9464 11.7976,12.9728 L11.8016,12.9728 C11.5448,12.9728 11.2976,12.872 11.1152,12.6944 C10.9328,12.516 10.8312,12.2744 10.8312,12.0224 C10.8312,11.76 10.9416,11.5096 11.1376,11.3296 C11.3336,11.1504 11.596,11.0576 11.864,11.0744 L11.864,11.0672 C11.952,11.0672 12.0328,11.0176 12.0728,10.94 C12.112,10.8632 12.1024,10.7704 12.0496,10.7008 C11.996,10.632 11.9072,10.5984 11.82,10.6152 L11.8016,10.616 C11.544,10.616 11.2976,10.5152 11.1144,10.3368 C10.9328,10.1592 10.8312,9.9176 10.8312,9.6656 C10.8312,9.4032 10.9416,9.1528 11.1376,8.9728 C11.3336,8.7928 11.596,8.7008 11.864,8.7168 C11.9928,8.716 12.0968,8.6136 12.0976,8.4872 C12.0976,8.4264 12.0736,8.3688 12.0296,8.3256 C11.9864,8.2832 11.9264,8.2592 11.8656,8.2592 L11.8632,8.2584 L11.8016,8.2592 C11.5448,8.2592 11.2976,8.1592 11.1152,7.9808 C10.9328,7.8024 10.8312,7.5608 10.8312,7.3088 C10.8312,7.0464 10.9416,6.796 11.1376,6.616 C11.3336,6.4368 11.596,6.344 11.864,6.36 C11.9928,6.3592 12.0968,6.2568 12.0976,6.1304 C12.0976,6.0704 12.0736,6.012 12.0296,5.9696 C11.9864,5.9264 11.9264,5.9024 11.8656,5.9024 L11.8504,5.9024 C11.3384,5.9016 10.9136,5.512 10.8816,5.0112 L10.88,4.9512 C10.88,4.6992 10.9824,4.4576 11.164,4.2792 C11.3456,4.1008 11.5928,4 11.8504,4 Z M9.4736,18.332 C9.916,18.332 10.276,18.6768 10.276,19.1024 C10.276,19.528 9.916,19.8728 9.4728,19.8728 C9.0296,19.8728 8.6704,19.528 8.6704,19.1024 C8.6704,18.6768 9.0296,18.332 9.4728,18.332 L9.4736,18.332 Z M7.0664,18.16 C7.3384,18.16 7.5592,18.3688 7.5592,18.6264 C7.5592,18.884 7.3384,19.0928 7.0664,19.0928 C6.7936,19.0928 6.5736,18.884 6.5736,18.6264 C6.5736,18.3688 6.7936,18.16 7.0664,18.16 Z M9.4728,15.8384 C9.9664,15.8384 10.3656,16.2216 10.3656,16.6944 C10.3656,17.168 9.9664,17.5512 9.4728,17.5512 C8.98,17.5512 8.58,17.168 8.58,16.6944 C8.58,16.2216 8.98,15.8384 9.4728,15.8384 Z M7.0664,16.0984 C7.4624,16.0984 7.784,16.4024 7.784,16.7768 C7.784,17.152 7.4624,17.456 7.0664,17.456 C6.6704,17.456 6.3488,17.152 6.3488,16.7768 C6.3488,16.4024 6.6704,16.0984 7.0664,16.0984 Z M4.8944,16.0984 C5.1296,16.0984 5.32,16.2792 5.32,16.5008 C5.32,16.7232 5.1296,16.9032 4.8944,16.9032 C4.6608,16.9032 4.4696,16.7232 4.4696,16.5008 C4.4696,16.2792 4.66,16.0984 4.8944,16.0984 Z M7.0664,13.6896 C7.5168,13.6896 7.8808,14.0344 7.8808,14.46 C7.8808,14.8856 7.5168,15.2312 7.0664,15.2312 C6.616,15.2312 6.2512,14.8856 6.2512,14.46 C6.2512,14.0344 6.616,13.6896 7.0664,13.6896 Z M9.4728,13.516 C9.9664,13.516 10.3656,13.9 10.3656,14.3728 C10.3656,14.8464 9.9664,15.2296 9.4728,15.2296 C8.98,15.2296 8.58,14.8464 8.58,14.3728 C8.58,13.9 8.98,13.516 9.4728,13.516 Z M4.66,13.8168 C5.024,13.8168 5.32,14.0968 5.32,14.4416 C5.32,14.7864 5.024,15.0656 4.66,15.0656 C4.2944,15.0656 4,14.7864 4,14.4416 C4,14.096 4.2952,13.8168 4.66,13.8168 Z M7.0664,11.372 C7.5168,11.372 7.8808,11.7176 7.8808,12.1432 C7.8808,12.5688 7.5168,12.9144 7.0664,12.9144 C6.616,12.9144 6.2512,12.5688 6.2512,12.1432 C6.2512,11.7176 6.616,11.372 7.0664,11.372 Z M9.4728,11.1944 C9.9664,11.1944 10.3656,11.5784 10.3656,12.0512 C10.3656,12.5248 9.9664,12.908 9.4728,12.908 C8.98,12.908 8.58,12.5248 8.58,12.0512 C8.58,11.5784 8.98,11.1944 9.4728,11.1944 Z M4.66,11.4832 C5.024,11.4832 5.32,11.7624 5.32,12.1072 C5.32,12.452 5.024,12.732 4.66,12.732 C4.2944,12.732 4,12.452 4,12.1072 C4,11.7624 4.2952,11.4832 4.66,11.4832 Z M7.0664,9.056 C7.5168,9.056 7.8808,9.4008 7.8808,9.8264 C7.8808,10.252 7.5168,10.5968 7.0664,10.5968 C6.616,10.5968 6.2512,10.252 6.2512,9.8264 C6.2512,9.4008 6.616,9.0552 7.0664,9.0552 L7.0664,9.056 Z M9.4728,8.8728 C9.9664,8.8728 10.3656,9.2568 10.3656,9.7296 C10.3656,10.2032 9.9664,10.5864 9.4728,10.5864 C8.98,10.5864 8.58,10.2032 8.58,9.7296 C8.58,9.2568 8.98,8.8728 9.4728,8.8728 Z M4.66,9.1488 C5.024,9.1488 5.32,9.428 5.32,9.7728 C5.32,10.1184 5.024,10.3976 4.66,10.3976 C4.2944,10.3976 4,10.1184 4,9.7728 C4,9.428 4.2952,9.1488 4.66,9.1488 Z M9.4728,6.5512 C9.9664,6.5512 10.3656,6.9352 10.3656,7.408 C10.3656,7.8808 9.9664,8.2648 9.4728,8.2648 C8.98,8.2648 8.58,7.8808 8.58,7.408 C8.58,6.9352 8.98,6.5512 9.4728,6.5512 Z M7.0664,6.8672 C7.4416,6.8672 7.7456,7.1544 7.7456,7.5096 C7.7456,7.864 7.4416,8.152 7.0664,8.152 C6.692,8.152 6.3872,7.864 6.3872,7.5096 C6.3872,7.1544 6.692,6.8672 7.0664,6.8672 Z M4.876,7.312 C5.1216,7.312 5.32,7.5 5.32,7.732 C5.32,7.964 5.1216,8.152 4.876,8.152 C4.6304,8.152 4.432,7.964 4.432,7.732 C4.432,7.5 4.6304,7.312 4.876,7.312 Z M7.0664,5.0304 C7.3656,5.0304 7.608,5.26 7.608,5.5432 C7.608,5.8256 7.3656,6.0552 7.0664,6.0552 C6.7672,6.0552 6.5256,5.8264 6.5256,5.5432 C6.5256,5.26 6.7672,5.0304 7.0664,5.0304 Z M9.4728,4.2208 C9.9392,4.2208 10.3168,4.5832 10.3168,5.0304 C10.3168,5.4776 9.9392,5.84 9.4728,5.84 C9.0064,5.84 8.6296,5.4776 8.6296,5.0304 C8.6296,4.5832 9.0064,4.2208 9.4728,4.2208 Z" fill="currentColor" fill-rule="nonzero"></path>
    </g>
</svg>
