<svg viewBox="0 0 24 24" version="1.1" xmlns="http://www.w3.org/2000/svg">
  <path d="M12,3.75134061 C16.5556088,3.75134061 20.2486594,7.44439121 20.2486594,12 C20.2486594,16.5556088 16.5556088,20.2486594 12,20.2486594 C10.350739,20.2486594 8.75936505,19.8226789 7.44264025,19.0187962 C7.0891059,18.8029575 6.97748153,18.3413894 7.19332022,17.9878551 C7.40915892,17.6343207 7.87072697,17.5226964 8.22426131,17.7385351 C9.29982209,18.3951831 10.6203356,18.7486594 12,18.7486594 C15.7271817,18.7486594 18.7486594,15.7271817 18.7486594,12 C18.7486594,8.27281834 15.7271817,5.25134061 12,5.25134061 C8.27281834,5.25134061 5.25134061,8.27281834 5.25134061,12 L6.90134058,12 C6.96625165,12 7.02941174,12.0210534 7.08134059,12.06 C7.21388893,12.1594113 7.24075185,12.3474517 7.14134059,12.48 L4.74134062,15.68 C4.72428434,15.7027417 4.70408231,15.7229437 4.68134061,15.74 C4.54879227,15.8394112 4.36075186,15.8125483 4.2613406,15.68 L1.86134062,12.48 C1.82239398,12.4280712 1.80134062,12.3649111 1.80134062,12.3 C1.80134062,12.1343146 1.9356552,12 2.10134063,12 L3.75134061,12 C3.75134061,7.44439121 7.44439121,3.75134061 12,3.75134061 Z M11.2395112,8 C11.6541076,8 11.9902045,8.33609682 11.9902045,8.75069327 L11.9893406,11.8263406 L14.9733695,13.4132732 C15.3394364,13.6079144 15.4784044,14.0624582 15.2837632,14.4285251 C15.0891219,14.794592 14.6345781,14.93356 14.2685112,14.7389188 L10.9579645,12.9786699 C10.9092702,12.9527786 10.8645942,12.9222886 10.8241873,12.8880197 L10.7668101,12.8338847 C10.5973605,12.6951748 10.4888179,12.4849165 10.4888179,12.2493067 L10.4888179,8.75069327 C10.4888179,8.33609682 10.8249148,8 11.2395112,8 Z" id="Shape" fill="currentColor" />
</svg>
