<svg width="24px" height="24px" viewBox="0 0 24 24" version="1.1" xmlns="http://www.w3.org/2000/svg">
    <g stroke="none" stroke-width="1" fill="none" fill-rule="evenodd">
        <path d="M12.5,18 L12.5,20.5 L15,20.5 L15,22 L11.75,22 L11.6482294,21.9931534 C11.2821539,21.943491 11,21.6296958 11,21.25 L11,18 L12.5,18 Z M23,18 L23,21.25 C23,21.6642136 22.6642136,22 22.25,22 L19,22 L19,20.5 L21.5,20.5 L21.5,18 L23,18 Z M15,2 L15,9 L7,9 L7,11 L9,11 L9,15 L1,15 L1,2 L15,2 Z M15,11 L15,12.5 L12.5,12.5 L12.5,15 L11,15 L11,11.75 C11,11.3357864 11.3357864,11 11.75,11 L15,11 Z M22.25,11 C22.6642136,11 23,11.3357864 23,11.75 L23,15 L21.5,15 L21.5,12.5 L19,12.5 L19,11 L22.25,11 Z M5,9 L3,9 L3,11 L5,11 L5,9 Z M5,4 L3,4 L3,6 L5,6 L5,4 Z M9,4 L7,4 L7,6 L9,6 L9,4 Z M13,4 L11,4 L11,6 L13,6 L13,4 Z" fill="currentColor"></path>
    </g>
</svg>