<svg viewBox="0 0 24 24" version="1.1" xmlns="http://www.w3.org/2000/svg">
        <path d="M11.55,3.4 C11.8166667,3.2 12.1833333,3.2 12.45,3.4 L20.45,9.4 C20.6388544,9.54164079 20.75,9.76393202 20.75,10 L20.75,20 C20.75,20.4142136 20.4142136,20.75 20,20.75 L14,20.75 C13.5857864,20.75 13.25,20.4142136 13.25,20 L13.25,15.75 L10.75,15.75 L10.75,20 C10.75,20.3796958 10.4678461,20.693491 10.1017706,20.7431534 L10,20.75 L4,20.75 C3.58578644,20.75 3.25,20.4142136 3.25,20 L3.25,10 C3.25,9.76393202 3.36114562,9.54164079 3.55,9.4 L11.55,3.4 Z M12,4.937 L4.75,10.374 L4.75,19.25 L9.25,19.25 L9.25,15 C9.25,14.6203042 9.53215388,14.306509 9.89822944,14.2568466 L10,14.25 L14,14.25 C14.4142136,14.25 14.75,14.5857864 14.75,15 L14.75,19.25 L19.25,19.25 L19.25,10.375 L12,4.937 Z" id="path" fill="currentColor"></path>
</svg>
