<svg viewBox="0 0 31 56" xmlns="http://www.w3.org/2000/svg">
  <path
    d="M13.973 54.766c.922.77 2.175.88 3.054.023l6.79-6.79c.856-.879.812-2.197-.023-3.054l-3.405-3.384 4.965-4.944c.857-.835.813-2.175-.022-3.054l-4.592-4.614c6.043-2.9 9.448-7.823 9.448-13.667 0-8.108-6.57-14.656-14.677-14.656C7.337.626.811 7.13.811 15.282c0 5.888 3.384 11.118 8.723 13.469v20.742c0 .725.22 1.56.857 2.132l3.582 3.142Zm1.538-3.47-2.44-2.417V26.202c-5.163-1.164-8.744-5.625-8.744-10.92 0-6.153 4.987-11.118 11.184-11.118 6.174 0 11.14 4.965 11.14 11.118 0 5.251-3.604 9.756-9.119 11.074v4.438l4.307 4.33-4.658 4.591v3.648l3.12 3.076-4.79 4.856Zm0-35.815a3.98 3.98 0 0 0 3.977-4 3.976 3.976 0 0 0-3.977-3.978c-2.242 0-4 1.758-4 3.977 0 2.22 1.78 4 4 4Z"
    fill="currentColor"
  />
</svg>
