<svg viewBox="0 0 24 24" version="1.1" xmlns="http://www.w3.org/2000/svg">
    <g stroke="none" stroke-width="1" fill="none" fill-rule="evenodd">
        <path d="M13.1326433,2.25871605 L21.8561005,6.45828943 C22.0900966,6.57093785 22.2786342,6.76154265 22.3900609,6.99810433 C22.6581502,7.56726454 22.419088,8.24837219 21.8561005,8.51940086 L19.2537578,9.77088283 L21.8561005,11.0240255 C22.0900966,11.1366739 22.2786342,11.3272787 22.3900609,11.5638404 C22.6581502,12.1330006 22.419088,12.8141083 21.8561005,13.085137 L19.2537578,14.3366189 L21.8561005,15.5897616 C22.0900966,15.70241 22.2786342,15.8930148 22.3900609,16.1295765 C22.6581502,16.6987367 22.419088,17.3798444 21.8561005,17.650873 L13.5641265,21.6427254 C12.5746071,22.1190915 11.4253931,22.1190915 10.4358737,21.6427254 L2.14389965,17.650873 C1.90990358,17.5382246 1.72136597,17.3476198 1.60993927,17.1110582 C1.34185002,16.5418979 1.58091222,15.8607903 2.14389113,15.5897657 L4.74465229,14.3366189 L2.14389965,13.085137 C1.90990358,12.9724885 1.72136597,12.7818837 1.60993927,12.5453221 C1.34185002,11.9761619 1.58091222,11.2950542 2.14389113,11.0240296 L4.74465229,9.77088283 L2.14389965,8.51940086 C1.90990358,8.40675244 1.72136597,8.21614764 1.60993927,7.97958597 C1.34185002,7.41042576 1.58091222,6.7293181 2.14389965,6.45828943 L10.8673569,2.25871605 C11.5839053,1.91376132 12.4160948,1.91376132 13.1326433,2.25871605 Z M17.7956674,15.039558 L13.1326433,17.2847103 C12.8340815,17.4284415 12.515443,17.5122846 12.1934585,17.5362398 L12.0000009,17.5434268 C11.6128172,17.5434272 11.2256344,17.4571893 10.8673634,17.2847135 L6.20303561,15.039558 L2.91924276,16.6203173 L10.9752276,20.4976635 C11.5645965,20.7813926 12.2404345,20.8071861 12.845525,20.5750442 L13.0247725,20.4976635 L21.0794602,16.6203173 L17.7956674,15.039558 Z M17.7956674,10.4738219 L13.1326433,12.7189742 C12.8340815,12.8627054 12.515443,12.9465486 12.1934585,12.9705037 L12.0000009,12.9776907 C11.6128172,12.9776911 11.2256344,12.8914532 10.8673634,12.7189774 L6.20303561,10.4738219 L2.91924276,12.0545812 L11.4067108,16.1396484 C11.5943782,16.2299937 11.7971892,16.2751664 12.0000001,16.2751664 L12.1518701,16.2666973 C12.3032675,16.249758 12.4525347,16.2074094 12.5932829,16.1396516 L21.0794602,12.0545812 L17.7956674,10.4738219 Z M11.4067108,3.40377796 L2.91938955,7.48884515 L11.4067108,11.5739123 C11.5943782,11.6642576 11.7971892,11.7094303 12.0000001,11.7094303 L12.1518701,11.7009612 C12.3032675,11.6840219 12.4525347,11.6416733 12.5932829,11.5739155 L21.079607,7.48884515 L12.5932894,3.40377796 C12.2179545,3.22308738 11.7820457,3.22308738 11.4067108,3.40377796 Z" fill="currentColor" fill-rule="nonzero"></path>
    </g>
</svg>
