<svg viewBox="0 0 24 24" version="1.1" xmlns="http://www.w3.org/2000/svg">
    <path d="M13,17 L22,17 L22,18 L13,18 L13,17 Z M13,6 L22,6 L22,7 L13,7 L13,6 Z M11,2 L11,11 L2,11 L2,2 L11,2 Z M10,3 L3,3 L3,10 L10,10 L10,3 Z M8.27546462,4.09325539 L9.22453538,4.90674461 L5.78530111,8.91918459 L3.80805826,6.94194174 L4.69194174,6.05805826 L5.714,7.081 L8.27546462,4.09325539 Z M11,13 L11,22 L2,22 L2,13 L11,13 Z M10,14 L3,14 L3,21 L10,21 L10,14 Z M8.27546462,15.0932554 L9.22453538,15.9067446 L5.78530111,19.9191846 L3.80805826,17.9419417 L4.69194174,17.0580583 L5.714,18.081 L8.27546462,15.0932554 Z" fill="currentColor"></path>
</svg>
