<svg xmlns="http://www.w3.org/2000/svg" width="98" height="98" viewBox="0 0 98 98">
  <g fill="none" fill-rule="evenodd">
    <path fill="currentColor" fill-rule="nonzero" d="M43.4179863,58.3825222 L43.4179863,57.6152474 C43.43012,54.9446551 43.6707112,52.8175194 44.13976,51.2338404 C44.6088088,49.6501613 45.2894232,48.3733922 46.1816032,47.403533 C47.0737833,46.4336738 48.156414,45.5497613 49.4294955,44.7517955 C50.3735409,44.1489197 51.2193871,43.5185648 51.9670339,42.8607307 C52.7146808,42.2028966 53.3069694,41.4750561 53.7438997,40.6772093 C54.18083,39.8793624 54.3992952,38.98403 54.3992952,37.991212 C54.3992952,36.9374879 54.1496037,36.0177693 53.6502208,35.232056 C53.1508379,34.4463428 52.4793832,33.8388277 51.6358567,33.4095106 C50.7923302,32.9801936 49.8558386,32.7655351 48.8263818,32.7655351 C47.8335638,32.7655351 46.8978454,32.983227 46.0192265,33.4186109 C45.1406076,33.8539947 44.4203804,34.4949964 43.8585449,35.3416157 C43.2967093,36.1882351 42.9914053,37.2358329 42.9426328,38.4844092 L33.6243476,38.4844092 C33.6912016,35.4393392 34.4174362,32.9201796 35.8030513,30.9269305 C37.1886663,28.9336813 39.0250108,27.4475472 41.3120846,26.4685283 C43.5991584,25.4895094 46.1222435,25 48.8813401,25 C51.9083285,25 54.586653,25.4986692 56.9163135,26.4960075 C59.245974,27.4933458 61.0716123,28.9368337 62.3932284,30.826471 C63.7148444,32.7161083 64.3756524,34.9947956 64.3756524,37.6625329 C64.3756524,39.4378522 64.084088,41.0145128 63.5009591,42.3925146 C62.9178302,43.7705164 62.1001769,44.990186 61.0479993,46.0515234 C59.9958216,47.1128608 58.7540854,48.0683261 57.3227907,48.9179194 C56.1289349,49.6366597 55.1467636,50.3835333 54.3762769,51.1585404 C53.6057902,51.9335475 53.0333081,52.8319133 52.6588304,53.8536379 C52.2843526,54.8753624 52.090928,56.1292323 52.0785565,57.6152474 L52.0785565,58.3825222 L43.4179863,58.3825222 Z M47.9309899,73 C46.4204696,73 45.126987,72.4663574 44.050542,71.3990721 C42.974097,70.3317869 42.4403949,69.0383637 42.4494357,67.5188027 C42.4403949,66.0266018 42.974097,64.7490595 44.050542,63.6861757 C45.126987,62.6232918 46.4204696,62.0918499 47.9309899,62.0918499 C49.3867898,62.0918499 50.6620719,62.6232918 51.7568363,63.6861757 C52.8516007,64.7490595 53.4035033,66.0266018 53.4125441,67.5188027 C53.4035033,68.5297022 53.1439384,69.4500751 52.6338493,70.2799215 C52.1237602,71.1097679 51.4575991,71.7705759 50.635366,72.2623455 C49.8131329,72.7541152 48.9116742,73 47.9309899,73 Z"/>
    <path stroke="currentColor" stroke-dasharray="8 9" stroke-linecap="round" stroke-linejoin="round" stroke-width="4" d="M49,96 C74.9573832,96 96,74.9573832 96,49 C96,23.0426168 74.9573832,2 49,2 C23.0426168,2 2,23.0426168 2,49 C2,74.9573832 23.0426168,96 49,96 Z" opacity=".3"/>
  </g>
</svg>
