<svg viewBox="0 0 24 24" version="1.1" xmlns="http://www.w3.org/2000/svg">
        <path d="M12,6 C16.9705627,6 21,8.01471863 21,10.5 C21,12.3459744 18.7769735,13.9323411 15.5964478,14.6263362 L15.5,14.646 L15.5,13.109 L15.5562025,13.0966581 C18.0346799,12.4991787 19.5,11.3704891 19.5,10.5 C19.5,9.1257866 16.2484268,7.5 12,7.5 C7.75157321,7.5 4.5,9.1257866 4.5,10.5 C4.5,11.4579631 6.23033542,12.6748479 8.99887008,13.2180011 L9,11.6 C9,11.535089 9.02105336,11.4719289 9.06,11.42 C9.15941126,11.2874517 9.34745167,11.2605888 9.48000002,11.36 L12.68,13.76 C12.7027417,13.7770563 12.7229437,13.7972583 12.74,13.82 C12.8394112,13.9525483 12.8125483,14.1405888 12.68,14.24 L9.48000002,16.64 C9.42807117,16.6789466 9.36491108,16.7 9.30000001,16.7 C9.13431458,16.7 9,16.5656854 9,16.4 L9.00006863,14.7439536 C5.50445566,14.1262086 3,12.4593411 3,10.5 C3,8.01471863 7.02943725,6 12,6 Z" id="path" fill="currentColor"></path>
</svg>
