<svg viewBox="0 0 24 24" version="1.1" xmlns="http://www.w3.org/2000/svg">
        <path d="M12.7499824,16.9999824 L14.4,17 C14.464911,17 14.5280711,17.0210534 14.58,17.06 C14.7125483,17.1594113 14.7394112,17.3474517 14.64,17.48 L12.24,20.68 C12.2229437,20.7027417 12.2027417,20.7229437 12.18,20.74 C12.0474517,20.8394112 11.8594112,20.8125483 11.76,20.68 L9.36000001,17.48 C9.32105337,17.4280712 9.30000001,17.3649111 9.30000001,17.3 C9.30000001,17.1343146 9.43431459,17 9.60000002,17 L11.2500027,17.0002354 L11.2499824,12.7499824 L7.00062826,12.75 L7,14.4 C7,14.464911 6.97894664,14.5280711 6.94,14.58 C6.84058874,14.7125483 6.65254833,14.7394112 6.51999998,14.64 L3.32000001,12.24 C3.29725831,12.2229437 3.27705629,12.2027417 3.26000001,12.18 C3.16058875,12.0474517 3.18745167,11.8594112 3.32000001,11.76 L6.51999998,9.36000001 C6.57192883,9.32105337 6.63508892,9.30000001 6.69999999,9.30000001 C6.86568542,9.30000001 7,9.43431459 7,9.60000002 L7.00062826,11.25 L11.2499824,11.2499824 L11.2499824,6.99998235 L9.60000002,7 C9.43431459,7 9.30000001,6.86568542 9.30000001,6.69999999 C9.30000001,6.63508892 9.32105337,6.57192883 9.36000001,6.51999998 L11.76,3.32000001 C11.8594112,3.18745167 12.0474517,3.16058875 12.18,3.26000001 C12.2027417,3.27705629 12.2229437,3.29725831 12.24,3.32000001 L14.64,6.51999998 C14.7394112,6.65254833 14.7125483,6.84058874 14.58,6.94 C14.5280711,6.97894664 14.464911,7 14.4,7 L12.7499993,7.00078944 L12.7499824,11.2499824 L16.9999824,11.2499824 L17,9.60000002 C17,9.55672598 17.009357,9.51423015 17.0271348,9.47532149 L17.06,9.42000002 C17.1594113,9.28745167 17.3474517,9.26058876 17.48,9.36000001 L20.68,11.76 C20.7027417,11.7770563 20.7229437,11.7972583 20.74,11.82 C20.8394112,11.9525483 20.8125483,12.1405888 20.68,12.24 L17.48,14.64 C17.4280712,14.6789466 17.3649111,14.7 17.3,14.7 C17.1343146,14.7 17,14.5656854 17,14.4 L17.0003868,12.7499993 L12.7499824,12.7499824 L12.7499824,16.9999824 Z" id="path" fill="currentColor"></path>
</svg>
