<?xml version="1.0" encoding="UTF-8"?>
<svg width="20px" height="12px" viewBox="0 0 20 12" version="1.1" xmlns="http://www.w3.org/2000/svg" xmlns:xlink="http://www.w3.org/1999/xlink">
    <path fill="currentColor" d="M3.2242376,0.00166307523 L16.5455019,0 C17.7467061,0 18.1822918,0.125070302 18.6214342,0.359926185 C19.0605765,0.594782067 19.4052179,0.939423529 19.6400738,1.37856585 L19.7281247,1.55585632 C19.9060583,1.94747535 20,2.41345442 20,3.4544981 L20,8.5455019 C20,9.74670615 19.8749297,10.1822918 19.6400738,10.6214342 C19.4052179,11.0605765 19.0605765,11.4052179 18.6214342,11.6400738 L18.4441437,11.7281247 C18.0525247,11.9060583 17.5865456,12 16.5455019,12 L3.4544981,12 C2.25329385,12 1.81770817,11.8749297 1.37856585,11.6400738 C0.939423529,11.4052179 0.594782067,11.0605765 0.359926185,10.6214342 L0.271875293,10.4441437 C0.107628894,10.0826492 0.0149495618,9.65779467 0.00166307523,8.7757624 L0,3.4544981 C0,2.25329385 0.125070302,1.81770817 0.359926185,1.37856585 C0.594782067,0.939423529 0.939423529,0.594782067 1.37856585,0.359926185 L1.55585632,0.271875293 C1.91735081,0.107628894 2.34220533,0.0149495618 3.2242376,0.00166307523 Z M16.7457151,1.20103131 L3.4544981,1.2 C2.54049225,1.2 2.24594346,1.25688 1.94448448,1.41810202 C1.71446433,1.54111815 1.54111815,1.71446433 1.41810202,1.94448448 C1.25688,2.24594346 1.2,2.54049225 1.2,3.4544981 L1.2,8.5455019 L1.20421164,8.92564645 C1.21997117,9.5503017 1.28168338,9.80043485 1.41810202,10.0555155 C1.54111815,10.2855357 1.71446433,10.4588819 1.94448448,10.581898 C2.24594346,10.74312 2.54049225,10.8 3.4544981,10.8 L16.5455019,10.8 L16.9256464,10.7957884 C17.5503017,10.7800288 17.8004348,10.7183166 18.0555155,10.581898 C18.2855357,10.4588819 18.4588819,10.2855357 18.581898,10.0555155 C18.74312,9.75405654 18.8,9.45950775 18.8,8.5455019 L18.8,3.4544981 L18.7957884,3.07435355 C18.7800288,2.4496983 18.7183166,2.19956515 18.581898,1.94448448 C18.4588819,1.71446433 18.2855357,1.54111815 18.0555155,1.41810202 C17.7772457,1.26928169 17.5048638,1.20936818 16.7457151,1.20103131 Z M5.53027888,3.5 C5.91469677,3.5 6.2478973,3.56655481 6.52988048,3.69966443 C6.81186366,3.83277405 7.02939354,4.02237136 7.18247012,4.26845638 C7.3355467,4.51454139 7.41208499,4.80536913 7.41208499,5.1409396 C7.41208499,5.47651007 7.33439575,5.76677852 7.17901726,6.01174497 C7.02363878,6.25671141 6.80438247,6.44630872 6.52124834,6.58053691 C6.23811421,6.7147651 5.90318725,6.78187919 5.51646746,6.78187919 L4.56347942,6.78187919 L4.56347942,8.5 L3.5,8.5 L3.5,3.5 L5.53027888,3.5 Z M9.80146082,3.5 C10.3170872,3.5 10.7636565,3.60178971 11.1411687,3.80536913 C11.5186808,4.00894855 11.8098716,4.29753915 12.014741,4.67114094 C12.2196104,5.04474273 12.3220452,5.48657718 12.3220452,5.9966443 C12.3220452,6.50894855 12.2196104,6.95246085 12.014741,7.32718121 C11.8098716,7.70190157 11.5181054,7.99105145 11.1394422,8.19463087 C10.7607791,8.39821029 10.3078796,8.5 9.78074369,8.5 L7.96454183,8.5 L7.96454183,3.5 L9.80146082,3.5 Z M16.5,3.5 L16.5,4.38590604 L13.9863214,4.38590604 L13.9863214,5.61409396 L16.3273572,5.61409396 L16.3273572,6.47315436 L13.9863214,6.47315436 L13.9863214,8.5 L12.922842,8.5 L12.922842,3.5 L16.5,3.5 Z M9.73585657,4.36912752 L9.02802125,4.36912752 L9.02802125,7.63087248 L9.72549801,7.63087248 C10.2457282,7.63087248 10.6301461,7.48993289 10.8787517,7.20805369 C11.1273572,6.9261745 11.25166,6.52237136 11.25166,5.9966443 C11.25166,5.47091723 11.1267818,5.06823266 10.8770252,4.7885906 C10.6272687,4.50894855 10.2468792,4.36912752 9.73585657,4.36912752 Z M5.46122178,4.36577181 L4.56347942,4.36577181 L4.56347942,5.91610738 L5.46122178,5.91610738 C5.74205401,5.91610738 5.96418769,5.84619687 6.12762284,5.70637584 C6.29105799,5.56655481 6.37277556,5.37807606 6.37277556,5.1409396 C6.37277556,4.901566 6.29105799,4.71252796 6.12762284,4.5738255 C5.96418769,4.43512304 5.74205401,4.36577181 5.46122178,4.36577181 Z"></path>
</svg>