<svg viewBox="0 0 44 44" version="1.1" xmlns="http://www.w3.org/2000/svg">
        <path d="M22.099,0 C22.155,0 22.212,0.002 22.268,0.005 L22.432,0.007 C34.377,0.202 44,9.974 44,22.001 C44,34.088 34.28,43.898 22.254,43.997 L22.138,44 C21.4456115,43.9994699 20.7818067,43.7238426 20.292683,43.2337812 C19.8035593,42.7437198 19.5292039,42.0793883 19.53,41.387 C19.5278207,39.9724058 20.6529575,38.8135636 22.067,38.774 C22.089941,38.7792989 22.113464,38.7816512 22.137,38.781 C22.2897648,38.780735 22.4361674,38.7197952 22.5440009,38.6115867 C22.6518343,38.5033781 22.7122654,38.3567648 22.712,38.204 C22.7119671,38.0346487 22.6374094,37.8738929 22.5081508,37.7644758 C22.3788923,37.6550588 22.2080321,37.6080688 22.041,37.636 L21.967,37.638 C21.274438,37.6374701 20.6104814,37.3617055 20.1213289,36.8714277 C19.6321765,36.3811499 19.3579384,35.7165614 19.3589969,35.024 C19.358145,34.3029427 19.6556286,33.6136576 20.1808808,33.1196591 C20.706133,32.6256606 21.4123498,32.3709679 22.132,32.416 L22.132,32.37 C22.3828144,32.3715708 22.6104317,32.2235166 22.7106745,31.9935998 C22.8109172,31.7636829 22.7644947,31.4961485 22.5926539,31.3134436 C22.4208132,31.1307386 22.1566231,31.0680227 21.921,31.154 L21.967,31.157 C21.274438,31.1564701 20.6104814,30.8807055 20.1213289,30.3904277 C19.6321765,29.9001499 19.3579384,29.2355614 19.3589969,28.543 C19.358145,27.8219427 19.6556286,27.1326576 20.1808808,26.6386591 C20.706133,26.1446606 21.4123498,25.8899679 22.132,25.935 L22.132,25.902 C22.3786175,25.9035624 22.6032454,25.7604067 22.7059806,25.5362012 C22.8087158,25.3119957 22.7704744,25.0483883 22.6082644,24.8626182 C22.4460544,24.6768481 22.1900072,24.6034236 21.954,24.675 L21.967,24.675 C21.2746115,24.6744699 20.6108067,24.3988426 20.121683,23.9087812 C19.6325593,23.4187198 19.3582039,22.7543883 19.3589969,22.062 C19.3581274,21.3407576 19.6557469,20.6513053 20.1812228,20.1572746 C20.7066988,19.6632439 21.4131824,19.40868 22.133,19.454 L22.133,19.434 C22.3710646,19.433974 22.5885786,19.2991276 22.6944792,19.0859145 C22.8003798,18.8727015 22.7763966,18.6179061 22.6325703,18.4281991 C22.488744,18.2384921 22.249888,18.1466024 22.016,18.191 L21.966,18.194 C21.2736113,18.193205 20.6099117,17.9173234 20.1209755,17.4270744 C19.6320393,16.9368253 19.3579384,16.2723883 19.3589969,15.58 C19.3581274,14.8587576 19.6557469,14.1693053 20.1812228,13.6752746 C20.7066988,13.1812439 21.4131824,12.92668 22.133,12.972 C22.4803508,12.9681805 22.7603825,12.686368 22.762,12.339 C22.7622654,12.1729744 22.6965665,12.0136434 22.5793562,11.896058 C22.4621459,11.7784727 22.3030256,11.712265 22.137,11.712 L22.132,11.711 L21.967,11.713 C21.274438,11.7124701 20.6104814,11.4367055 20.1213289,10.9464277 C19.6321765,10.4561499 19.3579384,9.79156142 19.3589969,9.099 C19.3581274,8.37775764 19.6557469,7.68830533 20.1812228,7.19427461 C20.7066988,6.70024388 21.4131824,6.44568 22.133,6.491 C22.4801895,6.48772313 22.7603751,6.20620111 22.762,5.859 C22.7625312,5.69280137 22.6969497,5.53321326 22.5797106,5.41541144 C22.4624715,5.29760962 22.3031993,5.23126465 22.137,5.231 L22.099,5.231 C20.7202955,5.22946398 19.5800033,4.15702033 19.494,2.781 L19.489,2.616 C19.4882039,1.92298917 19.7627381,1.25804606 20.2522082,0.767450797 C20.7416782,0.276855532 21.4059892,0.000795192885 22.099,0 Z M15.709,39.412 C16.9,39.412 17.867,40.361 17.867,41.532 C17.867,42.702 16.9,43.651 15.708,43.651 C14.516,43.651 13.55,42.702 13.55,41.531 C13.55,40.361 14.516,39.412 15.708,39.412 L15.709,39.412 Z M9.241,38.939 C9.972,38.939 10.566,39.514 10.566,40.222 C10.566,40.932 9.972,41.506 9.241,41.506 C8.509,41.506 7.916,40.931 7.916,40.222 C7.916,39.514 8.509,38.939 9.241,38.939 Z M15.708,32.555 C17.033,32.555 18.108,33.609 18.108,34.91 C18.108,36.212 17.033,37.266 15.708,37.266 C14.383,37.266 13.308,36.212 13.308,34.91 C13.308,33.61 14.383,32.555 15.708,32.555 L15.708,32.555 Z M9.241,33.271 C10.306,33.271 11.169,34.107 11.169,35.137 C11.169,36.167 10.306,37.003 9.241,37.003 C8.176,37.003 7.312,36.168 7.312,35.137 C7.312,34.107 8.176,33.271 9.241,33.271 Z M3.405,33.271 C4.035,33.271 4.547,33.767 4.547,34.377 C4.547,34.988 4.035,35.483 3.405,35.483 C2.775,35.483 2.263,34.988 2.263,34.377 C2.263,33.767 2.774,33.271 3.405,33.271 Z M9.241,26.646 C10.451,26.646 11.431,27.595 11.431,28.766 C11.431,29.936 10.451,30.885 9.241,30.885 C8.031,30.885 7.051,29.936 7.051,28.765 C7.051,27.595 8.031,26.646 9.241,26.646 Z M15.708,26.17 C17.033,26.17 18.108,27.225 18.108,28.526 C18.108,29.827 17.033,30.882 15.708,30.882 C14.383,30.882 13.308,29.827 13.308,28.526 C13.308,27.225 14.383,26.17 15.708,26.17 L15.708,26.17 Z M2.773,26.996 C3.753,26.996 4.547,27.766 4.547,28.714 C4.547,29.662 3.753,30.431 2.773,30.431 C1.793,30.431 1,29.662 1,28.714 C1,27.765 1.794,26.996 2.773,26.996 L2.773,26.996 Z M9.241,20.274 C10.451,20.274 11.431,21.224 11.431,22.394 C11.431,23.564 10.451,24.514 9.241,24.514 C8.031,24.514 7.051,23.564 7.051,22.394 C7.051,21.224 8.031,20.274 9.241,20.274 Z M15.708,19.785 C17.033,19.785 18.108,20.84 18.108,22.141 C18.108,23.443 17.033,24.497 15.708,24.497 C14.383,24.497 13.308,23.443 13.308,22.141 C13.308,20.841 14.383,19.785 15.708,19.785 L15.708,19.785 Z M2.773,20.578 C3.753,20.578 4.547,21.347 4.547,22.295 C4.547,23.244 3.753,24.013 2.773,24.013 C1.793,24.013 1,23.243 1,22.295 C1,21.347 1.794,20.578 2.773,20.578 L2.773,20.578 Z M9.241,13.903 C10.451,13.903 11.431,14.852 11.431,16.023 C11.431,17.193 10.451,18.142 9.241,18.142 C8.031,18.142 7.051,17.192 7.051,16.022 C7.051,14.852 8.031,13.902 9.241,13.902 L9.241,13.903 Z M15.708,13.401 C17.033,13.401 18.108,14.456 18.108,15.757 C18.108,17.058 17.033,18.113 15.708,18.113 C14.383,18.113 13.308,17.058 13.308,15.757 C13.308,14.456 14.383,13.401 15.708,13.401 L15.708,13.401 Z M2.773,14.159 C3.753,14.159 4.547,14.928 4.547,15.876 C4.547,16.826 3.753,17.594 2.773,17.594 C1.793,17.594 1,16.825 1,15.876 C1,14.928 1.794,14.159 2.773,14.159 L2.773,14.159 Z M15.708,7.016 C17.033,7.016 18.108,8.071 18.108,9.372 C18.108,10.673 17.033,11.728 15.708,11.728 C14.383,11.728 13.308,10.673 13.308,9.372 C13.308,8.072 14.383,7.016 15.708,7.016 L15.708,7.016 Z M9.241,7.884 C10.249,7.884 11.066,8.675 11.066,9.651 C11.066,10.626 10.249,11.417 9.241,11.417 C8.233,11.417 7.415,10.627 7.415,9.651 C7.415,8.675 8.233,7.884 9.241,7.884 L9.241,7.884 Z M3.354,9.107 C4.013,9.107 4.547,9.624 4.547,10.262 C4.547,10.9 4.013,11.417 3.354,11.417 C2.695,11.417 2.161,10.9 2.161,10.262 C2.161,9.624 2.695,9.107 3.354,9.107 Z M9.241,2.834 C10.044,2.834 10.696,3.465 10.696,4.244 C10.696,5.021 10.044,5.652 9.241,5.652 C8.437,5.652 7.786,5.022 7.786,4.243 C7.786,3.465 8.437,2.834 9.241,2.834 Z M15.708,0.607 C16.961,0.607 17.976,1.604 17.976,2.834 C17.976,4.064 16.961,5.061 15.708,5.061 C14.456,5.061 13.44,4.064 13.44,2.834 C13.44,1.604 14.456,0.607 15.708,0.607 Z" fill="currentColor"></path>
</svg>
