<svg xmlns="http://www.w3.org/2000/svg" viewBox="0 0 24 24">
  <path fill="currentColor" d="M17.352162,9.854324 C17.8492198,9.854324 18.252168,10.2572627 18.2521799,10.7543216 L18.251324,12.146324 L18.3380755,12.16421 C20.002607,12.5409582 21.3127454,13.8508013 21.6898831,15.5152288 L21.706324,15.600324 L23.1000883,15.6017207 C23.5589434,15.6019907 23.9374701,15.9454435 23.9929898,16.389258 L24,16.502162 C24,16.9992198 23.5970613,17.402168 23.1000024,17.4021799 L21.706324,17.401324 L21.6901046,17.4881172 C21.313266,19.1529752 20.0029752,20.463266 18.3381172,20.8401046 L18.251324,20.856324 L18.2521799,22.2500036 C18.2521689,22.7088261 17.9088276,23.0874525 17.4650565,23.1429878 L17.352162,23.15 C16.8550688,23.15 16.4520132,22.7471814 16.4517207,22.2500591 L16.450324,20.856324 L16.3652288,20.8398831 C14.7008013,20.4627454 13.3909582,19.152607 13.01421,17.4880755 L12.996324,17.401324 L11.6043204,17.4021799 C11.1454979,17.4021689 10.7668715,17.0588276 10.7113362,16.6150565 L10.704324,16.502162 C10.704324,16.0050688 11.1071426,15.6020132 11.6042649,15.6017207 L12.996324,15.600324 L13.0144315,15.5152705 C13.3914787,13.8511695 14.7011695,12.5414787 16.3652705,12.1644315 L16.450324,12.146324 L16.4517207,10.7542357 C16.4519907,10.2953806 16.7954435,9.91685393 17.239258,9.86133419 L17.352162,9.854324 Z M10,1.125 C14.1769633,1.125 17.464615,4.08928017 17.8393626,8.00060323 L16.0786827,8.00039784 C15.7124921,5.06878245 13.2145363,2.875 10,2.875 C6.5168221,2.875 3.875,5.45077659 3.875,8.75000017 C3.875,12.2440168 5.42636084,14.6865021 9.43934996,18.4942014 L9.999,19.019 L10,20.9982957 C9.70279521,20.9982957 9.47311284,20.8907013 9.25178601,20.7144447 L9.1548581,20.6330338 L8.892,20.38 L8.56492217,20.0748742 C4.08890923,15.8819976 2.21696944,13.107538 2.12831802,9.05628058 L2.125,8.75000017 C2.125,4.47422346 5.56010093,1.125 10,1.125 Z M17.352162,13.3545223 C15.6137686,13.3545223 14.2045223,14.7637686 14.2045223,16.502162 C14.2045223,18.2405554 15.6137686,19.6498017 17.352162,19.6498017 C19.0905554,19.6498017 20.4998017,18.2405554 20.4998017,16.502162 C20.4998017,14.7637686 19.0905554,13.3545223 17.352162,13.3545223 Z M17.352162,15.252162 C18.0425179,15.252162 18.602162,15.8118061 18.602162,16.502162 C18.602162,17.1925179 18.0425179,17.752162 17.352162,17.752162 C16.6618061,17.752162 16.102162,17.1925179 16.102162,16.502162 C16.102162,15.8118061 16.6618061,15.252162 17.352162,15.252162 Z M10.25,7 C11.4926407,7 12.5,8.00735931 12.5,9.25 C12.5,10.4926407 11.4926407,11.5 10.25,11.5 C9.00735931,11.5 8,10.4926407 8,9.25 C8,8.00735931 9.00735931,7 10.25,7 Z"/>
</svg>
