<svg viewBox="0 0 24 24" version="1.1" xmlns="http://www.w3.org/2000/svg">
    <g stroke="none" stroke-width="1" fill="none" fill-rule="evenodd">
        <path d="M14.5,10.5 L14.5,12 L19.5,12 L19.5,10.5 L23.5,10.5 L23.5,14.5 L22,14.5 L22,19.5 L23.5,19.5 L23.5,23.5 L19.5,23.5 L19.5,22 L14.5,22 L14.5,23.5 L10.5,23.5 L10.5,19.5 L12,19.5 L12,14.5 L10.5,14.5 L10.5,10.5 L14.5,10.5 Z M13.5,20.5 L11.5,20.5 L11.5,22.5 L13.5,22.5 L13.5,20.5 Z M22.5,20.5 L20.5,20.5 L20.5,22.5 L22.5,22.5 L22.5,20.5 Z M19.5,13 L14.5,13 L14.5,14.5 L13,14.5 L13,19.5 L14.5,19.5 L14.5,21 L19.5,21 L19.5,19.5 L21,19.5 L21,14.5 L19.5,14.5 L19.5,13 Z M14,2 L14,9 L12.5,9 L12.5,3.5 L3.5,3.5 L3.5,16.5 L9,16.5 L9,18 L1,18 L1,16.5 L2,16.5 L2,2 L14,2 Z M13.5,11.5 L11.5,11.5 L11.5,13.5 L13.5,13.5 L13.5,11.5 Z M22.5,11.5 L20.5,11.5 L20.5,13.5 L22.5,13.5 L22.5,11.5 Z M6,8.5 C6.55228475,8.5 7,8.94771525 7,9.5 C7,10.0522847 6.55228475,10.5 6,10.5 C5.44771525,10.5 5,10.0522847 5,9.5 C5,8.94771525 5.44771525,8.5 6,8.5 Z" fill="currentColor"></path>
    </g>
</svg>