<svg viewBox="0 0 24 24" version="1.1" xmlns="http://www.w3.org/2000/svg">
    <g stroke="none" stroke-width="1" fill="none" fill-rule="evenodd">
        <path d="M14.5,10.5 L14.5,12 L19.5,12 L19.5,10.5 L23.5,10.5 L23.5,14.5 L22,14.5 L22,19.5 L23.5,19.5 L23.5,23.5 L19.5,23.5 L19.5,22 L14.5,22 L14.5,23.5 L10.5,23.5 L10.5,19.5 L12,19.5 L12,14.5 L10.5,14.5 L10.5,10.5 L14.5,10.5 Z M13.5,20.5 L11.5,20.5 L11.5,22.5 L13.5,22.5 L13.5,20.5 Z M22.5,20.5 L20.5,20.5 L20.5,22.5 L22.5,22.5 L22.5,20.5 Z M19.5,13 L14.5,13 L14.5,14.5 L13,14.5 L13,19.5 L14.5,19.5 L14.5,21 L19.5,21 L19.5,19.5 L21,19.5 L21,14.5 L19.5,14.5 L19.5,13 Z M15,2 L15,9 L7,9 L7,11 L9,11 L9,15 L1,15 L1,2 L15,2 Z M13.5,11.5 L11.5,11.5 L11.5,13.5 L13.5,13.5 L13.5,11.5 Z M22.5,11.5 L20.5,11.5 L20.5,13.5 L22.5,13.5 L22.5,11.5 Z M5,9 L3,9 L3,11 L5,11 L5,9 Z M5,4 L3,4 L3,6 L5,6 L5,4 Z M9,4 L7,4 L7,6 L9,6 L9,4 Z M13,4 L11,4 L11,6 L13,6 L13,4 Z" fill="currentColor" fill-rule="nonzero"></path>
    </g>
</svg>