<svg viewBox="0 0 24 24" version="1.1" xmlns="http://www.w3.org/2000/svg">
    <g stroke="none" stroke-width="1" fill="none" fill-rule="evenodd">
        <path d="M14.5,10.5 L14.5,12 L19.5,12 L19.5,10.5 L23.5,10.5 L23.5,14.5 L22,14.5 L22,19.5 L23.5,19.5 L23.5,23.5 L19.5,23.5 L19.5,22 L14.5,22 L14.5,23.5 L10.5,23.5 L10.5,19.5 L12,19.5 L12,14.5 L10.5,14.5 L10.5,10.5 L14.5,10.5 Z M13.5,20.5 L11.5,20.5 L11.5,22.5 L13.5,22.5 L13.5,20.5 Z M22.5,20.5 L20.5,20.5 L20.5,22.5 L22.5,22.5 L22.5,20.5 Z M19.5,13 L14.5,13 L14.5,14.5 L13,14.5 L13,19.5 L14.5,19.5 L14.5,21 L19.5,21 L19.5,19.5 L21,19.5 L21,14.5 L19.5,14.5 L19.5,13 Z M16.1107836,2 C17.1539656,2 17.9996316,2.84566603 17.9996316,3.88884795 L17.999,7.909 L16.724,7.909 L16.7246592,3.88884795 C16.7246592,3.54981383 16.4498178,3.27497237 16.1107836,3.27497237 L2.88884795,3.27497237 C2.54981383,3.27497237 2.27497237,3.54981383 2.27497237,3.88884795 L2.27497237,13.116124 C2.27497237,13.3322583 2.38666966,13.5223044 2.5554885,13.6316864 C2.48856953,13.583547 2.43144976,13.5226197 2.38780253,13.4522014 L4.93187908,10.5033322 C4.96443946,10.4655861 4.99993725,10.4304771 5.03803971,10.3983344 C5.43671941,10.0620137 6.03255497,10.1125656 6.36887569,10.5112453 L8.29768547,12.7976858 L8.999,11.912 L8.999,14.999 L2.88884795,14.9998157 C1.84566603,14.9998157 1,14.1541497 1,13.1109678 L1,3.88884795 C1,2.84566603 1.84566603,2 2.88884795,2 L16.1107836,2 Z M13.5,11.5 L11.5,11.5 L11.5,13.5 L13.5,13.5 L13.5,11.5 Z M22.5,11.5 L20.5,11.5 L20.5,13.5 L22.5,13.5 L22.5,11.5 Z M5.5,5 C6.32842712,5 7,5.67157288 7,6.5 C7,7.32842712 6.32842712,8 5.5,8 C4.67157288,8 4,7.32842712 4,6.5 C4,5.67157288 4.67157288,5 5.5,5 Z" id="Shape" fill="currentColor" fill-rule="nonzero"></path>
    </g>
</svg>