<svg xmlns="http://www.w3.org/2000/svg" viewBox="0 0 24 24">
  <g fill="none" fill-rule="evenodd">
    <path fill="currentColor" fill-rule="nonzero" d="M12,4 C16.418278,4 20,7.581722 20,12 C20,16.418278 16.418278,20 12,20 C7.581722,20 4,16.418278 4,12 C4,7.581722 7.581722,4 12,4 Z M12,6 C8.6862915,6 6,8.6862915 6,12 C6,15.3137085 8.6862915,18 12,18 C15.3137085,18 18,15.3137085 18,12 C18,8.6862915 15.3137085,6 12,6 Z" opacity=".2"/>
    <path fill="currentColor" fill-rule="nonzero" d="M12,4 C16.418278,4 20,7.581722 20,12 C20,12.5522847 19.5522847,13 19,13 C18.4477153,13 18,12.5522847 18,12 C18,8.6862915 15.3137085,6 12,6 C11.4477153,6 11,5.55228475 11,5 C11,4.44771525 11.4477153,4 12,4 Z">
      <animateTransform
        attributeName="transform"
        type="rotate"
        from="0 12 12"
        to="360 12 12"
        dur="0.75s"
        repeatCount="indefinite"
      />
    </path>
  </g>
</svg>
