<svg xmlns="http://www.w3.org/2000/svg" viewBox="0 0 24 24">
  <g fill="none" fill-rule="evenodd">
    <path fill="currentColor" fill-rule="nonzero" d="M19,5 C20.1045695,5 21,5.8954305 21,7 L21.0006826,13.0443556 C20.5751068,12.8489661 20.1227343,12.7019079 19.6505935,12.6102096 L19.65,7 C19.65,6.64101491 19.3589851,6.35 19,6.35 L5,6.35 C4.64101491,6.35 4.35,6.64101491 4.35,7 L4.35,17 C4.35,17.1272352 4.38655755,17.245932 4.44974185,17.3461594 L7.14869262,14.2674173 C7.1799822,14.231724 7.21377342,14.1983038 7.24980997,14.1674102 C7.66910613,13.8079534 8.30041012,13.8564628 8.6598669,14.275759 L10.7072727,16.664 L14.4469883,12.0244293 C14.5037765,11.9539767 14.5698647,11.891558 14.643443,11.8388826 C15.0925106,11.517391 15.7171721,11.6208118 16.0386636,12.0698794 L16.5738327,12.815859 C14.2049612,13.6183238 12.5,15.8600544 12.5,18.5 C12.5,18.6686843 12.506961,18.8357427 12.5206115,19.0009037 L5,19 C3.8954305,19 3,18.1045695 3,17 L3,7 C3,5.8954305 3.8954305,5 5,5 L19,5 Z M8,8.5 C8.82842712,8.5 9.5,9.17157288 9.5,10 C9.5,10.8284271 8.82842712,11.5 8,11.5 C7.17157288,11.5 6.5,10.8284271 6.5,10 C6.5,9.17157288 7.17157288,8.5 8,8.5 Z"/>
    <path fill="currentColor" d="M18.5,14 C20.9852814,14 23,16.0147186 23,18.5 C23,20.9852814 20.9852814,23 18.5,23 C16.0147186,23 14,20.9852814 14,18.5 C14,16.0147186 16.0147186,14 18.5,14 Z M18.5,15.5 C18.2238576,15.5 18,15.7238576 18,16 L18,18 L16,18 C15.7238576,18 15.5,18.2238576 15.5,18.5 C15.5,18.7761424 15.7238576,19 16,19 L18,19 L18,21 C18,21.2761424 18.2238576,21.5 18.5,21.5 C18.7761424,21.5 19,21.2761424 19,21 L19,19 L21,19 C21.2761424,19 21.5,18.7761424 21.5,18.5 C21.5,18.2238576 21.2761424,18 21,18 L19,18 L19,16 C19,15.7238576 18.7761424,15.5 18.5,15.5 Z"/>
  </g>
</svg>
