<svg xmlns="http://www.w3.org/2000/svg" viewBox="0 0 24 24">
  <path d="M5.13107511,17.4147287 L11.2106038,20.7790698 C11.7525773,21.0736434 12.2474227,21.0736434 12.7815415,20.7790698 L18.8689249,17.4147287 C19.622975,17.003876 20,16.5620155 20,15.4689922 L20,9.20542636 C20,8.37596899 19.6858125,7.85658915 18.9867452,7.46899225 L13.4648994,4.40697674 C12.4987727,3.86434109 11.5012273,3.86434109 10.5351006,4.40697674 L5.01325479,7.46899225 C4.31418753,7.85658915 4,8.37596899 4,9.20542636 L4,15.4689922 C4,16.5620155 4.37702504,17.003876 5.13107511,17.4147287 Z M11.9960727,11.6860465 L6.19145803,8.47674419 L11.155621,5.71705426 C11.7290133,5.39147287 12.2709867,5.38372093 12.844379,5.71705426 L17.808542,8.47674419 L11.9960727,11.6860465 Z M5.97938144,16.2286822 C5.54737359,15.9883721 5.39813451,15.7403101 5.39813451,15.3294574 L5.39813451,9.68604651 L11.2734413,12.9573643 L11.2734413,19.1744186 L5.97938144,16.2286822 Z M18.0206186,16.2286822 L12.7265587,19.1744186 L12.7265587,12.9573643 L18.6018655,9.68604651 L18.6018655,15.3294574 C18.6018655,15.7403101 18.4526264,15.9883721 18.0206186,16.2286822 Z" fill="currentColor"/>
</svg>
