<svg viewBox="0 0 24 24" xmlns="http://www.w3.org/2000/svg">
    <g stroke="none" stroke-width="1" fill="none" fill-rule="evenodd">
        <path d="M17.0430436,7.02693432 C16.3440538,6.35192769 15.5614227,5.85016762 14.6951503,5.52165412 C13.8288779,5.19314062 12.9386904,5.03686172 12.0245878,5.05281744 C11.1104853,5.06877316 10.22704,5.25671416 9.37425195,5.61664043 C8.52146391,5.97656671 7.75753654,6.50605586 7.08246985,7.20510788 C6.95615388,7.3359119 6.83935424,7.47064689 6.73207095,7.60931284 C6.62478766,7.74797879 6.52735276,7.88332359 6.43976624,8.01534725 L6.42083867,5.47011121 C6.41522597,5.36576439 6.39267825,5.26688039 6.35319551,5.17345918 C6.31371278,5.08003798 6.25428859,4.99500613 6.17492296,4.91836363 C6.0102828,4.75937248 5.81518889,4.67915476 5.58964122,4.67769153 C5.36409355,4.6762662 5.17230466,4.75736655 5.01427454,4.92101152 C4.84975744,5.09137396 4.7757151,5.28642124 4.79214751,5.50615334 L4.90772945,10.0941722 C4.91405451,10.3409257 4.99944382,10.543708 5.16389738,10.7025189 C5.32959491,10.8625312 5.53629105,10.9418126 5.78398578,10.9403631 L10.3539308,10.877105 C10.5746703,10.8693384 10.763034,10.78469 10.9190219,10.6231597 C11.077052,10.4595148 11.1534,10.2669344 11.1480658,10.0454187 C11.1427316,9.82390295 11.0582731,9.63416006 10.8946903,9.47619001 C10.8142673,9.39852641 10.7266938,9.34211506 10.6319697,9.30695597 C10.5372456,9.27179688 10.4376771,9.2551286 10.3332641,9.25695114 L7.48727873,9.3242393 C7.58125531,9.16593175 7.69526875,9.00557754 7.82931908,8.84317667 C7.9633694,8.68077579 8.11019046,8.51694428 8.26978225,8.35168214 C8.78765974,7.81540431 9.37230218,7.41073377 10.0237096,7.13767052 C10.675117,6.86460727 11.3500158,6.72172054 12.048406,6.70901031 C12.7467962,6.69630009 13.4272567,6.81598757 14.0897874,7.06807275 C14.7523181,7.32015793 15.3502607,7.70372774 15.8836152,8.21878219 C16.4198931,8.73665967 16.8255432,9.32224813 17.1005657,9.97554757 C17.3755883,10.628847 17.5184685,11.3042504 17.5292065,12.0017578 C17.5399445,12.6992652 17.420232,13.3782891 17.1700689,14.0388294 C16.9199057,14.6993698 16.5358854,15.2977789 16.018008,15.8340567 C15.5029535,16.3674112 14.9187766,16.7715997 14.2654771,17.0466222 C13.6121777,17.3216447 12.9367993,17.4659616 12.2393421,17.4795728 C11.5418849,17.493184 10.8619064,17.373962 10.1994068,17.1219068 C9.53690721,16.8698517 8.93751848,16.4848854 8.40124065,15.9670079 C8.2213618,15.7933009 8.02202534,15.7047491 7.80323128,15.7013524 C7.58443721,15.6979557 7.39212092,15.7821228 7.2262824,15.9538536 C7.0537767,16.1324885 6.96970547,16.3345291 6.9740687,16.5599754 C6.97843194,16.7854217 7.07201465,16.9864098 7.25481685,17.1629399 C7.95486405,17.8389676 8.73730255,18.341954 9.60213234,18.6718992 C10.4669621,19.0018443 11.3564283,19.158839 12.2705309,19.1428833 C13.1846334,19.1269276 14.0685607,18.9394521 14.9223129,18.5804568 C15.776065,18.2214615 16.5409549,17.6919403 17.2169826,16.9918931 C17.8920493,16.2928411 18.3940732,15.5104347 18.7230543,14.6446739 C19.0520353,13.7789131 19.208548,12.8889814 19.1925923,11.9748789 C19.1766366,11.0607763 18.9894013,10.1766002 18.6308866,9.32235047 C18.2723718,8.46810076 17.7430908,7.70296204 17.0430436,7.02693432 Z" fill="currentColor" fill-rule="nonzero"></path>
    </g>
</svg>