<?xml version="1.0" encoding="UTF-8"?>
<svg viewBox="0 0 24 24" version="1.1" xmlns="http://www.w3.org/2000/svg" xmlns:xlink="http://www.w3.org/1999/xlink">
        <path d="M12.6979581,4.25 C16.9781649,4.25 20.4479581,7.71979319 20.4479581,12 C20.4479581,16.2802068 16.9781649,19.75 12.6979581,19.75 C11.1494086,19.75 9.65485461,19.3499364 8.41767306,18.5946161 C8.06413872,18.3787774 7.95251434,17.9172094 8.16835304,17.5636751 C8.38419174,17.2101407 8.84575978,17.0985163 9.19929413,17.314355 C10.1953116,17.9224406 11.4190052,18.25 12.6979581,18.25 C16.1497378,18.25 18.9479581,15.4517797 18.9479581,12 C18.9479581,8.54822031 16.1497378,5.75 12.6979581,5.75 C9.80450122,5.75 7.37027718,7.71620953 6.65851031,10.3854043 L8.73839497,10.4864527 C8.87630475,10.493127 8.98269216,10.6103355 8.97601791,10.7482453 C8.9719743,10.8317982 8.9264103,10.907792 8.85461685,10.9507238 L4.53963403,13.5310404 C4.42113401,13.6019023 4.26762591,13.5632839 4.19676408,13.4447839 C4.17896592,13.4150206 4.16755467,13.3818799 4.1632557,13.3474685 L3.55399655,8.47061586 C3.53688054,8.33360968 3.63407073,8.20866895 3.77107692,8.19155293 C3.86001602,8.18044188 3.94809764,8.21779351 4.00193806,8.28945122 L5.2293213,9.92336084 C6.13707542,6.65155895 9.13705969,4.25 12.6979581,4.25 Z" fill="currentColor"></path>
</svg>
