<?xml version="1.0" encoding="UTF-8"?>
<svg viewBox="0 0 24 24" version="1.1" xmlns="http://www.w3.org/2000/svg" xmlns:xlink="http://www.w3.org/1999/xlink">
        <path d="M11.3020419,4.25 C14.8629403,4.25 17.8629246,6.65155895 18.7706787,9.92336084 L19.9980619,8.28945122 C20.0519024,8.21779351 20.139984,8.18044188 20.2289231,8.19155293 C20.3659293,8.20866895 20.4631195,8.33360968 20.4460034,8.47061586 L19.8367443,13.3474685 C19.8324453,13.3818799 19.8210341,13.4150206 19.8032359,13.4447839 C19.7323741,13.5632839 19.578866,13.6019023 19.460366,13.5310404 L15.1453831,10.9507238 C15.0735897,10.907792 15.0280257,10.8317982 15.0239821,10.7482453 C15.0173078,10.6103355 15.1236953,10.493127 15.261605,10.4864527 L17.3414897,10.3854043 C16.6297228,7.71620953 14.1954988,5.75 11.3020419,5.75 C7.85026221,5.75 5.0520419,8.54822031 5.0520419,12 C5.0520419,15.4517797 7.85026221,18.25 11.3020419,18.25 C12.5809948,18.25 13.8046884,17.9224406 14.8007059,17.314355 C15.1542402,17.0985163 15.6158083,17.2101407 15.831647,17.5636751 C16.0474857,17.9172094 15.9358613,18.3787774 15.5823269,18.5946161 C14.3451454,19.3499364 12.8505914,19.75 11.3020419,19.75 C7.02183509,19.75 3.5520419,16.2802068 3.5520419,12 C3.5520419,7.71979319 7.02183509,4.25 11.3020419,4.25 Z" fill="currentColor"></path>
</svg>
