<svg viewBox="0 0 24 24" version="1.1" xmlns="http://www.w3.org/2000/svg">
    <g stroke="none" fill="none">
        <path d="M16.1863152,15.8148659 C19.1840224,15.1106349 21.2391908,13.6667766 21.2391908,12 C21.2391908,9.64033189 17.1201656,7.72744293 12.0390904,7.72744293 C6.95801531,7.72744293 2.83899007,9.64033189 2.83899007,12 C2.83899007,13.972175 5.71627921,15.6322585 9.62773258,16.1242972" stroke="currentColor" stroke-width="1.5" stroke-linecap="round" stroke-linejoin="round"></path>
        <path d="M13.5689674,13.9653062 C13.6406017,13.9653062 13.7103037,13.9863596 13.7676112,14.0253062 C13.9138885,14.1247175 13.9435338,14.3127579 13.8338258,14.4453062 L11.1852417,17.6453062 C11.1664188,17.6680479 11.1441243,17.6882499 11.1190271,17.7053062 C10.9727498,17.8047175 10.7652328,17.7778546 10.6555248,17.6453062 L8.00694069,14.4453062 C7.96396009,14.3933774 7.94072609,14.3302173 7.94072609,14.2653062 C7.94072609,14.0996208 8.08895253,13.9653062 8.27179912,13.9653062 L13.5689674,13.9653062 Z" fill="currentColor" fill-rule="evenodd" transform="translate(10.9204, 15.8653) rotate(-90) translate(-10.9204, -15.8653)"></path>
    </g>
</svg>
