<svg viewBox="0 0 24 24" version="1.1" xmlns="http://www.w3.org/2000/svg">
  <path d="M3,0 L3,1 L9,1 L9,0 L12,0 L12,3 L9,3 L9,2 L3,2 L3,3 L2,3 L2,9 L3,9 L3,10 L8,10 L8,11 L3,11 L3,12 L0,12 L0,9 L1,9 L1,3 L0,3 L0,0 L3,0 Z" id="Combined-Shape" fill="currentColor" fill-rule="nonzero"></path>
  <path d="M13.7269798,4.96024183 C14.1856971,4.96024183 14.5540707,5.13688964 14.8095266,5.43528713 C15.1252279,5.80405728 15.2752158,6.32947457 15.2752202,6.89222409 L15.256795,12.2427335 C16.2830035,11.8035602 17.2133752,11.5733067 18.0508459,11.5733067 C18.5513777,11.5733067 20.3759155,12.9463244 21.5777721,13.9694717 C22.4904904,14.7464739 22.4929764,15.0447761 22.4632792,15.8578528 C22.4324873,17.9283054 22.4778768,20.5977658 19.6736087,22.3830362 C18.5391556,23.1052587 17.2370781,23.249655 16.024716,23.127554 C14.1143868,22.9351584 12.3930065,22.0847089 11.8224957,21.5748673 C11.1485712,20.9726093 9.54851195,19.454046 7.0220211,17.0195541 C6.91604903,16.4242264 6.95397047,15.9395238 7.27189147,15.6216028 C7.58322961,15.3102647 7.96347595,15.1702864 8.40808563,15.1892971 L12.0595119,16.9302359 L12.0727347,6.78073769 C12.0727347,6.24607455 12.2321655,5.76945209 12.5443856,5.43564239 C12.829368,5.13095381 13.2384673,4.96024183 13.7269798,4.96024183 Z" id="Path" stroke="currentColor" stroke-width="1.5" fill="transparent" fill-rule="nonzero"></path>
</svg>
