<svg viewBox="0 0 24 24" version="1.1" xmlns="http://www.w3.org/2000/svg">
        <path d="M11,5 C14.3137085,5 17,7.6862915 17,11 C17,12.3864585 16.5297397,13.6630819 15.7400213,14.6790679 L18.0303301,16.9696699 C18.3232233,17.2625631 18.3232233,17.7374369 18.0303301,18.0303301 C17.7374369,18.3232233 17.2625631,18.3232233 16.9696699,18.0303301 L14.6790679,15.7400213 C13.6630819,16.5297397 12.3864585,17 11,17 C7.6862915,17 5,14.3137085 5,11 C5,7.6862915 7.6862915,5 11,5 Z M11,6.25 C8.37664744,6.25 6.25,8.37664744 6.25,11 C6.25,13.6233526 8.37664744,15.75 11,15.75 C13.6233526,15.75 15.75,13.6233526 15.75,11 C15.75,8.37664744 13.6233526,6.25 11,6.25 Z" fill="currentColor" fill-rule="nonzero"></path>
</svg>