<svg viewBox="0 0 24 24" version="1.1" xmlns="http://www.w3.org/2000/svg">
        <path d="M11,4.25 C14.7275095,4.25 17.75,7.27249046 17.75,11 C17.75,12.593595 17.1975623,14.0583296 16.2737758,15.213115 L18.9053301,17.8446699 C19.1982233,18.1375631 19.1982233,18.6124369 18.9053301,18.9053301 C18.6124369,19.1982233 18.1375631,19.1982233 17.8446699,18.9053301 L15.213115,16.2737758 C14.0583296,17.1975623 12.593595,17.75 11,17.75 C7.27249046,17.75 4.25,14.7275095 4.25,11 C4.25,7.27249046 7.27249046,4.25 11,4.25 Z M11,5.75 C8.10091759,5.75 5.75,8.10091759 5.75,11 C5.75,13.8990824 8.10091759,16.25 11,16.25 C13.8990824,16.25 16.25,13.8990824 16.25,11 C16.25,8.10091759 13.8990824,5.75 11,5.75 Z" id="path" fill="currentColor" fill-rule="nonzero"></path>
</svg>
