<svg viewBox="0 0 24 24" version="1.1" xmlns="http://www.w3.org/2000/svg">
    <g stroke="none" fill="none" fill-rule="nonzero">
        <path d="M5.30958272,8.89153701 C5.27330929,9.21977308 5.25468745,9.55332876 5.25468745,9.89123382 C5.25468745,10.0593042 5.25929442,10.2262985 5.26838897,10.3920975 L2.9848708,10.3920736 C2.85526411,10.3934959 2.79718563,10.396781 2.76580764,10.402354 L2.76019102,10.4556928 C2.75790459,10.4916393 2.75638059,10.5436532 2.75552722,10.6214172 L2.75552722,21.1610505 C2.7569495,21.2906572 2.76023464,21.3487356 2.76580764,21.3801136 L2.81914644,21.3857303 C2.85509293,21.3880167 2.90710679,21.3895407 2.9848708,21.390394 L13.5245041,21.390394 C13.6541108,21.3889718 13.7121893,21.3856866 13.7435673,21.3801136 L13.7491839,21.3267748 C13.7514703,21.2908283 13.7529943,21.2388145 13.7538477,21.1610505 L13.7538238,18.8775323 C13.9196227,18.8866268 14.0866171,18.8912338 14.2546874,18.8912338 C14.5929352,18.8912338 14.9268248,18.8725742 15.2553829,18.8362281 L15.2546874,20.9683199 C15.2546874,21.636959 15.1850682,21.8794236 15.0543379,22.1238681 C14.9236076,22.3683125 14.7317662,22.560154 14.4873217,22.6908843 C14.2428773,22.8216146 14.0004126,22.8912338 13.3317736,22.8912338 L3.17760135,22.8912338 C2.5089623,22.8912338 2.26649762,22.8216146 2.02205317,22.6908843 C1.77760873,22.560154 1.5857673,22.3683125 1.45503698,22.1238681 C1.33619123,21.9016459 1.26785054,21.6810598 1.25640715,21.1404314 L1.25468745,10.8141477 C1.25468745,10.1455087 1.32430666,9.90304398 1.45503698,9.65859954 C1.5857673,9.41415509 1.77760873,9.22231366 2.02205317,9.09158334 C2.24427539,8.9727376 2.46486145,8.9043969 3.00548987,8.89295352 L5.30958272,8.89153701 Z M14.0816793,16.0138441 C14.5647437,16.0272064 14.9455125,16.4296397 14.9321502,16.9127041 C14.9187879,17.3957685 14.5163545,17.7765373 14.0332902,17.763175 C13.5502258,17.7498127 13.169457,17.3473794 13.1828193,16.864315 C13.1961816,16.3812506 13.5986149,16.0004818 14.0816793,16.0138441 Z M17.8831883,15.9424765 C18.0786292,16.384441 17.8787823,16.9011601 17.4368179,17.096601 C16.9948534,17.292042 16.4781342,17.0921951 16.2826933,16.6502306 C16.0872524,16.2082662 16.2870992,15.691547 16.7290637,15.4961061 C17.1710282,15.3006652 17.6877474,15.500512 17.8831883,15.9424765 Z M11.4110428,15.3177185 C11.8388639,15.5424379 12.0035103,16.0714266 11.7787909,16.4992477 C11.5540714,16.9270688 11.0250828,17.0917153 10.5972616,16.8669958 C10.1694405,16.6422764 10.0047941,16.1132877 10.2295135,15.6854666 C10.454233,15.2576455 10.9832216,15.092999 11.4110428,15.3177185 Z M20.1591682,13.7526727 C20.5275281,14.0654677 20.5725724,14.6176528 20.2597774,14.9860127 C19.9469824,15.3543727 19.3947972,15.3994169 19.0264373,15.0866219 C18.6580774,14.7738269 18.6130331,14.2216418 18.9258281,13.8532818 C19.2386231,13.4849219 19.7908083,13.4398776 20.1591682,13.7526727 Z M9.31981934,13.5200565 C9.60645965,13.9091157 9.52343272,14.4568784 9.1343735,14.7435187 C8.74531428,15.030159 8.19755158,14.9471321 7.91091127,14.5580729 C7.62427095,14.1690136 7.70729788,13.6212509 8.0963571,13.3346106 C8.48541632,13.0479703 9.03317902,13.1309972 9.31981934,13.5200565 Z M21.2632504,10.7027802 C21.7327841,10.817095 22.0207458,11.2903977 21.906431,11.7599314 C21.7921162,12.2294651 21.3188135,12.5174269 20.8492798,12.4031121 C20.3797462,12.2887973 20.0917844,11.8154945 20.2060992,11.3459609 C20.320414,10.8764272 20.7937167,10.5884654 21.2632504,10.7027802 Z M8.2108713,10.8917882 C8.28913851,11.3686571 7.96600797,11.8186839 7.48913903,11.8969511 C7.01227008,11.9752184 6.56224331,11.6520878 6.48397609,11.1752189 C6.40570887,10.6983499 6.72883942,10.2483232 7.20570836,10.1700559 C7.6825773,10.0917887 8.13260408,10.4149193 8.2108713,10.8917882 Z M21.9836255,8.37468665 C22.0762135,8.84898319 21.7667776,9.30853393 21.2924811,9.40112196 C20.8181845,9.49370999 20.3586338,9.1842741 20.2660458,8.70997757 C20.1734577,8.23568103 20.4828936,7.77613029 20.9571902,7.68354226 C21.4314867,7.59095423 21.8910374,7.90039012 21.9836255,8.37468665 Z M7.73414907,7.19308249 C8.20021872,7.32078852 8.47451663,7.80213881 8.34681061,8.26820846 C8.21910458,8.73427811 7.73775429,9.00857602 7.27168464,8.88086999 C6.80561499,8.75316396 6.53131708,8.27181367 6.65902311,7.80574402 C6.78672913,7.33967437 7.26807942,7.06537646 7.73414907,7.19308249 Z M20.460831,5.04311143 C20.7585564,5.42375472 20.6913382,5.97368122 20.3106949,6.27140666 C19.9300516,6.5691321 19.3801251,6.5019139 19.0823997,6.12127062 C18.7846743,5.74062733 18.8518925,5.19070083 19.2325357,4.89297539 C19.613179,4.59524995 20.1631055,4.66246815 20.460831,5.04311143 Z M9.60151349,4.58932517 C9.96275238,4.91031772 9.99537847,5.46337557 9.67438592,5.82461445 C9.35339337,6.18585334 8.80033552,6.21847943 8.43909664,5.89748688 C8.07785776,5.57649433 8.04523166,5.02343648 8.36622421,4.6621976 C8.68721676,4.30095872 9.24027461,4.26833262 9.60151349,4.58932517 Z M17.7085951,2.81231553 C18.1427662,3.02450697 18.3227163,3.54848733 18.1105248,3.98265843 C17.8983334,4.41682953 17.374353,4.5967796 16.9401819,4.38458816 C16.5060108,4.17239672 16.3260608,3.64841636 16.5382522,3.21424527 C16.7504436,2.78007417 17.274424,2.6001241 17.7085951,2.81231553 Z M12.4261888,3.07563219 C12.6084744,3.52318299 12.3934344,4.03376625 11.9458836,4.21605181 C11.4983328,4.39833738 10.9877496,4.18329742 10.805464,3.73574662 C10.6231784,3.28819582 10.8382184,2.77761256 11.2857692,2.59532699 C11.73332,2.41304143 12.2439032,2.62808139 12.4261888,3.07563219 Z M14.2546874,2.01623382 C14.7379366,2.01623382 15.1296874,2.40798466 15.1296874,2.89123382 C15.1296874,3.37448297 14.7379366,3.76623382 14.2546874,3.76623382 C13.7714383,3.76623382 13.3796874,3.37448297 13.3796874,2.89123382 C13.3796874,2.40798466 13.7714383,2.01623382 14.2546874,2.01623382 Z" fill="currentColor" transform="translate(11.6273, 12.4537) rotate(-180) translate(-11.6273, -12.4537)"></path>
    </g>
</svg>