<svg viewBox="0 0 24 24" version="1.1" xmlns="http://www.w3.org/2000/svg">
        <path d="M13.9742036,1.79037567 C14.2055695,1.88852614 14.3606834,2.11005167 14.3737828,2.36103394 L14.3994104,2.85205149 C14.4281965,3.40358554 14.898639,3.82735646 15.450173,3.79857035 C15.7091426,3.785054 15.9527345,3.67146524 16.129551,3.48177118 L16.4648029,3.12210301 C16.7122426,2.8566423 17.1280306,2.84203342 17.3934913,3.08947316 C17.5773347,3.26083623 17.6473279,3.5220542 17.5737963,3.76238067 L17.4299405,4.23255139 C17.2683549,4.76066929 17.565488,5.3197845 18.0936059,5.48137015 C18.3415805,5.55724175 18.6093317,5.53381656 18.8403641,5.41603727 L19.2784115,5.19272264 C19.6017217,5.02790055 19.9974312,5.15638055 20.1622532,5.47969076 C20.2763999,5.70359752 20.2528301,5.97300117 20.1015366,6.17368493 L19.8055485,6.56629929 C19.4730807,7.00730224 19.5610658,7.63432418 20.0020688,7.96679199 C20.2091391,8.12290029 20.4687548,8.1924641 20.7261371,8.16080551 L21.2141452,8.10077946 C21.5743299,8.05647596 21.9022323,8.31254826 21.9465358,8.67273295 C21.977218,8.92217693 21.8629282,9.16727223 21.6521209,9.30410784 L21.239701,9.57181076 C20.7764516,9.87250729 20.6446764,10.4918079 20.9453729,10.9550573 C21.0865632,11.1725734 21.3067299,11.3267357 21.5594181,11.3850163 L22.0385258,11.4955189 C22.3921414,11.5770776 22.612687,11.9298561 22.5311283,12.2834717 C22.4746452,12.5283663 22.2834204,12.7195911 22.0385258,12.7760742 L21.5594181,12.8865768 C21.0212617,13.0106984 20.6856203,13.5475808 20.809742,14.0857372 C20.8680226,14.3384253 21.0221849,14.558592 21.239701,14.6997823 L21.6521209,14.9674852 C21.9565161,15.1650691 22.0431039,15.5720035 21.8455201,15.8763987 C21.7086844,16.087206 21.4635891,16.2014958 21.2141452,16.1708136 L20.7261371,16.1107876 C20.1779834,16.0433635 19.6789591,16.4330718 19.611535,16.9812255 C19.5798764,17.2386078 19.6494402,17.4982234 19.8055485,17.7052938 L20.1015366,18.0979082 C20.3199969,18.3876855 20.262183,18.7996935 19.9724057,19.0181538 C19.7717219,19.1694473 19.5023183,19.1930171 19.2784115,19.0788704 L18.8403641,18.8555558 C18.3483285,18.6047183 17.7461109,18.8002479 17.4952734,19.2922835 C17.3774941,19.5233159 17.3540689,19.791067 17.4299405,20.0390417 L17.5737963,20.5092124 C17.6799722,20.8562319 17.4847299,21.2236193 17.1377104,21.3297951 C16.8973839,21.4033266 16.636166,21.3333335 16.4648029,21.1494901 L16.129551,20.7898219 C15.7529803,20.3858257 15.1202058,20.3635929 14.7162096,20.7401636 C14.5265155,20.9169801 14.4129268,21.160572 14.3994104,21.4195416 L14.3737828,21.9105591 C14.3548678,22.272965 14.0457462,22.5514194 13.6833403,22.5325045 C13.432358,22.519405 13.2108325,22.3642911 13.112682,22.1329252 L12.9206621,21.6802848 C12.7049762,21.1718578 12.1179667,20.9345442 11.6095397,21.15023 C11.3708108,21.251504 11.1807589,21.4415559 11.0794849,21.6802848 L10.8874649,22.1329252 C10.7457405,22.4670061 10.3600242,22.6229418 10.0259433,22.4812174 C9.79457744,22.3830669 9.6394636,22.1615414 9.62636412,21.9105591 L9.60073653,21.4195416 C9.57195042,20.8680075 9.10150797,20.4442366 8.54997393,20.4730227 C8.29100435,20.4865391 8.04741248,20.6001278 7.87059592,20.7898219 L7.53534404,21.1494901 C7.2879043,21.4149508 6.87211634,21.4295597 6.60665563,21.1821199 C6.42281224,21.0107568 6.35281909,20.7495389 6.42635061,20.5092124 L6.57020644,20.0390417 C6.7317921,19.5109238 6.434659,18.9518086 5.90654109,18.7902229 C5.65856643,18.7143513 5.3908153,18.7377765 5.15978289,18.8555558 L4.72173542,19.0788704 C4.39842521,19.2436925 4.0027158,19.1152125 3.83789371,18.7919023 C3.72374705,18.5679956 3.74731681,18.2985919 3.89861033,18.0979082 L4.19459846,17.7052938 C4.52706626,17.2642908 4.43908114,16.6372689 3.99807819,16.3048011 C3.79100784,16.1486928 3.5313922,16.079129 3.27400986,16.1107876 L2.78600178,16.1708136 C2.42581709,16.2151171 2.09791462,15.9590448 2.05361113,15.5988601 C2.02292897,15.3494161 2.13721879,15.1043209 2.34802607,14.9674852 L2.76044595,14.6997823 C3.22369539,14.3990858 3.35547055,13.7797852 3.05477402,13.3165358 C2.91358373,13.0990197 2.69341704,12.9448574 2.44072889,12.8865768 L1.96162118,12.7760742 C1.60800559,12.6945155 1.38745995,12.3417369 1.4690187,11.9881214 C1.52550177,11.7432268 1.71672659,11.552002 1.96162118,11.4955189 L2.44072889,11.3850163 C2.97888523,11.2608947 3.31452666,10.7240122 3.19040498,10.1858559 C3.13212438,9.93316774 2.97796201,9.71300105 2.76044595,9.57181076 L2.34802607,9.30410784 C2.04363085,9.10652403 1.95704309,8.69958962 2.1546269,8.3951944 C2.29146251,8.18438712 2.5365578,8.0700973 2.78600178,8.10077946 L3.27400986,8.16080551 C3.82216352,8.2282296 4.32118789,7.83852129 4.38861198,7.29036762 C4.42027057,7.03298529 4.35070676,6.77336964 4.19459846,6.56629929 L3.89861033,6.17368493 C3.68015003,5.88390758 3.73796391,5.47189957 4.02774126,5.25343926 C4.22842501,5.10214575 4.49782866,5.07857598 4.72173542,5.19272264 L5.15978289,5.41603727 C5.65181844,5.66687479 6.25403605,5.47134515 6.50487357,4.97930959 C6.62265285,4.74827718 6.64607804,4.48052605 6.57020644,4.23255139 L6.42635061,3.76238067 C6.32017476,3.41536121 6.51541709,3.04797383 6.86243654,2.94179799 C7.10276301,2.86826647 7.36398097,2.93825961 7.53534404,3.12210301 L7.87059592,3.48177118 C8.24716661,3.88576741 8.87994113,3.9080002 9.28393736,3.5314295 C9.47363143,3.35461294 9.58722018,3.11102107 9.60073653,2.85205149 L9.62636412,2.36103394 C9.64527911,1.99862804 9.95440076,1.72017364 10.3168067,1.73908862 C10.5677889,1.75218809 10.7893145,1.90730194 10.8874649,2.13866784 L11.0794849,2.59130826 C11.2951707,3.0997353 11.8821802,3.33704892 12.3906073,3.12136307 C12.6293362,3.02008904 12.819388,2.8300372 12.9206621,2.59130826 L13.112682,2.13866784 C13.2544064,1.804587 13.6401228,1.64865128 13.9742036,1.79037567 Z M12,4.25 C7.72413793,4.25 4.25,7.72413793 4.25,12 C4.25,16.2758621 7.72413793,19.75 12,19.75 C16.2758621,19.75 19.75,16.2758621 19.75,12 C19.75,7.72413793 16.2758621,4.25 12,4.25 Z" fill="currentColor" transform="translate(12.0001, 12.1358) rotate(-0.5) translate(-12.0001, -12.1358)"></path>
        <path d="M7.7806168,3.63195067 L8.09859886,4.17001424 L11.3709945,9.70686147 C11.5713445,9.65203171 11.7822534,9.62275618 12,9.62275618 C13.0966156,9.62275618 14.0198052,10.3652808 14.294228,11.3749891 L20.625,11.375 L20.625,12.625 L14.2942156,12.6250564 C14.0197775,13.6347415 13.0965991,14.3772438 12,14.3772438 C11.7822534,14.3772438 11.5713445,14.3479683 11.3709945,14.2931385 L8.09862342,19.8314937 L7.78068293,20.3695818 L6.70450666,19.7337008 L7.02244715,19.1956127 L10.2949861,13.6565697 C9.87894392,13.2284378 9.62275618,12.6441369 9.62275618,12 C9.62275618,11.3559752 9.87885483,10.7717654 10.2947691,10.3436537 L7.02247172,4.80597837 L6.70448965,4.2679148 L7.7806168,3.63195067 Z M12,10.9272159 C11.4075177,10.9272159 10.9272159,11.4075177 10.9272159,12 C10.9272159,12.5924823 11.4075177,13.0727841 12,13.0727841 C12.5924823,13.0727841 13.0727841,12.5924823 13.0727841,12 C13.0727841,11.4075177 12.5924823,10.9272159 12,10.9272159 Z" fill="currentColor" fill-rule="nonzero"></path>
</svg>
