<svg viewBox="0 0 24 24" version="1.1" xmlns="http://www.w3.org/2000/svg">
    <path d="M6.5,13.021 C7.707,13.021 8.895,13.552 9.682,14.339 C10.5151355,15.1900804 10.9873287,16.3300794 11,17.521 C10.9873287,18.7119206 10.5151355,19.8519196 9.682,20.703 C8.83091965,21.5361355 7.69092063,22.0083287 6.5,22.021 C5.30907937,22.0083287 4.16908035,21.5361355 3.318,20.703 C2.48486451,19.8519196 2.01267133,18.7119206 2,17.521 C2,16.314 2.531,15.126 3.318,14.339 C4.16908035,13.5058645 5.30907937,13.0336713 6.5,13.021 Z M6.5,14.021 C5.56869541,14.0054003 4.67258361,14.3765173 4.025,15.046 C3.35551731,15.6935836 2.98440031,16.5896954 3,17.521 C3,18.523 3.364,19.335 4.025,19.996 C4.67258361,20.6654827 5.56869541,21.0365997 6.5,21.021 C7.43130459,21.0365997 8.32741639,20.6654827 8.975,19.996 C9.64448269,19.3484164 10.0155997,18.4523046 10,17.521 C10.0155997,16.5896954 9.64448269,15.6935836 8.975,15.046 C8.32741639,14.3765173 7.43130459,14.0054003 6.5,14.021 Z M6.5,2 C7.707,2 8.895,2.531 9.682,3.318 C10.5151355,4.16908035 10.9873287,5.30907937 11,6.5 C10.9873287,7.69092063 10.5151355,8.83091965 9.682,9.682 C8.83091965,10.5151355 7.69092063,10.9873287 6.5,11 C5.30907937,10.9873287 4.16908035,10.5151355 3.318,9.682 C2.48486451,8.83091965 2.01267133,7.69092063 2,6.5 C2,5.293 2.531,4.105 3.318,3.318 C4.16908035,2.48486451 5.30907937,2.01267133 6.5,2 Z M6.5,3 C5.56869541,2.98440031 4.67258361,3.35551731 4.025,4.025 C3.35551731,4.67258361 2.98440031,5.56869541 3,6.5 C3,7.502 3.364,8.314 4.025,8.975 C4.67258361,9.64448269 5.56869541,10.0155997 6.5,10 C7.43130459,10.0155997 8.32741639,9.64448269 8.975,8.975 C9.64448269,8.32741639 10.0155997,7.43130459 10,6.5 C10.0155997,5.56869541 9.64448269,4.67258361 8.975,4.025 C8.32741639,3.35551731 7.43130459,2.98440031 6.5,3 Z M6.5,4.99899985 C7.32870326,4.99927616 8.00027613,5.67129674 8.00000017,6.5 C7.99982138,7.03607702 7.71366263,7.53133732 7.24931699,7.79922114 C6.78497136,8.06710495 6.21298398,8.06691435 5.74881698,7.79872114 C5.28464998,7.53052792 4.99882136,7.03507702 4.99899983,6.49899985 C4.99927615,5.67029674 5.67129674,4.99872388 6.5,4.99899985 Z M13,17 L22,17 L22,18 L13,18 L13,17 Z M13,6 L22,6 L22,7 L13,7 L13,6 Z" fill="currentColor"></path>
</svg>
