<svg xmlns="http://www.w3.org/2000/svg" viewBox="0 0 24 24"><path fill="currentColor" fill-rule="nonzero" d="M12,8.5 C11.7,8.5 11.5,8.3 11.5,8 L11.5,4 C11.5,3.7 11.7,3.5 12,3.5 C12.3,3.5 12.5,3.7 12.5,4 L12.5,8 C12.5,8.3 12.3,8.5 12,8.5 Z"/><path fill="currentColor" fill-rule="nonzero" d="M12,20.5 C11.7,20.5 11.5,20.3 11.5,20 L11.5,16 C11.5,15.7 11.7,15.5 12,15.5 C12.3,15.5 12.5,15.7 12.5,16 L12.5,20 C12.5,20.3 12.3,20.5 12,20.5 Z" opacity=".4"/><path fill="currentColor" fill-rule="nonzero" d="M14,9 C13.9,9 13.85,9 13.75,8.95 C13.55,8.8 13.45,8.55 13.6,8.3 L15.6,4.85 C15.75,4.65 16,4.55 16.25,4.7 C16.45,4.85 16.55,5.1 16.4,5.35 L14.4,8.8 C14.3,8.9 14.15,9 14,9 L14,9 Z" opacity=".9"/><path fill="currentColor" fill-rule="nonzero" d="M8,19.4 C7.9,19.4 7.85,19.4 7.75,19.35 C7.55,19.2 7.45,18.95 7.6,18.7 L9.6,15.25 C9.75,15.05 10,14.95 10.25,15.1 C10.45,15.25 10.55,15.5 10.4,15.75 L8.4,19.2 C8.3,19.3 8.15,19.4 8,19.4 Z" opacity=".3"/><path fill="currentColor" fill-rule="nonzero" d="M10,9 C9.85,9 9.7,8.9 9.6,8.75 L7.6,5.3 C7.45,5.1 7.55,4.8 7.75,4.65 C7.95,4.5 8.25,4.6 8.4,4.8 L10.4,8.25 C10.55,8.45 10.45,8.75 10.25,8.9 C10.15,9 10.1,9 10,9 Z"/><path fill="currentColor" fill-rule="nonzero" d="M16,19.4 C15.85,19.4 15.7,19.3 15.6,19.15 L13.6,15.7 C13.45,15.5 13.55,15.2 13.75,15.05 C13.95,14.9 14.25,15 14.4,15.2 L16.4,18.65 C16.55,18.85 16.45,19.15 16.25,19.3 C16.15,19.35 16.1,19.4 16,19.4 L16,19.4 Z" opacity=".5"/><path fill="currentColor" fill-rule="nonzero" d="M8,12.5 L4,12.5 C3.7,12.5 3.5,12.3 3.5,12 C3.5,11.7 3.7,11.5 4,11.5 L8,11.5 C8.3,11.5 8.5,11.7 8.5,12 C8.5,12.3 8.3,12.5 8,12.5 Z" opacity=".1"/><path fill="currentColor" fill-rule="nonzero" d="M20,12.5 L16,12.5 C15.7,12.5 15.5,12.3 15.5,12 C15.5,11.7 15.7,11.5 16,11.5 L20,11.5 C20.3,11.5 20.5,11.7 20.5,12 C20.5,12.3 20.3,12.5 20,12.5 Z" opacity=".7"/><path fill="currentColor" fill-rule="nonzero" d="M8.55,10.45 C8.45,10.45 8.4,10.45 8.3,10.4 L4.85,8.4 C4.65,8.25 4.55,8 4.7,7.75 C4.85,7.55 5.1,7.45 5.35,7.6 L8.8,9.6 C9,9.75 9.1,10 8.95,10.25 C8.85,10.4 8.7,10.45 8.55,10.45 L8.55,10.45 Z" opacity="0"/><path fill="currentColor" fill-rule="nonzero" d="M18.95,16.45 C18.85,16.45 18.8,16.45 18.7,16.4 L15.25,14.4 C15.05,14.25 14.95,14 15.1,13.75 C15.25,13.55 15.5,13.45 15.75,13.6 L19.2,15.6 C19.4,15.75 19.5,16 19.35,16.25 C19.25,16.4 19.1,16.45 18.95,16.45 L18.95,16.45 Z" opacity=".6"/><path fill="currentColor" fill-rule="nonzero" d="M5.05,16.45 C4.9,16.45 4.75,16.35 4.65,16.2 C4.5,16 4.6,15.7 4.8,15.55 L8.25,13.55 C8.45,13.4 8.75,13.5 8.9,13.7 C9.05,13.9 8.95,14.2 8.75,14.35 L5.3,16.35 C5.25,16.45 5.15,16.45 5.05,16.45 L5.05,16.45 Z" opacity=".2"/><path fill="currentColor" fill-rule="nonzero" d="M15.45,10.45 C15.3,10.45 15.15,10.35 15.05,10.2 C14.9,10 15,9.7 15.2,9.55 L18.65,7.55 C18.85,7.4 19.15,7.5 19.3,7.7 C19.45,7.9 19.35,8.2 19.15,8.35 L15.7,10.35 C15.6,10.45 15.55,10.45 15.45,10.45 Z" opacity=".8"/></svg>
