<svg viewBox="0 0 24 24" version="1.1" xmlns="http://www.w3.org/2000/svg">
    <path fill="currentColor" d="M14.75,19 L17.25,19 C17.6642136,19 18,18.6642136 18,18.25 L18,5.75 C18,5.33578644 17.6642136,5 17.25,5 L14.75,5 C14.3357864,5 14,5.33578644 14,5.75 L14,18.25 C14,18.6642136 14.3357864,19 14.75,19 Z M6.75,19 L9.25,19 C9.66421356,19 10,18.6642136 10,18.25 L10,5.75 C10,5.33578644 9.66421356,5 9.25,5 L6.75,5 C6.33578644,5 6,5.33578644 6,5.75 L6,18.25 C6,18.6642136 6.33578644,19 6.75,19 Z" fill-rule="nonzero"></path>
</svg>
