<svg xmlns="http://www.w3.org/2000/svg" viewBox="0 0 24 24"><path d="M12.0002194,2.00021939 C13.3412194,1.99121939 14.6682194,2.25921939 15.9002194,2.78721939 C17.0852194,3.29121939 18.1632194,4.01621939 19.0752194,4.92521939 C19.9752194,5.82521939 20.6882194,6.88321939 21.2122194,8.10021939 C21.7402194,9.33221939 22.0092194,10.6602194 22.0002194,12.0002194 C22.0072194,13.3322194 21.7392194,14.6512194 21.2122194,15.8752194 C20.7072194,17.0632194 19.9822194,18.1442194 19.0752194,19.0632194 C18.1662194,19.9782194 17.0872194,20.7082194 15.9002194,21.2132194 C14.6682194,21.7412194 13.3412194,22.0092194 12.0002194,22.0002194 C10.6682194,22.0072194 9.34921939,21.7392194 8.12521939,21.2122194 C6.93521939,20.7052194 5.85321939,19.9752194 4.93721939,19.0622194 C4.02421939,18.1462194 3.29421939,17.0652194 2.78721939,15.8752194 C2.26121939,14.6512194 1.99321939,13.3322194 2.00021939,12.0002194 C1.99121939,10.6602194 2.25921939,9.33221939 2.78721939,8.10021939 C3.29221939,6.91321939 4.02221939,5.83521939 4.93721939,4.92521939 C5.85621939,4.01821939 6.93721939,3.29321939 8.12521939,2.78721939 C9.34921939,2.26121939 10.6682194,1.99321939 12.0002194,2.00021939 Z M17.8132194,9.47421939 L16.4492194,8.13921939 L10.5252194,14.0632194 L7.52521939,11.0632194 L6.18821939,12.4002194 L10.5252194,16.7622194 L17.8132194,9.47421939 Z" fill="currentColor"/></svg>
