<svg xmlns="http://www.w3.org/2000/svg" viewBox="0 0 24 24"><path d="M12.0051969,1.99996598 L12.3963568,2.00584331 C13.6029773,2.04758187 14.7915757,2.31253329 15.9020278,2.78815733 C17.0868666,3.29276972 18.1630436,4.01715744 19.0742996,4.92508605 C19.9756617,5.8264481 20.6886855,6.88583756 21.2091234,8.09577357 C21.7396545,9.3318219 22.0090825,10.6633959 22.0001803,11.9951887 C22.006876,13.3332004 21.7375929,14.6566799 21.2106245,15.8780964 C20.7078136,17.0620276 19.9844151,18.1409473 19.0768787,19.0607111 C18.1683415,19.9759124 17.0893868,20.7064898 15.903912,21.2104236 C14.6672306,21.7401113 13.3368406,22.0090741 12.0051969,22.0001803 C10.6673783,22.006875 9.34399788,21.7376697 8.12045197,21.2102684 C6.93322646,20.7047831 5.85339815,19.9762784 4.93479767,19.0610089 C4.0234931,18.1463743 3.29500843,17.0668567 2.78939347,15.8819177 C2.26215216,14.6546605 1.99351779,13.3315866 2.00021483,12.0068262 C1.99130164,10.6631617 2.25982254,9.33187518 2.78820336,8.09824975 C3.29390448,6.91124143 4.02396244,5.83277231 4.94083592,4.92036788 C5.85666909,4.01671628 6.93467605,3.29392973 8.11777039,2.7892636 C9.34601909,2.26207518 10.668992,1.99351876 12.0051969,1.99996598 Z M12.0068207,4.00017087 L11.9951887,4.00018031 C10.9336117,3.994868 9.88256703,4.20822444 8.90455387,4.62800413 C7.9501474,5.03512232 7.08251153,5.61685839 6.34857497,6.34102006 C5.61736673,7.06867444 5.03300401,7.93191705 4.62742359,8.88391205 C4.20662338,9.8663698 3.99308301,10.925071 4.00018031,12.0051969 C3.99486773,13.0668288 4.20824527,14.1177526 4.6279586,15.0947251 C5.03469623,16.047933 5.61966549,16.9147798 6.34901045,17.6467992 C7.08474961,18.379863 7.951437,18.9645724 8.90802218,19.3718687 C9.882356,19.7918402 10.9327885,20.0055218 12.0068207,20.0002148 C13.074619,20.0072922 14.1324534,19.7934315 15.1189792,19.3708929 C16.068902,18.9670868 16.9314966,18.3830102 17.6553679,17.6538359 C18.3839019,16.915481 18.9656415,16.0478398 19.3719995,15.0910604 C19.7918198,14.1179611 20.0055221,13.0676514 20.0002148,11.9935595 C20.0072966,10.9259764 19.7931211,9.86747246 19.3715693,8.88532678 C18.9507302,7.90694293 18.3805033,7.05971686 17.6613815,6.34059271 C16.9321844,5.61406016 16.0692353,5.03319867 15.1164736,4.62742359 C14.13367,4.20647525 13.0759368,3.99308476 12.0068207,4.00017087 Z M16.555087,8.24296773 L17.705087,9.36796773 L17.7062589,9.58125885 L10.6312589,16.6562589 L10.4188069,16.6559379 L6.29380686,12.5059379 L6.29412682,12.2941268 L7.41912682,11.1691268 L7.63125885,11.1691268 L10.5251928,14.0621928 L16.3441268,8.24412682 L16.555087,8.24296773 Z" fill="currentColor"/></svg>
