<?xml version="1.0" encoding="utf-8"?>
<svg viewBox="0 0 24 24" xmlns="http://www.w3.org/2000/svg">
  <path
    d="M 12 21 C 16.923 21 21 16.914 21 12 C 21 7.076 16.914 3 11.991 3 C 7.077 3 3 7.076 3 12 C 3 16.914 7.086 21 12 21 Z M 6.723 6.283 C 7.617 5.452 8.693 4.841 9.865 4.5 C 9.254 5.118 8.735 5.992 8.347 7.068 C 7.77 6.889 7.223 6.624 6.724 6.283 L 6.723 6.283 Z M 14.144 4.509 C 15.312 4.854 16.383 5.465 17.277 6.291 C 16.826 6.609 16.28 6.865 15.653 7.068 C 15.265 6 14.744 5.126 14.144 4.508 L 14.144 4.509 Z M 9.485 7.359 C 9.979 6.009 10.668 5.038 11.427 4.703 L 11.427 7.562 C 10.775 7.539 10.127 7.47 9.485 7.359 Z M 12.582 4.703 C 13.332 5.038 14.021 6.009 14.515 7.359 C 13.914 7.464 13.27 7.536 12.582 7.562 L 12.582 4.703 Z M 4.218 11.418 C 4.343 9.845 4.944 8.346 5.938 7.121 C 6.486 7.536 7.191 7.879 8.011 8.144 C 7.741 9.215 7.588 10.312 7.553 11.417 L 4.218 11.417 L 4.218 11.418 Z M 16.447 11.418 C 16.412 10.313 16.259 9.215 15.989 8.144 C 16.809 7.879 17.514 7.536 18.053 7.13 C 19.055 8.348 19.659 9.845 19.782 11.417 L 16.447 11.417 L 16.447 11.418 Z M 12.582 11.418 L 12.582 8.717 C 13.344 8.692 14.103 8.601 14.85 8.444 C 15.079 9.353 15.221 10.359 15.265 11.418 L 12.582 11.418 Z M 8.735 11.418 C 8.776 10.416 8.915 9.42 9.15 8.444 C 9.865 8.595 10.624 8.691 11.427 8.717 L 11.427 11.418 L 8.735 11.418 Z M 4.218 12.573 L 7.553 12.573 C 7.597 13.782 7.755 14.894 8.011 15.891 C 7.2 16.155 6.503 16.499 5.965 16.905 C 4.953 15.674 4.342 14.162 4.218 12.573 Z M 8.735 12.573 L 11.426 12.573 L 11.426 15.326 C 10.633 15.353 9.874 15.449 9.167 15.591 C 8.913 14.604 8.768 13.592 8.735 12.573 Z M 12.582 15.326 L 12.582 12.573 L 15.265 12.573 C 15.232 13.592 15.087 14.604 14.833 15.591 C 14.091 15.441 13.338 15.352 12.582 15.326 Z M 15.989 15.891 C 16.244 14.894 16.403 13.783 16.447 12.573 L 19.782 12.573 C 19.658 14.162 19.047 15.675 18.035 16.906 C 17.496 16.499 16.801 16.155 15.988 15.891 L 15.989 15.891 Z M 12.582 16.482 C 13.225 16.502 13.864 16.57 14.497 16.685 C 14.003 18 13.323 18.97 12.582 19.305 L 12.582 16.482 Z M 9.503 16.685 C 10.094 16.571 10.738 16.509 11.427 16.482 L 11.427 19.305 C 10.676 18.97 9.997 18 9.503 16.685 Z M 15.644 16.967 C 16.213 17.146 16.753 17.405 17.25 17.735 C 16.364 18.547 15.305 19.148 14.152 19.491 C 14.745 18.882 15.256 18.017 15.644 16.967 Z M 6.75 17.735 C 7.247 17.405 7.787 17.146 8.356 16.967 C 8.744 18.017 9.255 18.882 9.856 19.491 C 8.701 19.148 7.639 18.546 6.75 17.734 L 6.75 17.735 Z"
    fill="currentColor"
    fill-rule="nonzero"
    opacity=".9"
  />
</svg>
