<svg viewBox="0 0 24 24" xmlns="http://www.w3.org/2000/svg">
  <path d="M9.03033009,12.9696699 C9.29659665,13.2359365 9.3208027,13.6526002 9.10294824,13.9462117 L9.03033009,14.0303301 C8.73743687,14.3232233 8.26256313,14.3232233 7.96966991,14.0303301 L3.96966991,10.0303301 C3.6767767,9.73743687 3.6767767,9.26256313 3.96966991,8.96966991 L7.96966991,4.96966991 C8.26256313,4.6767767 8.73743687,4.6767767 9.03033009,4.96966991 C9.3232233,5.26256313 9.3232233,5.73743687 9.03033009,6.03033009 L6.25,8.81 L7.8,8.75 L14,8.75 C16.3472102,8.75 18.25,10.6527898 18.25,13 C18.25,15.3472102 16.3472102,17.25 14,17.25 L11.8333333,17.25 C11.4191198,17.25 11.0833333,16.9142136 11.0833333,16.5 C11.0833333,16.0857864 11.4191198,15.75 11.8333333,15.75 L14,15.75 C15.5187831,15.75 16.75,14.5187831 16.75,13 C16.75,11.4812169 15.5187831,10.25 14,10.25 L7.8,10.25 L6.25,10.19 L9.03033009,12.9696699 Z" fill="currentColor"/>
</svg>
