<svg viewBox="0 0 24 24" version="1.1" xmlns="http://www.w3.org/2000/svg">
    <path d="M12,1.75 C12.4142136,1.75 12.75,2.08578644 12.75,2.5 L12.75,4.5 L12.7474684,4.53678051 C16.292814,4.88757432 19.1124257,7.70718602 19.4632195,11.2525316 L19.5,11.25 L21.5,11.25 C21.9142136,11.25 22.25,11.5857864 22.25,12 C22.25,12.4142136 21.9142136,12.75 21.5,12.75 L19.5,12.75 L19.4632195,12.7474684 C19.1124257,16.292814 16.292814,19.1124257 12.7474684,19.4632195 L12.75,19.5 L12.75,21.5 C12.75,21.9142136 12.4142136,22.25 12,22.25 C11.5857864,22.25 11.25,21.9142136 11.25,21.5 L11.25,19.5 L11.2525316,19.4632195 C7.70718602,19.1124257 4.88757432,16.292814 4.53678051,12.7474684 L4.5,12.75 L2.5,12.75 C2.08578644,12.75 1.75,12.4142136 1.75,12 C1.75,11.5857864 2.08578644,11.25 2.5,11.25 L4.5,11.25 L4.53678051,11.2525316 C4.88757432,7.70718602 7.70718602,4.88757432 11.2525316,4.53678051 L11.25,4.5 L11.25,2.5 C11.25,2.08578644 11.5857864,1.75 12,1.75 Z M12,6 C8.6862915,6 6,8.6862915 6,12 C6,15.3137085 8.6862915,18 12,18 C15.3137085,18 18,15.3137085 18,12 C18,8.6862915 15.3137085,6 12,6 Z M12,8.25 C14.0710678,8.25 15.75,9.92893219 15.75,12 C15.75,14.0710678 14.0710678,15.75 12,15.75 C9.92893219,15.75 8.25,14.0710678 8.25,12 C8.25,9.92893219 9.92893219,8.25 12,8.25 Z" fill="currentColor" fill-rule="nonzero"></path>
</svg>