<svg viewBox="0 0 24 24" version="1.1" xmlns="http://www.w3.org/2000/svg">
        <path d="M9.5,4 C10.3284271,4 11,4.67157288 11,5.5 L11,9.5 C11,10.3284271 10.3284271,11 9.5,11 L3.5,11 C2.67157288,11 2,10.3284271 2,9.5 L2,5.5 C2,4.67157288 2.67157288,4 3.5,4 L9.5,4 Z M9.5,5.5 L3.5,5.5 L3.5,9.5 L9.5,9.5 L9.5,5.5 Z M9.5,13 C10.3284271,13 11,13.6715729 11,14.5 L11,18.5 C11,19.3284271 10.3284271,20 9.5,20 L3.5,20 C2.67157288,20 2,19.3284271 2,18.5 L2,14.5 C2,13.6715729 2.67157288,13 3.5,13 L9.5,13 Z M9.5,14.5 L3.5,14.5 L3.5,18.5 L9.5,18.5 L9.5,14.5 Z M20.5,4 C21.3284271,4 22,4.67157288 22,5.5 L22,9.5 C22,10.3284271 21.3284271,11 20.5,11 L14.5,11 C13.6715729,11 13,10.3284271 13,9.5 L13,5.5 C13,4.67157288 13.6715729,4 14.5,4 L20.5,4 Z M20.5,5.5 L14.5,5.5 L14.5,9.5 L20.5,9.5 L20.5,5.5 Z M20.5,13 C21.3284271,13 22,13.6715729 22,14.5 L22,18.5 C22,19.3284271 21.3284271,20 20.5,20 L14.5,20 C13.6715729,20 13,19.3284271 13,18.5 L13,14.5 C13,13.6715729 13.6715729,13 14.5,13 L20.5,13 Z M20.5,14.5 L14.5,14.5 L14.5,18.5 L20.5,18.5 L20.5,14.5 Z" fill="currentColor"></path>
</svg>
