<svg
  viewBox="0 0 48 48"
  version="1.1"
  xmlns="http://www.w3.org/2000/svg"
>
  <g stroke="none" stroke-width="1" fill="none" fill-rule="evenodd">
    <path
      d="M10.4484679,11.5 L19.5515321,11.5 C20.5767786,11.5 20.9485578,11.6067495 21.3233726,11.8072026 C21.6981874,12.0076558 21.9923442,12.3018126 22.1927974,12.6766274 C22.3932505,13.0514422 22.5,13.4232214 22.5,14.4484679 L22.5,19.5515321 C22.5,20.5767786 22.3932505,20.9485578 22.1927974,21.3233726 C21.9923442,21.6981874 21.6981874,21.9923442 21.3233726,22.1927974 C20.9485578,22.3932505 20.5767786,22.5 19.5515321,22.5 L10.4484679,22.5 C9.42322139,22.5 9.05144222,22.3932505 8.67662742,22.1927974 C8.30181261,21.9923442 8.00765576,21.6981874 7.8072026,21.3233726 C7.60674945,20.9485578 7.5,20.5767786 7.5,19.5515321 L7.5,14.4484679 C7.5,13.4232214 7.60674945,13.0514422 7.8072026,12.6766274 C8.00765576,12.3018126 8.30181261,12.0076558 8.67662742,11.8072026 C9.05144222,11.6067495 9.42322139,11.5 10.4484679,11.5 Z"
      fill="currentColor"
    />
    <path
      d="M10.4484679,25.5 L19.5515321,25.5 C20.5767786,25.5 20.9485578,25.6067495 21.3233726,25.8072026 C21.6981874,26.0076558 21.9923442,26.3018126 22.1927974,26.6766274 C22.3932505,27.0514422 22.5,27.4232214 22.5,28.4484679 L22.5,33.5515321 C22.5,34.5767786 22.3932505,34.9485578 22.1927974,35.3233726 C21.9923442,35.6981874 21.6981874,35.9923442 21.3233726,36.1927974 C20.9485578,36.3932505 20.5767786,36.5 19.5515321,36.5 L10.4484679,36.5 C9.42322139,36.5 9.05144222,36.3932505 8.67662742,36.1927974 C8.30181261,35.9923442 8.00765576,35.6981874 7.8072026,35.3233726 C7.60674945,34.9485578 7.5,34.5767786 7.5,33.5515321 L7.5,28.4484679 C7.5,27.4232214 7.60674945,27.0514422 7.8072026,26.6766274 C8.00765576,26.3018126 8.30181261,26.0076558 8.67662742,25.8072026 C9.05144222,25.6067495 9.42322139,25.5 10.4484679,25.5 Z"
      fill="currentColor"
    />
    <path
      d="M28.4484679,11.5 L37.5515321,11.5 C38.5767786,11.5 38.9485578,11.6067495 39.3233726,11.8072026 C39.6981874,12.0076558 39.9923442,12.3018126 40.1927974,12.6766274 C40.3932505,13.0514422 40.5,13.4232214 40.5,14.4484679 L40.5,19.5515321 C40.5,20.5767786 40.3932505,20.9485578 40.1927974,21.3233726 C39.9923442,21.6981874 39.6981874,21.9923442 39.3233726,22.1927974 C38.9485578,22.3932505 38.5767786,22.5 37.5515321,22.5 L28.4484679,22.5 C27.4232214,22.5 27.0514422,22.3932505 26.6766274,22.1927974 C26.3018126,21.9923442 26.0076558,21.6981874 25.8072026,21.3233726 C25.6067495,20.9485578 25.5,20.5767786 25.5,19.5515321 L25.5,14.4484679 C25.5,13.4232214 25.6067495,13.0514422 25.8072026,12.6766274 C26.0076558,12.3018126 26.3018126,12.0076558 26.6766274,11.8072026 C27.0514422,11.6067495 27.4232214,11.5 28.4484679,11.5 Z"
      fill="currentColor"
    />
    <path
      d="M28.4484679,25.5 L37.5515321,25.5 C38.5767786,25.5 38.9485578,25.6067495 39.3233726,25.8072026 C39.6981874,26.0076558 39.9923442,26.3018126 40.1927974,26.6766274 C40.3932505,27.0514422 40.5,27.4232214 40.5,28.4484679 L40.5,33.5515321 C40.5,34.5767786 40.3932505,34.9485578 40.1927974,35.3233726 C39.9923442,35.6981874 39.6981874,35.9923442 39.3233726,36.1927974 C38.9485578,36.3932505 38.5767786,36.5 37.5515321,36.5 L28.4484679,36.5 C27.4232214,36.5 27.0514422,36.3932505 26.6766274,36.1927974 C26.3018126,35.9923442 26.0076558,35.6981874 25.8072026,35.3233726 C25.6067495,34.9485578 25.5,34.5767786 25.5,33.5515321 L25.5,28.4484679 C25.5,27.4232214 25.6067495,27.0514422 25.8072026,26.6766274 C26.0076558,26.3018126 26.3018126,26.0076558 26.6766274,25.8072026 C27.0514422,25.6067495 27.4232214,25.5 28.4484679,25.5 Z"
      fill="currentColor"
    />
  </g>
</svg>
