<svg viewBox="0 0 24 24" version="1.1" xmlns="http://www.w3.org/2000/svg">
    <g stroke="none" stroke-width="1" fill="none" fill-rule="evenodd">
        <path d="M12.0039062,18.8768834 C10.9622396,18.8768834 9.9765625,18.7505814 9.046875,18.4979772 C8.1171875,18.245373 7.25520833,17.9120397 6.4609375,17.4979772 C5.66666667,17.0839147 4.95442708,16.6268834 4.32421875,16.1268834 C3.69401042,15.6268834 3.15494792,15.1255814 2.70703125,14.6229772 C2.25911458,14.120373 1.91666667,13.6542272 1.6796875,13.2245397 C1.44270833,12.7948522 1.32421875,12.4471959 1.32421875,12.1815709 C1.32421875,11.9471959 1.41796875,11.6464147 1.60546875,11.2792272 C1.79296875,10.9120397 2.06510417,10.5096959 2.421875,10.0721959 C2.77864583,9.63469594 3.21354167,9.19068552 3.7265625,8.74016469 C4.23958333,8.28964386 4.82161458,7.86386261 5.47265625,7.46282094 L6.44140625,8.43157094 C5.86328125,8.77532094 5.34375,9.13730011 4.8828125,9.51750844 C4.421875,9.89771677 4.02864583,10.2649043 3.703125,10.6190709 C3.37760417,10.9732376 3.12760417,11.2883418 2.953125,11.5643834 C2.77864583,11.8404251 2.69140625,12.0461543 2.69140625,12.1815709 C2.69140625,12.3638626 2.80078125,12.6242793 3.01953125,12.9628209 C3.23828125,13.3013626 3.55208333,13.6750605 3.9609375,14.0839147 C4.36979167,14.4927689 4.85546875,14.9055293 5.41796875,15.3221959 C5.98046875,15.7388626 6.60807292,16.1229772 7.30078125,16.4745397 C7.99348958,16.8261022 8.73567708,17.1086543 9.52734375,17.3221959 C10.3190104,17.5357376 11.1445312,17.6425084 12.0039062,17.6425084 C12.5299479,17.6425084 13.0403646,17.6008418 13.5351563,17.5175084 C14.0299479,17.4341751 14.5091146,17.3221959 14.9726562,17.1815709 L15.9960938,18.2050084 C15.3919271,18.4133418 14.7565104,18.5774043 14.0898437,18.6971959 C13.4231771,18.8169876 12.7278646,18.8768834 12.0039062,18.8768834 Z M12.0039062,5.48625844 C13.0559896,5.48625844 14.0494792,5.61256052 14.984375,5.86516469 C15.9192708,6.11776886 16.7825521,6.45110219 17.5742188,6.86516469 C18.3658854,7.27922719 19.0755208,7.73625844 19.703125,8.23625844 C20.3307292,8.73625844 20.8658854,9.23756052 21.3085938,9.74016469 C21.7513021,10.2427689 22.0898438,10.7089147 22.3242188,11.1386022 C22.5585938,11.5682897 22.6757812,11.9159459 22.6757812,12.1815709 C22.6757812,12.4107376 22.5859375,12.7050084 22.40625,13.0643834 C22.2265625,13.4237584 21.9674479,13.8156855 21.6289062,14.2401647 C21.2903646,14.6646439 20.8776042,15.0982376 20.390625,15.5409459 C19.9036458,15.9836543 19.3528646,16.4055293 18.7382812,16.8065709 L17.7773437,15.8456334 C18.3190104,15.5123001 18.8059896,15.1659459 19.2382813,14.8065709 C19.6705729,14.4471959 20.0416667,14.0969355 20.3515625,13.7557897 C20.6614583,13.4146439 20.8984375,13.1073522 21.0625,12.8339147 C21.2265625,12.5604772 21.3085938,12.3430293 21.3085938,12.1815709 C21.3085938,12.0253209 21.1979167,11.7857376 20.9765625,11.4628209 C20.7552083,11.1399043 20.4414063,10.7714147 20.0351562,10.3573522 C19.6289062,9.94328969 19.1445312,9.52532094 18.5820312,9.10344594 C18.0195313,8.68157094 17.3919271,8.28964386 16.6992188,7.92766469 C16.0065104,7.56568552 15.2643229,7.27401886 14.4726562,7.05266469 C13.6809896,6.83131052 12.8580729,6.72063344 12.0039062,6.72063344 C11.5195313,6.72063344 11.0546875,6.75709177 10.609375,6.83000844 C10.1640625,6.90292511 9.72526042,7.00188344 9.29296875,7.12688344 L8.26171875,6.10344594 C8.83984375,5.91073761 9.4375,5.75969594 10.0546875,5.65032094 C10.671875,5.54094594 11.3216146,5.48625844 12.0039062,5.48625844 Z M12.0039062,16.5565709 C11.3893229,16.5565709 10.8164063,16.4419876 10.2851563,16.2128209 C9.75390625,15.9836543 9.28776042,15.667248 8.88671875,15.2636022 C8.48567708,14.8599564 8.17317708,14.3938105 7.94921875,13.8651647 C7.72526042,13.3365189 7.61067708,12.7753209 7.60546875,12.1815709 C7.60546875,11.8326126 7.64453125,11.495373 7.72265625,11.1698522 C7.80078125,10.8443314 7.91276042,10.5357376 8.05859375,10.2440709 L13.9179688,16.1034459 C13.6263021,16.2440709 13.3203125,16.354748 13,16.4354772 C12.6796875,16.5162064 12.3476562,16.5565709 12.0039062,16.5565709 Z M16.0117188,13.8925084 L10.2851562,8.16594594 C10.5455729,8.05136261 10.8203125,7.96282094 11.109375,7.90032094 C11.3984375,7.83782094 11.6966146,7.80657094 12.0039062,7.80657094 C12.6080729,7.80657094 13.1757812,7.91855011 13.7070312,8.14250844 C14.2382812,8.36646677 14.7044271,8.67766469 15.1054688,9.07610219 C15.5065104,9.47453969 15.8203125,9.93938344 16.046875,10.4706334 C16.2734375,11.0018834 16.3867188,11.5721959 16.3867188,12.1815709 C16.3867188,12.4836543 16.3541667,12.7792272 16.2890625,13.0682897 C16.2239583,13.3573522 16.1315104,13.6320918 16.0117188,13.8925084 Z M18.0820312,18.9471959 L5.01171875,5.89250844 C4.89713542,5.77792511 4.83984375,5.63599802 4.83984375,5.46672719 C4.83984375,5.29745636 4.89713542,5.15552927 5.01171875,5.04094594 C5.13151042,4.92115427 5.27604167,4.86256052 5.4453125,4.86508158 C5.61458333,4.86776886 5.75651042,4.92636261 5.87109375,5.04094594 L18.9335937,18.0956334 C19.0533854,18.2154251 19.1158854,18.354748 19.1210937,18.5136022 C19.1263021,18.6724564 19.0638021,18.8169876 18.9335937,18.9471959 C18.8138021,19.0774043 18.671875,19.1399043 18.5078125,19.1346959 C18.34375,19.1294876 18.2018229,19.0669876 18.0820312,18.9471959 Z" id="Shape" fill="currentColor" fill-rule="nonzero"></path>
    </g>
</svg>
