<svg viewBox="0 0 24 24" version="1.1" xmlns="http://www.w3.org/2000/svg">
        <path d="M12,6.00181456 C12.5522847,6.00181456 13,6.44952981 13,7.00181456 L12.9996283,10.9998146 L16.9993717,11 C17.5516565,11 17.9993717,11.4477153 17.9993717,12 C17.9993717,12.5522847 17.5516565,13 16.9993717,13 L12.9996283,12.9998146 L13,16.9981854 C13,17.5504702 12.5522847,17.9981854 12,17.9981854 C11.4477153,17.9981854 11,17.5504702 11,16.9981854 L10.9996283,12.9998146 L7.00062826,13 C6.44834351,13 6.00062826,12.5522847 6.00062826,12 C6.00062826,11.4477153 6.44834351,11 7.00062826,11 L10.9996283,10.9998146 L11,7.00181456 C11,6.44952981 11.4477153,6.00181456 12,6.00181456 Z" fill="currentColor"></path>
</svg>
