<svg xmlns="http://www.w3.org/2000/svg" width="64" height="64" viewBox="0 0 64 64"><g fill="none" fill-rule="evenodd"><rect width="64" height="64"/><path fill="#6D32E4" fill-rule="nonzero" d="M23.032959,49.3085938 L40.2749023,49.3085938 C43.6356201,49.3085938 45.3078613,47.6038818 45.3078613,44.2269287 L45.3078613,29.4852295 C45.3078613,27.3908691 45.0643311,26.4816895 43.7655029,25.1503906 L34.8198242,16.0423584 C33.5859375,14.776001 32.5631104,14.5 30.744751,14.5 L23.032959,14.5 C19.6884766,14.5 18,16.2209473 18,19.5979004 L18,44.2269287 C18,47.6201172 19.6722412,49.3085938 23.032959,49.3085938 Z M23.1466064,46.6947021 C21.4743652,46.6947021 20.6138916,45.8017578 20.6138916,44.1782227 L20.6138916,19.6466064 C20.6138916,18.0393066 21.4743652,17.1138916 23.1628418,17.1138916 L30.3875732,17.1138916 L30.3875732,26.5466309 C30.3875732,28.5922852 31.4104004,29.598877 33.4398193,29.598877 L42.6939697,29.598877 L42.6939697,44.1782227 C42.6939697,45.8017578 41.8334961,46.6947021 40.1450195,46.6947021 L23.1466064,46.6947021 Z M33.7320557,27.1473389 C33.0826416,27.1473389 32.8391113,26.8875732 32.8391113,26.2381592 L32.8391113,17.6171875 L42.1906738,27.1473389 L33.7320557,27.1473389 Z"/></g></svg>
