<svg xmlns="http://www.w3.org/2000/svg" width="24" height="24" viewBox="0 0 64 64">
  <path fill="currentColor" d="M3.241 5.993c1.643-4.011 7.33-.96 9.548.443.557.353 1.175 1.08 1.768 1.328l2.918.177 1.236.29c1.352.32 2.62.663 3.715 1.304 6.694 3.921 11.015 7.91 15.03 14.52.836 1.377 1.274 2.89 1.945 4.426a113.88 113.88 0 0 0 3.182 6.729c.53 1.021.905 2.133 1.591 3.01.29.37 1.064.486 1.504.708 1.308.661 2.833 1.168 4.067 1.948 2.225 1.407 4.385 3.093 6.365 4.781.757.646 1.251 1.589 1.945 2.302v.354l-1.856.532c-1.373.355-2.56.262-3.89.62l-.722.198c-.631.174-1.319.352-1.931.42l.089.09c.504 1.41 3.21 2.583 4.42 3.452 1.517 1.09 2.943 2.402 4.067 3.896l1.15 1.15c.26.38.334.878.618 1.24V60c-.541-.192-.821-.668-1.238-.974-.842-.62-1.7-1.31-2.563-1.86-1.466-.93-3.164-1.46-4.686-2.39-.855-.522-1.678-1.167-2.476-1.77-.73-.552-1.549-1.605-2.033-2.39-.252-.41-.302-.907-.619-1.24.094-.724 1.014-.73 1.592-.974 2.03-.858 4.405-1.147 7.514-1.063-.096-.8-2.024-1.77-2.652-2.213l-1.526-1.085a39.916 39.916 0 0 0-2.364-1.571c-.613-.37-1.618-.666-2.355-.944l-.298-.119c-1.055-.446-3.376-.877-3.978-1.681-1.143-1.53-1.932-3.386-2.74-5.224-.812-1.843-1.838-3.782-2.653-5.666-.404-.935-.602-1.776-1.06-2.656-2.85-5.472-7.017-10.059-12.113-13.28-1.673-1.058-3.515-2.031-5.57-2.657-1.163-.353-2.557-.156-3.802-.442h-.795c-.697-.205-1.28-.946-1.857-1.329-1.067-.707-2.12-1.23-3.337-1.751l-.465-.196c-.534-.223-1.962-.75-2.475-.354-.3.099-.435.226-.53.53-.3.452-.026 1.155.177 1.594.567 1.236 1.388 1.99 2.121 3.01l.517.715c.528.733 1.07 1.518 1.428 2.296.998 2.17 1.44 4.58 2.387 6.728.364.825.89 1.765 1.415 2.48.425.577 1.184 1.014 1.414 1.77.483.758-.709 3.341-.972 4.162-.98 3.052-.818 7.277.23 10.045l.269.661c.412.997.875 2.041 1.976 2.308l.065-.05c.013-.007.035-.011.113-.039.262-2.12.353-4.166 1.06-5.843.443-1.049 1.285-1.768 1.857-2.656.42.242.417.95.619 1.417l.638 1.49c.328.754.67 1.513 1.042 2.228 1.297 2.496 2.72 4.893 4.332 7.083.572.778 1.341 1.622 2.033 2.302.294.288.654.437.884.796h.089v.09c-1.188-.407-1.911-1.608-2.83-2.303-1.77-1.34-3.861-3.324-5.04-5.223l-1.59-3.187v-.09c-.222.297-.152.622-.266 1.063-.5 1.949-.109 4.157-1.856 4.87-1.998.815-3.45-1.311-4.067-2.302-2.01-3.23-2.531-8.652-1.15-13.015.307-.97.339-2.156.885-2.921-.046-.351-.213-.574-.41-.767l-.286-.263a2.087 2.087 0 0 1-.277-.299c-.53-.725-.994-1.58-1.414-2.39-.832-1.603-1.39-3.49-2.034-5.223-.26-.704-.313-1.371-.619-2.037-.412-.9-1.115-1.797-1.722-2.617l-.223-.304c-.925-1.283-3.512-3.754-2.475-6.287Zm12.731 7.615c.319.309.808.517 1.06.885.19.276.223.566.443.797.002.943-.248 1.561-.796 1.948l-.088.088-.884-1.86c-.383-.547-.929-.957-1.238-1.593h-.089v-.089c.416-.09.812-.164 1.325-.176h.267Z"/>
</svg>
