<svg xmlns="http://www.w3.org/2000/svg" width="24" height="24" viewBox="0 0 64 64">
  <path d="M43.538 4.796h.32c5.084.061 9.602 1.898 12.856 6.075 3.032 3.892.407 15.443-5.114 24.91l-.152.257h.05c.637-.021 1.408-.113 2.317-.288l.348-.069c1.244-.258 2.22-.224 3.102.45 1.392 1.064 1.247 2.578.462 3.767-.7 1.06-2.145 2.142-3.788 2.907-1.597.745-4.096 1.159-6.128 1.065l-.1-.006-.342-.032-.097.823-.031-.005-.005.231-.033.857-.044.823c-.506 8.19-2.817 11.134-8.101 12.347l-.258.058c-3.596.773-6.04-.559-7.294-3.206a11.758 11.758 0 0 1-.326-.803l-.256-.713-.165-.496c-.43-1.265-.629-2.894-.75-5.435l-.053-1.302-.048-1.63-.01.006c-1.878.828-3.969.856-6.105.361l-.267-.064c-1.059-.266-2.076-.766-2.739-1.538l-.054-.068c-2.125 1.759-4.613 1.625-6.695-.286l-.173-.163c-1.612-1.574-3.017-4.225-4.319-7.782C7.63 30.61 5.898 22.853 5.754 19.925 5.29 10.442 9.88 5.788 17.304 5.538c2.379-.08 4.866.295 7.328.966.616.168 1.17.336 1.649.495l.183.061.089-.053c1.812-1.051 3.922-1.611 6.318-1.631l.402.002a24.94 24.94 0 0 1 3.443.281l.422.072.07-.024c1.459-.457 3.976-.9 6.33-.911Zm.237 1.445h-.39a21.41 21.41 0 0 0-4.676.567c-.497.117-.94.24-1.293.355l-.18.06-.136.05c-.013-.003-.02-.004-.068.03a17.029 17.029 0 0 0-3.812-.484c-2.62-.043-4.788.593-6.538 1.792l-.396-.142-.374-.128a29.648 29.648 0 0 0-1.648-.495c-2.333-.63-4.683-.979-6.896-.898-6.603.24-10.509 4.211-10.081 12.822.123 2.74 1.82 10.361 3.695 15.477 1.231 3.358 2.548 5.841 3.958 7.216 1.83 1.785 3.87 1.698 5.665-.469a117.621 117.621 0 0 1 3.086-3.553l.414-.456.66-.716c.875.47 1.85.752 2.88.793l.1.002.011.096-.326.397-.558.693-.12.133c-.302.314-.612.48-1.291.681l-.336.092-.188.048-.423.098-.692.15c-1.801.414-2.692 1.2-2.093 2.318.34.632 1.243 1.129 2.169 1.36 2.681.675 5.219.424 7.248-1.467l-.004.828v.811c.017 4.546.273 8.193.741 9.37 1.251 3.15 3.125 4.735 7.056 3.888 3.848-.83 5.467-2.52 6.103-6.24l1.175-9.348c1.807.637 5.026.322 7.05-.62 1.407-.66 2.634-1.58 3.156-2.365.904-1.363-.12-2.213-1.818-1.924l-.478.094c-2.807.547-4.423.384-5.14-.137l.467-.73c5.775-9.196 8.692-21.135 6.034-24.547-2.954-3.797-7.05-5.454-11.713-5.502ZM32.874 8.337l.32.001c4.948.082 8.802 2.291 11.603 5.887a17.626 17.626 0 0 1 2.35 3.997l.084.21c.055.138.104.271.149.398l.049.146-.258-.025c-2.894-.25-4.77.421-5.65 1.99-.81 1.45-.64 3.44.234 5.899a26.64 26.64 0 0 0 1.12 2.636l.31.626.298.57 1.565 2.911.16.368c.206.448.44.863.707 1.265l.043.062c.18.252.702.93 1.044 1.409l.105.15-.261.083a3.63 3.63 0 0 0-.313.123c-1.113.502-1.713 1.539-1.669 3.29l.007.168-1.331 10.595c-.527 3.077-1.68 4.28-4.92 4.978-3.042.656-4.315-.42-5.325-2.962-.387-.973-.622-4.59-.632-9.046v-.75c.001-.379.004-.763.009-1.15l.018-1.176.028-1.193a.734.734 0 0 0-.035-.248c-.137-1.043-.812-2.053-1.755-2.447-.56-.233-1.058-.323-1.54-.203l.086-.301c.065-.215.146-.461.246-.748l.257-.721.238-.648.12-.296.072-.166.382-.858.216-.501c1.176-2.849 1.42-5.625.418-10.23-.614-2.86-2.885-3.741-5.81-3.064a11.498 11.498 0 0 0-3.035 1.19c.021-.255.048-.525.081-.81.185-1.577.528-3.14 1.065-4.59 1.581-4.27 4.484-6.784 9.15-6.819Zm-3.66 30.46c.443-.498.6-.512 1.13-.292.665.278 1.087 1.423.691 1.978-1.73 2.437-4.102 2.844-6.767 2.174l-.15-.041a3.624 3.624 0 0 1-.79-.348l-.077-.05.13-.056a5.16 5.16 0 0 1 .755-.224l.798-.173.156-.036.426-.104.374-.104c1.01-.297 1.558-.626 2.092-1.23l.85-1.05.354-.42.028-.025Zm-11.79-30.33c2.04-.075 4.246.252 6.444.845.512.139.996.284 1.442.43-1.288 1.273-2.284 2.925-3.01 4.886-.584 1.575-.952 3.253-1.15 4.941a21.7 21.7 0 0 0-.157 2.392v.312l.007.187.04.723.047.948c.062 1.557.033 2.984-.135 4.473l-.112.892c-.303 2.765.807 5.317 2.66 6.902l-.936 1.025c-.827.915-1.672 1.877-2.506 2.86l-.753.893c-1.166 1.328-2.147 1.328-3.304.2-1.206-1.177-2.434-3.491-3.592-6.652-1.782-4.862-3.412-12.104-3.594-14.838l-.026-.553c-.266-7.482 2.946-10.66 8.635-10.867ZM47.98 38.16l.115.09.127.088c1.137.736 3.116.906 6.172.314l.384-.077-.03.03c-.487.45-1.262.967-2.124 1.371-2.023.941-6.205.988-6.233.513-.073-1.296.204-1.807.767-2.06.087-.04.183-.075.302-.111l.48-.142.04-.016ZM25.956 20.846c2.195-.508 3.58.029 3.982 1.905.968 4.446.706 6.927-.448 9.59l-.557 1.26-.136.334-.162.438-.297.824c-.147.415-.263.762-.353 1.064l-.082.286h-.086c-3.228-.065-5.854-3.205-5.47-6.857l.114-.914c.204-1.798.215-3.498.111-5.403l-.049-.863-.002-.093.17-.135c.175-.129.404-.274.667-.421a10.29 10.29 0 0 1 2.598-1.015ZM43.4 7.76c4.386-.038 8.176 1.428 10.89 4.916 2.143 2.751-.688 14.204-6.199 22.929l-.25-.355c1.23-1.994 1.381-3.75 1.023-6.947l-.126-1.086-.053-.508c-.052-.539-.07-.906-.064-1.293l.012-.373c.014-.316.039-.61.078-.947l.07-.543.225-1.526c.087-.67.127-1.227.117-1.807.237-.45-.03-1.273-.572-2.58a19.14 19.14 0 0 0-2.555-4.348c-1.749-2.246-3.888-4.006-6.414-5.12 1.198-.248 2.49-.4 3.818-.412Zm-.551 13.924c.58-1.036 2.072-1.499 4.755-1.16-.007.492-.057.994-.15 1.63l-.179 1.202c-.084.598-.132 1.05-.156 1.542l-.016.45c-.009.402.004.769.046 1.255l.052.532.153 1.338c.283 2.525.22 3.969-.483 5.395a7.553 7.553 0 0 1-.405-.836l-.074-.152-1.59-2.965-.337-.652a26.507 26.507 0 0 1-1.277-2.933c-.741-2.081-.878-3.684-.34-4.646Zm-14.913-.133c-.764-.11-1.441.053-1.502.507-.062.468.627 1.194 1.309 1.289.679.094 1.437-.422 1.5-.896.061-.45-.543-.79-1.307-.9Zm18.389.001c-.068-.51-.652-.623-1.501-.506-.765.105-1.373.447-1.31.898.068.474.825.988 1.503.895.708-.098 1.376-.769 1.308-1.287Z"/>
</svg>
