<svg xmlns="http://www.w3.org/2000/svg" width="24" height="24" viewBox="0 0 64 64">
  <g fill="currentColor">
    <path d="M33.132 7c5.357 1.49 10.238 5.244 12.261 9.833 3.095 7.45 2.381 16.865-1.012 22.467-2.857 4.589-7.261 7.032-12.32 6.973-7.857-.06-14.226-6.317-14.286-14.184 0-7.866 6.19-14.362 14.286-14.362 1.309 0 3.197.182 5.34 1.075 0 0-1.54-.912-5.497-1.525-11.368-1.49-24.783 7.124-21.688 26.97 4.286 7.627 12.5 12.812 21.845 12.752C45.81 56.94 57.059 45.677 57 31.851 57 18.62 46.226 7.358 33.132 7Z"/>
    <path d="M42.477 17.548c-1.905-3.993-5.833-7.151-10.655-8.403-1.071-.298-2.202-.417-3.452-.476-1.845 0-3.63.238-5.476.715-4.583 1.37-7.797 4.052-9.702 6.138-2.44 2.8-4.047 5.721-5 8.641 0 .06-.059.12-.059.238-.06.239-.298.954-.298 1.133-.06.119-.06.298-.119.417l-.178.715c0 .06 0 .12-.06.179-1.547 7.688 1.023 14.586 2.571 17.149.387.641.705 1.176 1.023 1.666-3.511-19.07 6.584-28.171 18.072-28.41 6.012-.119 12.023 2.324 14.94 7.211-.179-2.682-.358-4.172-1.607-6.913Z" opacity=".75"/>
  </g>
</svg>
