<svg xmlns="http://www.w3.org/2000/svg" width="24" height="24" viewBox="0 0 64 64">
  <path d="M10.64 10.64c11.52-11.52 30.2-11.52 41.72 0s11.52 30.2 0 41.72-30.2 11.52-41.72 0-11.52-30.2 0-41.72Zm20.868 1.04c-10.918 0-19.768 8.854-19.768 19.776s8.85 19.775 19.768 19.775c10.918 0 19.768-8.853 19.768-19.775 0-10.922-8.85-19.775-19.768-19.775Z" opacity=".07"/>
  <path d="M31.508 11.68c10.918 0 19.768 8.854 19.768 19.776 0 8.943-5.934 16.5-14.078 18.944.017-.185.025-.373.025-.563 0-1.684-.636-3.215-1.647-4.314l-3.201 1.229a2.313 2.313 0 0 0 2.594 1.683l1.004 1.409a3.925 3.925 0 0 1-4.487-1.308 3.904 3.904 0 0 1-4.357 1.351l1.026-1.437c.073.007.145.014.217.014a2.315 2.315 0 0 0 2.218-1.676l-3.1-1.221c-.996 1.105-1.61 2.615-1.61 4.277 0 .196.008.39.025.582-8.188-2.416-14.165-9.995-14.165-18.97 0-10.922 8.85-19.775 19.768-19.775Zm8.432 10.896a12.262 12.262 0 0 1 2.897 4.234l-1.185.31a11.018 11.018 0 0 0-2.868-3.951c-.983.664-1.843 1.698-2.37 2.998-1.185 2.89-.325 5.99 1.936 6.915 2.254.925 5.05-.665 6.236-3.562a7.23 7.23 0 0 0 .49-1.872 14.071 14.071 0 0 0-2.701-5.144c-.788-.253-1.626-.21-2.435.072Zm-19.386.008a14.01 14.01 0 0 0-2.478 4.551c.03.773.203 1.575.528 2.37 1.185 2.89 3.98 4.487 6.235 3.562 2.261-.925 3.128-4.017 1.936-6.914-.549-1.344-1.452-2.406-2.478-3.064a11.1 11.1 0 0 0-2.933 3.989l-1.192-.311a12.414 12.414 0 0 1 2.933-4.241c-.853-.268-1.734-.268-2.55.058Zm.116 6.032 4.22.672.643 1.937-1.937 1.293-3.547-1.293-.65-1.286 1.271-1.323Zm21.827 0 1.279 1.323-.65 1.286-3.555 1.293-1.936-1.293.65-1.937 4.212-.672Z" opacity=".3"/>
  <path d="M38.625 51.795c-.477 1.864-1.207 3.497-2.139 4.783a25.412 25.412 0 0 1-5.007.498c-1.611 0-3.186-.151-4.71-.433-.947-1.272-1.684-2.897-2.154-4.747 2.153.73 4.458 1.12 6.864 1.12 2.507 0 4.906-.426 7.146-1.221Zm-28.438-18.12c.693 7.333 5.1 13.59 11.314 16.87a24.838 24.838 0 0 0-.101 2.326c0 .817.036 1.63.107 2.439-6.213-3.516-10.627-9.772-11.32-17.105a57 57 0 0 1-2.026-.796c1.206-2.122 2.874-3.735 4.88-4.593a9.63 9.63 0 0 0 3.343 1.217c-.781.423-1.406 1.12-1.774 2a13.835 13.835 0 0 0-1.401-.32c.244.726.482 1.458.715 2.202-2.12.688-3.685 2.68-3.685 5.023 0 2.627 2.113 4.797 4.755 5.093a4.41 4.41 0 0 0-.63 1.47c-2.614-.747-4.688-3.145-4.688-5.848 0-1.926 1.135-3.643 2.688-4.318a104.46 104.46 0 0 1-1.776-.265c.03-.19.058-.382.083-.573C7.285 39.277 5 42.064 5 45.308c0 4.058 3.359 7.417 7.417 7.417 4.052 0 7.411-3.36 7.411-7.417 0-3.244-2.285-6.032-5.67-6.811.024.191.052.382.083.573-.595.094-1.187.182-1.776.265 1.553.675 2.689 2.392 2.689 4.318 0 2.703-2.075 5.1-4.689 5.848a4.41 4.41 0 0 0-.63-1.47c2.642-.296 4.755-2.466 4.755-5.093 0-2.343-1.565-4.335-3.685-5.023.234-.744.472-1.476.715-2.202-.483.085-.95.191-1.401.32-.368-.88-.993-1.577-1.774-2a9.633 9.633 0 0 0 3.343-1.217c2.005.858 3.673 2.47 4.88 4.593-.677.281-1.355.546-2.026.796-.694 7.333-5.107 13.589-11.32 17.105.07-.78.107-1.563.107-2.38 0-.78-.03-1.562-.102-2.33 6.213-3.281 10.62-9.538 11.314-16.872.671-.249 1.35-.514 2.026-.795-1.206-2.122-2.874-3.735-4.88-4.593a9.63 9.63 0 0 1-3.343 1.217c.78.423 1.406 1.12 1.774 2 .45-.129.918-.235 1.4-.32-.243-.726-.48-1.458-.714-2.202 2.12-.688 3.685-2.68 3.685-5.023 0-2.627-2.113-4.797-4.755-5.093a4.41 4.41 0 0 0 .63-1.47c2.614.747 4.688 3.145 4.688 5.848 0 1.926-1.136 3.643-2.688 4.318a95.3 95.3 0 0 1 1.776.265c-.03.19-.058.382-.083.573 3.386-.78 5.671-3.567 5.671-6.811 0-4.058-3.359-7.417-7.411-7.417C8.359 14.225 5 17.584 5 21.642c0 3.244 2.285 6.032 5.67 6.811a17.867 17.867 0 0 0-.082-.573 104.46 104.46 0 0 1 1.776-.265c-1.553-.675-2.688-2.392-2.688-4.318 0-2.703 2.074-5.1 4.688-5.848a4.41 4.41 0 0 0 .63 1.47c-2.642.296-4.755 2.466-4.755 5.093 0 2.343 1.565 4.335 3.685 5.023a111.52 111.52 0 0 1-.715 2.202c.483.085.95.191 1.401.32.368-.88.993-1.577 1.774-2a9.63 9.63 0 0 1-3.344-1.217c-2.005.858-3.673 2.47-4.88 4.593a57 57 0 0 0 2.027.795c.693 7.334 5.107 13.591 11.32 16.871a24.98 24.98 0 0 0-.102 2.332c0 .816.037 1.598.108 2.379h-1.739Zm2.22-13.623a3.168 3.168 0 1 1-.002 6.337 3.168 3.168 0 0 1 .001-6.337Z"/>
</svg>
