
<svg xmlns="http://www.w3.org/2000/svg" version="1.1" xmlns:xlink="http://www.w3.org/1999/xlink" preserveAspectRatio="none" x="0px" y="0px" width="550px" height="550px" viewBox="0 0 550 550">
<defs>
<g id="Layer0_0_FILL">
<path fill="#FFFFFF" stroke="none" d="
M 118.15 355.8
Q 116.4 355.25 114.7 354.5 113.2 353.8 111.75 353 110.8 352.45 109.95 352 108.45 350.9 107.3 349.85 107.0666015625 349.633203125 106.85 349.4 106.4166015625 348.983203125 106.05 348.55 106.05 349.05 106.15 349.6 106.2970703125 350.850390625 106.85 352.05 107.0486328125 352.4767578125 107.3 352.9 108.3 354.5 109.95 356.05 111.4 357.25 113.5 358.4 114.1 358.7 114.7 359.1 121.9 362.7 131.7 362.7 142.3 362.7 149.85 358.4 151 357.8 152 357.1 153.55 356.05 154.7 354.9 156.9 352.45 157.4 349.7 157.440625 349.29375 157.45 348.9
L 157.45 348.6
Q 156.3 349.9 154.7 351.15 154.3 351.35 153.85 351.65 153 352.2 152 352.8 151.85 352.9 151.65 353 151.1 353.3 150.5 353.65 148.95 354.45 147.25 355.1 147.1 355.2 146.9 355.25 145.45 355.8 143.8 356.25 143.3 356.4 142.75 356.6 142 356.75 141.2 356.9 140.2 357.1 139.15 357.25 138.9 357.25 138.7 357.35 137.1 357.55 135.3 357.65 135.15 357.65 135 357.75 133.55 357.8 132 357.8 131.95 357.8 131.8 357.8 131.55 357.8 131.4 357.8 130.65 357.8 129.95 357.8 128.6 357.75 127.3 357.65 126.95 357.55 126.65 357.55 125.15 357.4 123.7 357.2 123.45 357.1 123.3 357.1 122 356.9 120.75 356.6 119.45 356.2 118.15 355.8
M 138.7 319.6
Q 137.1 319.8 135.3 319.95
L 135.3 357.65
Q 137.1 357.55 138.7 357.35
L 138.7 319.6
M 135.3 319.95
Q 133.7 320.05 132 320.05
L 132 357.8
Q 133.55 357.8 135 357.75 135.15 357.65 135.3 357.65
L 135.3 319.95
M 84.7 331.85
L 84.7 333.3 90.9 338.95 90.9 352.5 97.1 359.05 97.1 338.4 84.7 325.8 84.7 331.85
M 84.7 339.4
L 84.7 346 85.75 347.15 84.7 339.4
M 90.9 352.5
L 85.75 347.15 84.7 346 79.05 349.05 97.1 359.05 90.9 352.5
M 120.75 318.8
L 120.75 356.6
Q 122 356.9 123.3 357.1
L 123.3 319.35
Q 122 319.1 120.75 318.8
M 104.55 354.9
Q 104.55 356.959765625 105.4 358.8 107.137109375 362.6001953125 112.4 365.55 120.45 370.15 131.65 370.15
L 131.7 370.15
Q 142.9 370.15 150.85 365.55 158.9 361.15 158.9 354.9 158.9 352.2 157.45 349.9 157.4 349.75 157.4 349.7 156.9 352.45 154.7 354.9 153.55 356.05 152 357.1 151 357.8 149.85 358.4 142.3 362.7 131.7 362.7 121.9 362.7 114.7 359.1 114.1 358.7 113.5 358.4 111.4 357.25 109.95 356.05 108.3 354.5 107.3 352.9 107.0486328125 352.4767578125 106.85 352.05 106.2970703125 350.850390625 106.15 349.6 104.55 352.05 104.55 354.9
M 103.6 331.9
L 103.6 320.4 100.15 320.4 95.3 328 103.6 331.9
M 103.6 341.95
Q 103.6 341.8 103.6 341.65
L 103.6 335.1 97.1 338.4 97.1 359.05 97.1 363.8 105.4 358.8
Q 104.55 356.959765625 104.55 354.9 104.55 352.05 106.15 349.6 106.05 349.05 106.05 348.55 103.6 345.55 103.6 341.95
M 87.2 324.15
L 85.6 325.15 84.7 325.8 97.1 338.4 103.6 335.1 103.6 331.9 95.3 328 88.65 324.85 87.2 324.15
M 100.15 320.4
L 96.25 317.05 88.15 324.5 88.65 324.85 95.3 328 100.15 320.4
M 118.15 318.1
Q 116.4 317.5 114.7 316.8
L 114.7 354.5
Q 116.4 355.25 118.15 355.8
L 118.15 318.1
M 120.75 318.8
Q 119.45 318.5 118.15 318.1
L 118.15 355.8
Q 119.45 356.2 120.75 356.6
L 120.75 318.8
M 114.7 316.8
Q 113.2 316.15 111.75 315.3 110.8 314.75 109.95 314.3
L 109.95 352
Q 110.8 352.45 111.75 353 113.2 353.8 114.7 354.5
L 114.7 316.8
M 103.6 320.4
L 103.6 315.2 97.35 316.05 97.1 316.25 96.25 317.05 100.15 320.4 103.6 320.4
M 103.6 312.8
L 103.6 315.2 103.6 320.4 103.6 331.9 103.6 335.1 103.6 341.65
Q 103.6 341.8 103.6 341.95 103.6 345.55 106.05 348.55 106.4166015625 348.983203125 106.85 349.4 107.0666015625 349.633203125 107.3 349.85
L 107.3 312.15
Q 103.7 308.8 103.6 304.5
L 103.6 312.8
M 109.95 314.3
L 109.9 314.2
Q 108.45 313.2 107.3 312.15
L 107.3 349.85
Q 108.45 350.9 109.95 352
L 109.95 314.3
M 143.8 318.5
Q 142.5 318.9 141.2 319.1
L 141.2 356.9
Q 142 356.75 142.75 356.6 143.3 356.4 143.8 356.25
L 143.8 318.5
M 141.2 319.1
Q 140.2 319.35 139.15 319.5 138.9 319.5 138.7 319.6
L 138.7 357.35
Q 138.9 357.25 139.15 357.25 140.2 357.1 141.2 356.9
L 141.2 319.1
M 127.3 319.9
Q 126.95 319.8 126.65 319.8
L 126.65 357.55
Q 126.95 357.55 127.3 357.65 128.6 357.75 129.95 357.8
L 129.95 320.05
Q 128.6 319.95 127.3 319.9
M 131.4 320.05
Q 130.65 320.05 129.95 320.05
L 129.95 357.8
Q 130.65 357.8 131.4 357.8 131.55 357.8 131.8 357.8 131.95 357.8 132 357.8
L 132 320.05
Q 131.95 320.05 131.8 320.05 131.7 320.05 131.65 320.05 131.55 320.05 131.4 320.05
M 123.7 319.4
Q 123.45 319.35 123.3 319.35
L 123.3 357.1
Q 123.45 357.1 123.7 357.2 125.15 357.4 126.65 357.55
L 126.65 319.8
Q 125.15 319.65 123.7 319.4
M 153.85 314.05
Q 153 314.6 152 315.15
L 152 352.8
Q 153 352.2 153.85 351.65 154.3 351.35 154.7 351.15
L 154.7 313.45
Q 154.25 313.75 153.85 314.05
M 160.05 316.8
L 160.05 309.5 160.05 304.65
Q 159.9439453125 308.222265625 157.3 311.15 156.2216796875 312.352734375 154.7 313.45
L 154.7 351.15
Q 156.3 349.9 157.45 348.6 160.05 345.6 160.05 341.95 160.05 341.8 160.05 341.7
L 160.05 316.8
M 151.65 315.3
Q 149.55 316.5 147.25 317.35
L 147.25 355.1
Q 148.95 354.45 150.5 353.65 151.1 353.3 151.65 353 151.85 352.9 152 352.8
L 152 315.15
Q 151.85 315.2 151.65 315.3
M 147.25 317.35
Q 147.1 317.45 146.9 317.5 145.45 318.05 143.8 318.5
L 143.8 356.25
Q 145.45 355.8 146.9 355.25 147.1 355.2 147.25 355.1
L 147.25 317.35
M 160.05 304.65
L 160.05 304.1
Q 160.05 303.7 160.05 303.4 159.9951171875 302.796875 159.85 302.2 159.507421875 300.6244140625 158.6 299.1 158.04140625 302.2216796875 155.35 304.8 153.97109375 306.1830078125 152 307.4 151.4 307.7 150.7 308.1 150.2 308.4 149.55 308.7 148.4 309.3 147.25 309.75 145.6 310.45 143.8 311 142.5 311.4 141.2 311.7 140 311.9 138.7 312.15 137.1 312.4 135.3 312.55 133.7 312.6 132 312.6 131.95 312.6 131.8 312.6 130.9 312.6 129.95 312.6 128.6 312.55 127.3 312.45 126.95 312.4 126.65 312.4 124.9 312.15 123.3 311.9 122 311.6 120.75 311.3 119.45 311 118.15 310.55 116.4 309.9 114.7 309.15 113.7 308.6 112.7 308.1 109.2 306.15 107.3 303.8 106.976953125 303.3939453125 106.7 302.95 105.476171875 301.129296875 105.15 299.05 103.75 301.25 103.6 303.8 103.6 303.95 103.6 304.1
L 103.6 304.5
Q 103.7 308.8 107.3 312.15 108.45 313.2 109.9 314.2
L 109.95 314.3
Q 110.8 314.75 111.75 315.3 113.2 316.15 114.7 316.8 116.4 317.5 118.15 318.1 119.45 318.5 120.75 318.8 122 319.1 123.3 319.35 123.45 319.35 123.7 319.4 125.15 319.65 126.65 319.8 126.95 319.8 127.3 319.9 128.6 319.95 129.95 320.05 130.65 320.05 131.4 320.05 131.55 320.05 131.65 320.05 131.7 320.05 131.8 320.05 131.95 320.05 132 320.05 133.7 320.05 135.3 319.95 137.1 319.8 138.7 319.6 138.9 319.5 139.15 319.5 140.2 319.35 141.2 319.1 142.5 318.9 143.8 318.5 145.45 318.05 146.9 317.5 147.1 317.45 147.25 317.35 149.55 316.5 151.65 315.3 151.85 315.2 152 315.15 153 314.6 153.85 314.05 154.25 313.75 154.7 313.45 156.2216796875 312.352734375 157.3 311.15 159.9439453125 308.222265625 160.05 304.65
M 79.05 349.05
L 79.05 353.8 97.1 363.8 97.1 359.05 79.05 349.05
M 107.5 291.15
Q 108.048046875 293.588671875 110.05 295.6 111.705859375 297.326171875 114.35 298.75 121.7 302.9 131.85 302.9 142 302.9 149.2 298.75 155.1 295.7 156.3 291.3 156.55 290.3 156.55 289.15 156.55 287.2302734375 155.7 285.5 154.5259765625 283.0892578125 151.7 281.05 151.15 285.1 145.75 287.95 139.9 291.3 131.65 291.3 129.4515625 291.3 127.4 291.05 123.087890625 290.5724609375 119.5 289 118.3595703125 288.5416015625 117.3 287.95 112.25 285.2 111.65 281.2 110.7716796875 281.906640625 110.05 282.65 107.3 285.5984375 107.3 289.15 107.3 290.15 107.5 291.15
M 107.5 291.15
Q 107.0611328125 291.658984375 106.7 292.2 105.4908203125 293.9578125 105.15 295.95 105 296.7583984375 105 297.6 105 298.35 105.15 299.05 105.476171875 301.129296875 106.7 302.95 106.976953125 303.3939453125 107.3 303.8 109.2 306.15 112.7 308.1 113.7 308.6 114.7 309.15 116.4 309.9 118.15 310.55 119.45 311 120.75 311.3 122 311.6 123.3 311.9 124.9 312.15 126.65 312.4 126.95 312.4 127.3 312.45 128.6 312.55 129.95 312.6 130.9 312.6 131.8 312.6 131.95 312.6 132 312.6 133.7 312.6 135.3 312.55 137.1 312.4 138.7 312.15 140 311.9 141.2 311.7 142.5 311.4 143.8 311 145.6 310.45 147.25 309.75 148.4 309.3 149.55 308.7 150.2 308.4 150.7 308.1 151.4 307.7 152 307.4 153.97109375 306.1830078125 155.35 304.8 158.04140625 302.2216796875 158.6 299.1 158.7 298.35 158.7 297.6 158.7 294.2 156.3 291.3 155.1 295.7 149.2 298.75 142 302.9 131.85 302.9 121.7 302.9 114.35 298.75 111.705859375 297.326171875 110.05 295.6 108.048046875 293.588671875 107.5 291.15
M 112.05 277.5
Q 111.9873046875 277.691796875 111.9 277.85 111.6 278.9068359375 111.6 280.05 111.6 280.65 111.65 281.2 112.25 285.2 117.3 287.95 118.3595703125 288.5416015625 119.5 289 123.087890625 290.5724609375 127.4 291.05 129.4515625 291.3 131.65 291.3 139.9 291.3 145.75 287.95 151.15 285.1 151.7 281.05 151.8 280.5 151.8 280.05 151.8 278.4849609375 151.1 277.1 150.81328125 276.45703125 150.35 275.85 150.5 276.55 150.5 277.3 150.5 277.38984375 150.5 277.45 150.3849609375 281.8064453125 144.8 284.55 139.847265625 287.5767578125 132.9 287.8 132.291796875 287.85 131.65 287.85 127.1392578125 287.85 123.35 286.75 120.6115234375 285.9416015625 118.25 284.55 112.9 281.75 112.9 277.3 112.9 276.45 113.1 275.7 112.827734375 276.0541015625 112.6 276.4
L 112.05 277.5
M 120.95 268.6
Q 119.5556640625 269.1388671875 118.25 269.85 115.251171875 271.628515625 113.9 273.75
L 113.35 274.9
Q 113.2 275.31171875 113.1 275.7 112.9 276.45 112.9 277.3 112.9 281.75 118.25 284.55 120.6115234375 285.9416015625 123.35 286.75 127.1392578125 287.85 131.65 287.85 132.291796875 287.85 132.9 287.8 139.847265625 287.5767578125 144.8 284.55 150.3849609375 281.8064453125 150.5 277.45 150.5 277.38984375 150.5 277.3 150.5 276.55 150.35 275.85 149.8623046875 273.8994140625 148.1 272.2 146.803515625 270.9583984375 144.8 269.85 139.4 266.8 131.65 266.8 125.66875 266.8 120.95 268.6 Z"/>
</g>

<path id="Layer0_0_1_STROKES" stroke="#000000" stroke-width="1" stroke-linejoin="bevel" stroke-linecap="butt" fill="none" d="
M 91.2 205.8
L 91.2 222.15 91.75 222.55 98.8 218.35 98.8 206.1 95.9 207.85 88.75 203.65 142 172.6 142 163.1 142 163.05
Q 137.35 154.4 137.35 144.65 137.35 135 142 126.4
L 142 99.75
Q 137.5 91.25 137.5 81.75 137.5 57.1 168 39.55 198.45 22 241.7 22 284.8 22 315.4 39.55 337.35 52.2 343.5 68.6 345.85 74.85 345.85 81.75 345.85 88.65 343.5 95.1
L 343.5 128.1
Q 347.25 135.9 347.25 144.65 347.25 153.4 343.5 161.3
L 343.5 173.6
Q 343.7 175.6 343.7 177.75 343.7 178.6 343.7 179.45
L 384.15 202.85 388.6 200.35 395.1 204.1 392 205.95 392 219.7 395.2 221.55 395.2 313.5 532.4 392.85 526.25 396.55 526.35 408.5 545.25 419.45 545.25 430.45 380.4 528 246.5 450.45 181.6 488.9 181.6 488.75 4.8 386.35 4.8 375.55 24.2 364.05 24.2 351.95 19 348.9 31.1 341.75 85.6 309.6 88 310.95 88 220.35 91.2 222.15
M 343.5 95.1
Q 339.95 104.35 331.4 112.55 330.9 112.95 330.45 113.4 324.2 119 315.4 124.05 306.55 129.1 296.7 132.7 272.3 141.6 241.7 141.6 211.05 141.6 186.75 132.75 176.8 129.1 168 124.05 160.25 119.6 154.5 114.7 153.5 113.95 152.65 113.1 145.7 106.8 142 99.75
M 327 108.95
Q 326.65 109.25 326.25 109.7 319.95 115.85 310.55 121.2 301.05 126.65 290.25 130.3 268.55 137.6 241.75 137.6 214.95 137.6 193.35 130.3 182.45 126.65 172.95 121.2 164.55 116.4 158.55 110.95 157.7 110.2 157.05 109.4 144.45 97.1 144.45 81.7 144.45 58.55 172.95 42.15 201.45 25.75 241.75 25.75 282.05 25.75 310.55 42.15 339.05 58.55 339.05 81.7 339.05 96.75 327 108.95 322.35 105.35 316.5 102 285.8 84.3 242.3 84.3 198.85 84.3 168.15 102 161.95 105.6 157.05 109.4
M 343.5 128.1
L 343.5 150.45
Q 341.8 158.5 336.5 165.7 329.1 175.7 314.7 183.95 285.05 200.95 243.15 200.95 201.3 200.95 171.65 183.95 155.4 174.7 148.15 163.35 142.7 154.9 142.1 145.35 142 144.1 142 142.9 142 141.65 142.1 140.5
L 142 126.4
M 343.5 161.3
Q 341.35 165.8 337.9 170.1 330.3 179.45 316.5 187.4 285.8 205.15 242.3 205.15 198.85 205.15 168.15 187.4 153.6 179.05 145.9 169 143.6 166.1 142 163.1
M 142 172.6
L 142 180.65 142 183.95
Q 143.15 191.2 147.35 197.8 148.5 199.75 150.05 201.55 151.35 203.25 152.9 204.95 157.95 210.4 165.4 215.3 166.3 215.95 167.35 216.6 169.2 217.75 171.1 218.8 175.85 221.55 181 223.95 183.15 224.85 185.45 225.8 186.45 226.25 187.6 226.6 194.85 229.45 202.9 231.45 209.35 233 216.3 234.05 218.15 234.35 220.1 234.6 220.55 234.6 221 234.65 223.3 234.95 225.65 235.2 233.85 235.9 242.6 235.9 250.85 235.9 258.75 235.25 259.15 235.2 259.6 235.2 270.8 234.1 281.05 231.75 289 229.85 296.45 227.1 299.9 225.8 303.25 224.3 308.95 221.8 314.15 218.8 315.45 218.05 316.7 217.35 317.65 216.65 318.75 216.05 323.6 212.9 327.55 209.55 328.95 208.4 330.25 207.15 331.85 205.55 333.3 203.95 335.3 201.65 337 199.25 339.75 195.15 341.4 190.75 342.05 189.1 342.5 187.3 342.85 185.8 343.2 184.25 343.35 183.1 343.5 181.95
L 343.5 179.35 343.5 173.6
M 343.2 184.25
L 343.5 184.5 343.5 181.95
Q 343.65 180.75 343.7 179.45
L 343.5 179.35
M 342.5 187.3
L 358.35 196.6 376.65 207.25 384.15 202.85
M 376.65 207.25
L 373.2 209.25 323.05 238.35 303.2 249.9 301.75 250.75 250.1 280.7 247.2 282.4 243.9 284.3 241.3 285.85 236.75 288.5 240.2 290.5 244.75 293.1 377.95 214.3 385.3 209.9 392 205.95
M 392 219.7
L 385.3 223.65 377.95 227.9 240.75 309.05 240.75 309.1 244.05 311.05 244.05 310.95 255 304.45 258.3 302.55 268.1 296.7 270.7 295.2 280.05 289.65 288.25 284.85 310.55 271.65 316.9 267.9 319.65 266.2 324.9 263.15 349.75 248.45 352.85 246.7 374.75 233.65 380.55 230.2 392.85 223 395.2 221.55
M 377.95 227.9
L 377.95 214.3
M 385.3 223.65
L 385.3 209.9
M 337 199.25
L 345.5 204.2 354.9 198.6 341.4 190.75
M 330.25 207.15
L 332.75 211.7 345.5 204.2
M 327.55 209.55
L 329.8 213.45 332.75 211.7
M 333.3 203.95
L 339.05 207.25
M 374.75 233.65
L 374.75 285.05 374.75 292.1 374.75 298.95 378.2 300.3 378.2 307.6 378.2 317.65 370.6 322.05 367.8 320.4 364.8 318.7 355.95 323.9 347.8 328.75 265.75 377.2 265.75 381.9 258.3 386.8 258.3 394.15 261.85 396.25 378.35 327.15 379.35 326.6 385.15 323.15 380.55 320.55 380.55 319.4 380.55 230.2
M 352.85 246.7
L 374.75 285.05
M 358.35 196.6
L 354.9 198.6 373.2 209.25
M 349.75 248.45
L 374.75 292.1
M 392.85 223
L 392.85 312.1 395.2 313.5
M 380.55 319.4
L 383.3 317.7 383.3 300.1 386.15 298.45 386.15 316 392.85 312.1
M 319.65 266.2
L 324.35 270.15 368.6 307.35 371.05 309.5 373.6 311.55 378.2 307.6 374.75 304.75 372.15 302.55 324.9 263.15
M 374.75 304.75
L 378.2 300.3
M 324.35 270.15
L 312.85 275.9 310.8 280 367.8 312.95 367.8 308.5 368.6 307.35
M 367.8 308.5
L 370.7 309.95 371.05 309.5
M 367.8 312.95
L 367.8 320.4
M 372.15 302.55
L 374.75 298.95
M 379.35 326.6
L 379.35 346.6 385.1 343.2 385.25 343.3 385.25 323.2 385.15 323.15 385.25 323.05 385.25 323.2 505.75 392.95 505.8 392.95 506.5 393.3 509.9 395.3 510.25 395.55 510.7 395.75
Q 511.4 396.15 512.1 396.6
L 519 400.6 519.3 400.75 526.25 396.55
M 383.3 317.7
L 386.15 316
M 370.7 309.95
L 370.6 322.05
M 378.35 327.15
L 378.35 347.1 379.35 346.6
M 385.25 343.3
L 488.6 403.05 505.65 392.95 505.75 392.95 506.5 393.3
M 505.75 392.95
L 507.3 393.85 509.4 395.1 509.9 395.3
M 509.4 395.1
L 510.25 395.55
M 505.65 392.95
L 507.3 393.85
M 343.5 184.5
L 379.35 205.15
M 193.35 130.3
Q 214.95 123.05 241.75 123.05 268.55 123.05 290.25 130.3
M 142.1 145.35
L 142.1 140.5
M 99.5 221.4
L 106.7 225.65 110.15 227.6 131.05 239.65 131.2 239.25
M 131.05 239.65
L 134.5 241.65 162.85 258.1 167.5 260.8 173.25 264.15 177.95 266.85 182.75 269.6 199.15 279.1 199.55 278.85
M 150.05 201.55
L 146.45 208.7 150 210.75 152.9 204.95
M 142 180.65
L 111.15 198.95 128.45 209 137.65 203.55 147.35 197.8
M 137.65 203.55
L 146.45 208.7
M 98.8 206.1
L 100.35 205.25 103.85 203.15 108 200.7 111.05 198.9 111.15 198.95
M 91.75 222.55
L 94.6 224.3 98.8 221.8
M 120.975 268.6
L 134.5 241.65
M 111.925 277.85
Q 111.9873046875 277.691796875 112.05 277.525
M 112.6 276.425
L 113.35 274.925
M 113.925 273.775
L 131.05 239.65
M 110.15 227.6
L 110.075 282.65
M 106.7 225.65
L 106.7 292.2
M 105.15 295.95
L 98.8 291.9 98.8 310.1 103.6 312.8
M 148.1 272.2
L 162.85 263.55 162.85 258.1
M 155.7 285.5
L 175.25 274.05 165.75 268.5 151.125 277.1
M 159.85 302.2
L 185.6 287.15 177.35 272.8 175.25 274.05
M 103.85 203.15
L 161.3 236.45 162.15 232.2 108 200.7
M 24.2 364.05
L 24.2 372.5 61.55 394.1 77.75 403.45 130.45 434 146.6 443.35 179.6 462.4 179.6 442.1 142.15 420.3 123.45 409.5 73.65 380.6 55.3 369.95 24.2 351.95
M 24.2 372.5
L 17.35 376.55 54.75 398.2 61.55 394.1
M 84.7 331.875
L 56.2 348.65 69.15 356.3 75.75 360.2 84.95 365.65 91.9 369.8 139.5 398 141.65 399.3 145.45 397 153.45 392.3 177.15 378.2 181.45 375.7 190.45 370.4 204.3 362.2 221.2 352.25 210.95 346.35 197.4 338.45 177.25 326.75 164.45 319.4 160.05 316.8
M 69.15 356.3
L 69.15 363.8 69.15 367.95 75.75 363.75 75.75 360.2
M 85.625 325.175
L 44.25 349.4 67.4 362.8 69.15 363.8
M 55.3 369.95
L 67.4 362.8
M 75.75 363.75
L 75.75 371.55 84.95 365.65
M 31.1 341.75
L 44.25 349.4
M 160.05 309.525
L 188.75 292.65 185.6 287.15
M 98.8 310.1
L 94.6 312.6 94.6 314.8 97.1 316.275
M 88 310.95
L 94.6 314.8
M 73.65 380.6
L 85.7 373.45 85.8 373.45 91.9 369.8
M 94.6 224.3
L 94.6 312.6
M 323.05 238.35
L 319.45 219.55 318.75 216.05
M 298.75 227.1
L 299.6 231.2 303.25 228.75 303.25 224.3
M 303.25 228.75
L 320.9 238.95 316.7 217.35
M 221 241.25
L 221 244.55
Q 222.2 247.6 226.75 249.9 232.95 253.1 241.7 253.1 250.4 253.1 256.6 249.9 261.05 247.6 262.35 244.6 262.5 244.1 262.65 243.6
L 262.75 241.1 262.8 239.55
Q 262.65 239.85 262.6 240.25 261.35 243.4 256.75 245.75 250.55 249 241.85 249 233.1 249 226.9 245.75 222.45 243.45 221.2 240.5
L 221 241.25 Z
M 258.75 235.25
Q 261.75 237.2 262.8 239.55
M 262.75 241.1
Q 262.8 241.55 262.8 242.1 262.8 242.85 262.65 243.6
L 262.5 246.75
Q 262.2 251.05 256.3 254.1 250.1 257.35 241.35 257.35 232.65 257.35 226.45 254.1 223 252.35 221.45 250.15 221.45 251.2 221.75 252.15
L 236.45 260.7
Q 239.25 261.1 242.35 261.1 244.95 261.1 247.35 260.85
L 262.9 251.65 262.9 237.75
M 262.35 244.6
Q 262.5 245.45 262.5 246.3 262.5 246.55 262.5 246.75
M 259.6 235.2
L 275.4 244.25 282.95 239.8 281.05 231.75
M 263.5 250.5
Q 263.5 250.9 263.45 251.35
L 275.4 244.25
M 270.65 296.2
Q 270.64375 296.471875 270.55 296.8 270.5 296.85 270.5 296.95
L 270.5 297
Q 269.8 300.1 266.8 302.75 266.65 302.85 266.55 302.9 266.4 303 266.35 303.1 265.8 303.55 265.25 303.9 263.9 304.9 262.2 305.75 262.05 305.85 261.9 305.9
L 261.9 323.7
Q 262.05 323.6 262.2 323.5 262.9 323.15 263.6 322.75 265.1 321.85 266.35 320.85 266.4 320.75 266.55 320.7 266.65 320.6 266.8 320.55 269.8 317.85 270.5 314.8 270.5 314.65 270.55 314.55 270.65 314.2 270.7 313.8
L 270.7 312.8
Q 270.7 312.25 270.7 311.75
L 270.65 296.2 270.65 296
Q 270.7 295.55 270.7 295.2
M 262.9 251.65
L 263.45 251.35
M 296.45 227.1
L 300.95 250.3 301.75 250.75
M 288.25 284.85
L 300.45 291.9 310.55 271.65
M 300.45 291.9
L 296.7 299.25 262.6 367.35 258.75 375.25 263.15 375.25 265.75 369.95 265.75 370.05 300.2 301.25 303.9 293.9 310.8 280
M 312.85 275.9
L 316.9 267.9
M 282.95 239.8
L 300.95 250.3
M 303.2 249.9
L 299.6 231.2
M 202.9 231.45
L 201.3 237.95 199.25 239.2 203.7 241.7 216.3 234.05
M 221.2 240.5
Q 222 237.5 225.65 235.2
M 150 210.75
L 164.6 219.25 165.4 215.3
M 167.35 216.6
L 163.4 237.1 181 226.95 181 223.95
M 162.15 232.2
L 162.75 228.85 128.45 209
M 250.1 280.7
L 231.7 270.05 188.9 245.15 185.9 246.9 247.2 282.4
M 199.25 239.2
L 188.9 245.15
M 181 226.95
L 184.7 229.4 185.45 225.8
M 162.75 228.85
L 164.6 219.25
M 165.75 268.5
L 170.65 265.7 165.15 262.15 162.85 263.55
M 165.15 262.15
L 167.5 260.8
M 188.75 292.65
L 192.7 299.6 199.4 311.25 211.1 331.7 218.1 343.9 237.55 378 237.55 371.35 221.05 342.45 214.15 330.25 202.2 309.45 195.5 297.65 191.75 290.95 188.5 285.4 180.3 271.05 177.95 266.85 175.85 270.2 177.35 272.8
M 170.65 265.7
L 173.25 264.15
M 188.5 285.4
L 199.15 279.1 205.6 282.75 206 282.55
M 180.3 271.05
L 182.75 269.6
M 231.7 270.05
L 242.05 263.95 236.45 260.7
M 221.45 250.15
Q 221.2 249.75 221 249.35
L 221 251.2
M 205.6 282.75
L 211.65 286.3 215.3 288.45 216.3 289.05 239.85 302.6
M 202.2 309.45
L 212.7 302.05 212.7 297 212.7 296.95
Q 212.5 296 212.5 295.05 212.5 294.05 212.7 293.05 213.35 290.6 215.3 288.45
M 212.7 297
Q 213.2 298.95 214.55 300.75 215.45 302 216.95 303.15 217 303.25 217.15 303.4 217.3 303.4 217.4 303.55 217.7 303.7 218 303.9 219.25 304.75 220.75 305.6 220.9 305.7 221.05 305.75 228.1 309.5 237.55 310.2
L 237.55 307.45
Q 229.35 306.65 223.05 303.4 214.95 299.15 214.85 293.65 214.8 291.15 216.3 289.05
M 100.35 205.25
L 240.45 286.3 241.3 285.85
M 185.9 246.9
L 183.3 248.45 187.6 226.6
M 203.7 241.7
L 221.75 252.15
M 191.75 290.95
L 205.6 282.75
M 161.3 236.45
L 181.15 247.9 184.7 229.4
M 221 249.35
L 221 244.55
M 237.55 307.45
Q 237.7 307.45 237.85 307.5
L 237.55 307.3 237.55 307.45 Z
M 237.85 307.5
L 237.95 307.5 240.2 306.15 240.2 300.1 98.8 218.35
M 237.95 307.5
L 240.2 308.8 240.2 306.15
M 240.2 308.8
L 240.75 309.1 240.75 400.75 244.05 402.65 244.05 311.05
M 237.55 310.2
L 237.55 318.85 237.55 334.8 237.55 371.35
M 214.15 330.25
L 224.65 325.2
Q 222.75 324.45 221.05 323.5 220.9 323.45 220.75 323.35 220.25 323.05 219.7 322.75 218.45 322.05 217.4 321.3 217.3 321.15 217.15 321.15 217 321 216.95 320.9 213.5 318.15 212.7 314.8 212.5 313.8 212.5 312.8 212.5 312.2 212.55 311.55
L 212.55 311.525
Q 212.55 311.3875 212.55 311.2 212.55 310.65 212.65 310.1
L 212.7 302.05
M 212.65 310.1
L 212.65 311.2 212.65 312.25
Q 212.55 311.9 212.55 311.55
M 212.55 311.525
Q 212.5546875 311.3427734375 212.65 311.2
M 237.55 334.8
L 221.05 342.45
M 220.75 305.6
L 220.75 323.35
M 237.55 318.85
L 224.65 325.2
M 199.4 311.25
L 177.25 326.75
M 192.7 299.6
L 164.45 319.4
M 177.15 378.2
L 177.15 386.55 181.45 384.1 181.45 375.7
M 181.45 384.1
L 181.45 391.35 190.45 386.05 190.45 370.4
M 208.15 381.85
L 233.5 396.45 237.55 398.85 237.55 383.3 221 373.7 190.75 391.55 198.25 395.85 212.5 404.05 216.15 406.2
M 142.15 420.3
L 154.65 412.85 183.9 395.55 190.75 391.55
M 204.3 362.2
L 222.6 372.8 221 373.7
M 237.55 378
L 237.55 383.3
M 211.1 331.7
L 197.4 338.45
M 218.1 343.9
L 211.8 346.8 210.95 346.35
M 268.1 296.7
Q 266.65 300.45 261 303.55 259.7 304.2 258.3 304.85
L 258.3 307.6
Q 260.15 306.85 261.9 305.9
M 258.3 302.55
L 258.3 304.85
M 261.9 323.7
Q 260.15 324.6 258.3 325.35
L 258.3 367.35 262.6 367.35
M 258.3 307.6
L 258.3 325.35
M 258.3 394.15
L 258.3 394.25 261.75 396.25 261.85 396.25 262.6 396.7 278.35 405.8 378.35 347.1
M 255 304.45
L 255 392.25 258.3 394.15
M 258.3 367.35
L 258.3 386.8
M 265.75 377.2
L 265.75 370.05
M 181.15 247.9
L 243.9 284.3
M 240.2 290.5
L 240.2 300.1
M 280.05 289.65
L 296.7 299.25
M 211.65 286.3
L 195.5 297.65
M 242.05 263.95
L 247.35 260.85
M 244.05 402.65
L 246.75 404.2 381.2 482.05 381.4 482.2 381.5 482.2 386.7 479.05 395.6 473.85 382.4 466 285.2 409.8 278.35 405.8
M 233.5 396.45
L 180.45 427.8 193.75 435.45 240.05 408.1 243.3 406.2 246.75 404.2 246.75 423.95 252.65 427.4 381.25 501.8 381.5 482.2
M 261.75 396.25
L 262.6 396.7
M 4.8 375.55
L 181.6 477.95 246.5 440.6 246.5 440.05 379.75 517.1 545.25 419.45
M 246.6 430.95
L 247.05 430.7 246.5 430.95 246.6 430.95 380.5 508.45 386.55 504.85 381.25 501.8
M 243.3 406.2
L 243.3 429 246.5 430.95
M 247.05 430.7
L 252.65 427.4
M 246.5 450.45
L 246.5 440.6
M 237.55 398.85
L 240.75 400.75
M 240.05 408.1
L 240.15 427.25 240.2 427.25 243.3 429
M 198.25 395.85
L 191.4 399.8 186.65 402.65 200.6 410.8 201.55 410.6 212.4 404.1 212.5 404.1 212.5 404.05
M 200.6 410.8
L 201 410.95 201.55 410.6
M 179.6 442.1
L 181.1 442.95 186.35 439.8 193.75 435.45
M 181.6 477.95
L 181.6 488.75
M 240.15 427.25
L 186.35 459.05 186.35 466.3 186.6 466.45 246.6 430.95
M 146.6 443.35
L 139.7 447.4 179.7 470.55 186.6 466.45
M 179.6 462.4
L 186.35 466.3
M 186.35 439.8
L 186.35 459.05
M 145.45 397
L 145.55 404.35 145.55 411.7 153.6 407.05 153.45 392.3
M 139.5 398
L 139.4 400 139.35 407.4 145.55 404.35
M 85.7 373.45
L 135.5 402.3 139.4 400
M 123.45 409.5
L 135.5 402.3
M 77.75 403.45
L 70.9 407.5 123.65 438.05 130.45 434
M 123.65 438.05
L 139.7 447.4
M 54.75 398.2
L 70.9 407.5
M 154.65 412.85
L 180.45 427.8
M 519 400.6
L 519 400.9 519.3 400.75
M 526.35 408.5
L 526.45 415.15 532.4 418.75 526.45 422.25 525.2 422.95 518.7 426.8 386.7 504.85 386.6 504.95 386.55 504.85
M 386.7 479.05
L 386.7 497.4 512.5 423.05 518.9 419.3 519 419.2 519 400.9 395.6 473.85
M 512.5 423.05
L 518.7 426.8
M 518.9 419.3
L 525.2 422.95
M 526.45 415.15
L 526.45 422.25
M 386.7 497.4
L 386.7 504.85
M 382.4 466
L 482.2 406.85 385.4 350.5 285.2 409.8
M 482.2 406.85
L 488.6 403.05
M 303.9 293.9
L 355.95 323.9
M 300.2 301.25
L 347.8 328.75
M 183.9 395.55
L 191.4 399.8
M 319.45 219.55
L 329.8 213.45"/>

<path id="Layer0_0_2_STROKES" stroke="#000000" stroke-width="1" stroke-linejoin="round" stroke-linecap="round" fill="none" d="
M 113.925 273.775
Q 115.251171875 271.628515625 118.25 269.85 119.5556640625 269.1388671875 120.975 268.6
M 112.05 277.525
L 112.6 276.425
M 113.35 274.925
L 113.925 273.775
M 112.6 276.425
Q 112.827734375 276.0541015625 113.1 275.7 113.2 275.31171875 113.35 274.925
M 150.35 275.85
Q 150.5 276.55 150.5 277.3 150.5 277.38984375 150.5 277.475 150.3849609375 281.8064453125 144.8 284.55 139.847265625 287.5767578125 132.925 287.825 132.291796875 287.85 131.65 287.85 127.1392578125 287.85 123.375 286.75 120.6115234375 285.9416015625 118.25 284.55 112.9 281.75 112.9 277.3 112.9 276.45 113.1 275.7
M 110.075 282.65
Q 110.7716796875 281.906640625 111.65 281.2 111.6 280.65 111.6 280.05 111.6 278.9068359375 111.925 277.85
M 106.7 292.2
Q 107.0611328125 291.658984375 107.5 291.15 107.3 290.15 107.3 289.15 107.3 285.5984375 110.075 282.65
M 105.15 295.95
Q 105.4908203125 293.9578125 106.7 292.2
M 156.3 291.3
Q 155.1 295.7 149.2 298.75 142 302.9 131.85 302.9 121.7 302.9 114.35 298.75 111.705859375 297.326171875 110.05 295.625 108.048046875 293.588671875 107.5 291.15
M 151.7 281.05
Q 151.15 285.1 145.75 287.95 139.9 291.3 131.65 291.3 129.4515625 291.3 127.425 291.075 123.087890625 290.5724609375 119.5 289.025 118.3595703125 288.5416015625 117.3 287.95 112.25 285.2 111.65 281.2
M 103.6 312.8
L 103.6 304.5 103.6 304.1
Q 103.6 303.95 103.6 303.8 103.75 301.25 105.15 299.05 105 298.35 105 297.6 105 296.7583984375 105.15 295.95
M 120.975 268.6
Q 125.66875 266.8 131.65 266.8 139.4 266.8 144.8 269.85 146.803515625 270.9583984375 148.1 272.2
M 151.125 277.1
Q 151.8 278.4849609375 151.8 280.05 151.8 280.5 151.7 281.05 154.5259765625 283.0892578125 155.7 285.5
M 151.125 277.1
Q 150.81328125 276.45703125 150.35 275.85 149.8623046875 273.8994140625 148.1 272.2
M 155.7 285.5
Q 156.55 287.2302734375 156.55 289.15 156.55 290.3 156.3 291.3 158.7 294.2 158.7 297.6 158.7 298.35 158.6 299.1 159.507421875 300.6244140625 159.85 302.2
M 79.05 349.05
L 79.05 353.8 97.1 363.8 97.1 359.05 79.05 349.05 84.7 346 84.7 339.425 84.7 333.325 84.7 331.875
M 160.05 316.8
L 160.05 341.7
Q 160.05 341.8 160.05 341.95 160.05 345.6 157.45 348.6
L 157.45 348.925 157.45 349.9
Q 158.9 352.2 158.9 354.9 158.9 361.15 150.85 365.55 142.9 370.15 131.7 370.15
L 131.65 370.15
Q 120.45 370.15 112.4 365.55 107.137109375 362.6001953125 105.4 358.825
L 97.1 363.8
M 159.85 302.2
Q 159.9951171875 302.796875 160.05 303.4 160.05 303.7 160.05 304.1
L 160.05 304.65 160.05 309.525
M 158.6 299.1
Q 158.04140625 302.2216796875 155.375 304.825 153.97109375 306.1830078125 152 307.4 151.4 307.7 150.7 308.1 150.2 308.4 149.55 308.7 148.4 309.3 147.25 309.75 145.6 310.45 143.8 311 142.5 311.4 141.2 311.7 140 311.9 138.7 312.15 137.1 312.4 135.3 312.55 133.7 312.6 132 312.6 131.95 312.6 131.8 312.6 130.9 312.6 129.95 312.6 128.6 312.55 127.3 312.45 126.95 312.4 126.65 312.4 124.9 312.15 123.3 311.9 122 311.6 120.75 311.3 119.45 311 118.15 310.55 116.4 309.9 114.7 309.15 113.7 308.6 112.7 308.1 109.2 306.15 107.3 303.8 106.976953125 303.3939453125 106.7 302.975 105.476171875 301.129296875 105.15 299.05
M 147.25 317.35
Q 147.1 317.45 146.9 317.5 145.45 318.05 143.8 318.5
L 143.8 356.25
Q 145.45 355.8 146.9 355.25 147.1 355.2 147.25 355.1
L 147.25 317.35
Q 149.55 316.5 151.65 315.3 151.85 315.2 152 315.15 153 314.6 153.85 314.05 154.25 313.75 154.7 313.45 156.2216796875 312.352734375 157.3 311.15 159.9439453125 308.222265625 160.05 304.65
M 160.05 309.525
L 160.05 316.8
M 126.65 319.8
Q 125.15 319.65 123.7 319.4 123.45 319.35 123.3 319.35
L 123.3 357.1
Q 123.45 357.1 123.7 357.2 125.15 357.4 126.65 357.55
L 126.65 319.8
Q 126.95 319.8 127.3 319.9 128.6 319.95 129.95 320.05 130.65 320.05 131.4 320.05 131.55 320.05 131.65 320.05 131.7 320.05 131.8 320.05 131.95 320.05 132 320.05 133.7 320.05 135.3 319.95 137.1 319.8 138.7 319.6 138.9 319.5 139.15 319.5 140.2 319.35 141.2 319.1 142.5 318.9 143.8 318.5
M 109.95 314.3
L 109.9 314.2
Q 108.45 313.2 107.3 312.15
L 107.3 349.85
Q 108.45 350.9 109.95 352
L 109.95 314.3
Q 110.8 314.75 111.75 315.3 113.2 316.15 114.7 316.8 116.4 317.5 118.15 318.1 119.45 318.5 120.75 318.8 122 319.1 123.3 319.35
M 97.1 316.275
L 97.35 316.05 103.6 315.2 103.6 312.8
M 96.25 317.05
L 100.15 320.4 103.6 320.4 103.6 315.2
M 107.3 312.15
Q 103.7 308.8 103.6 304.5
M 97.1 316.275
L 96.25 317.05 88.15 324.5 88.675 324.85 95.325 328 100.15 320.4
M 85.625 325.175
L 87.2 324.15 88.675 324.85
M 84.7 331.875
L 84.7 325.8 85.625 325.175
M 85.75 347.15
L 90.9 352.5 90.9 338.95 84.7 333.325
M 84.7 325.8
L 97.1 338.4 103.6 335.1 103.6 331.9 95.325 328
M 105.4 358.825
Q 104.55 356.959765625 104.55 354.9 104.55 352.05 106.15 349.6 106.05 349.05 106.05 348.55 103.6 345.55 103.6 341.95 103.6 341.8 103.6 341.65
L 103.6 335.1
M 103.6 331.9
L 103.6 320.4
M 123.3 357.1
Q 122 356.9 120.75 356.6 119.45 356.2 118.15 355.8 116.4 355.25 114.7 354.5 113.2 353.8 111.75 353 110.8 352.45 109.95 352
M 107.3 349.85
Q 107.0666015625 349.633203125 106.85 349.425 106.4166015625 348.983203125 106.05 348.55
M 157.4 349.7
Q 156.9 352.45 154.7 354.9 153.55 356.05 152 357.1 151 357.8 149.85 358.4 142.3 362.7 131.7 362.7 121.9 362.7 114.7 359.1 114.1 358.7 113.5 358.4 111.4 357.25 109.95 356.05 108.3 354.5 107.3 352.9 107.0486328125 352.4767578125 106.85 352.05 106.2970703125 350.850390625 106.15 349.6
M 90.9 352.5
L 97.1 359.05 97.1 338.4
M 157.45 348.925
Q 157.440625 349.29375 157.4 349.7 157.4 349.75 157.45 349.9
M 157.45 348.6
Q 156.3 349.9 154.7 351.15 154.3 351.35 153.85 351.65 153 352.2 152 352.8 151.85 352.9 151.65 353 151.1 353.3 150.5 353.65 148.95 354.45 147.25 355.1
M 143.8 356.25
Q 143.3 356.4 142.75 356.6 142 356.75 141.2 356.9 140.2 357.1 139.15 357.25 138.9 357.25 138.7 357.35 137.1 357.55 135.3 357.65 135.15 357.65 135 357.75 133.55 357.8 132 357.8 131.95 357.8 131.8 357.8 131.55 357.8 131.4 357.8 130.65 357.8 129.95 357.8 128.6 357.75 127.3 357.65 126.95 357.55 126.65 357.55
M 84.7 346
L 85.75 347.15
M 114.7 354.5
L 114.7 316.8
M 118.15 318.1
L 118.15 355.8
M 129.95 320.05
L 129.95 357.8
M 132 320.05
L 132 357.8
M 135.3 357.65
L 135.3 319.95
M 138.7 319.6
L 138.7 357.35
M 141.2 356.9
L 141.2 319.1
M 120.75 356.6
L 120.75 318.8
M 152 315.15
L 152 352.8
M 154.7 351.15
L 154.7 313.45"/>
</defs>

<g transform="matrix( 1, 0, 0, 1, 0,0) ">
<use xlink:href="#Layer0_0_FILL"/>

<use xlink:href="#Layer0_0_1_STROKES"/>

<use xlink:href="#Layer0_0_2_STROKES"/>
</g>
</svg>
