
<svg xmlns="http://www.w3.org/2000/svg" version="1.1" xmlns:xlink="http://www.w3.org/1999/xlink" preserveAspectRatio="none" x="0px" y="0px" width="550px" height="550px" viewBox="0 0 550 550">
<defs>
<g id="Layer0_0_FILL">
<path fill="#FFFFFF" stroke="none" d="
M 362.7 218.2
L 362.35 217.75 362.35 249.7 364.95 249.7 364.95 218.2 362.7 218.2
M 446.35 231.7
L 470.65 218.75 490.25 208.3 195.4 208.3 213.3 218.25 238.1 232.05 275.3 252.75 319.3 252.75 319.3 249.7 319.3 217.75 321.95 217.75 321.95 249.7 362.35 249.7 362.35 217.75 364.95 217.75 364.95 218.2 364.95 249.7 364.95 252.75 406.85 252.75 420.2 245.65 446.35 231.7
M 362.35 252.75
L 362.35 249.7 321.95 249.7 321.95 252.75 362.35 252.75
M 362.35 249.7
L 362.35 252.75 364.95 252.75 364.95 249.7 362.35 249.7
M 425.25 252.75
L 406.85 252.75 364.95 252.75 362.35 252.75 321.95 252.75 319.3 252.75 275.3 252.75 227.9 252.75 190.1 252.75 176.7 252.75 176.7 285.65 210.25 285.65 308.5 285.65 321 285.65 364.6 285.65 376.9 285.65 407.4 285.65 448.85 285.65 475.85 285.65 507.7 285.65 507.7 252.75 494.6 252.75 457.7 252.75 425.25 252.75
M 321.95 249.7
L 319.3 249.7 319.3 252.75 321.95 252.75 321.95 249.7
M 321.95 217.75
L 319.3 217.75 319.3 249.7 321.95 249.7 321.95 217.75
M 346.9 419.85
L 339 419.85 339 449.3 390.45 449.3 390.45 419.85 346.9 419.85
M 328.55 414.6
L 337.2 414.6 346.9 414.6 355.75 414.6 360.8 409.4 323.65 409.4 328.55 414.6
M 337.2 419.85
L 339 419.85 346.9 419.85 346.9 414.6 337.2 414.6 337.2 419.85
M 475.85 416.1
L 462.1 416.1 470.35 426.05 464.3 431.4 456.45 421.9 456.45 448.15 475.85 448.15 475.85 416.1
M 507.7 508.2
L 507.7 505.95 475.85 505.95 475.85 508.2 507.7 508.2
M 60.5 508.2
L 60.5 505.95 45.75 505.95 31.25 505.95 31.25 508.2 60.5 508.2
M 31.4 453.8
L 31.4 456 59.4 456 67.4 456 67.4 453.8 50.6 453.8 31.4 453.8
M 31.4 456
L 31.4 459.7 45.75 459.7 59.4 459.7 59.4 456 31.4 456
M 31.6 418.95
L 34.95 418.95 34.95 413.5 31.6 413.5 31.6 418.95
M 67.55 421.55
L 50.6 421.55 50.6 453.8 67.4 453.8 67.55 421.55
M 50.6 418.95
L 50.6 421.55 67.55 421.55 67.6 418.95 50.6 418.95
M 100.2 449.1
L 100.2 418.95 74.65 418.95 74.65 449.1 100.2 449.1
M 82.85 400.85
L 82.85 410.75 121.45 410.75 121.45 400.85 82.85 400.85
M 146.4 421.55
L 129.8 421.55 129.8 449.1 129.8 453.8 146.4 453.8 146.4 449.1 146.4 421.55
M 144.9 413.5
L 144.9 410.75 121.45 410.75 82.85 410.75 53.25 410.75 53.25 413.5 144.9 413.5
M 129.8 421.55
L 129.8 418.95 100.2 418.95 100.2 449.1 129.8 449.1 129.8 421.55
M 129.8 418.95
L 129.8 421.55 146.4 421.55 146.4 418.95 129.8 418.95
M 176.7 505.95
L 176.7 459.7 59.4 459.7 45.75 459.7 45.75 505.95 60.5 505.95 176.7 505.95
M 210.25 459.7
L 210.25 505.95 475.85 505.95 475.85 459.7 210.25 459.7
M 210.25 508.2
L 176.7 508.2 60.5 508.2 31.25 508.2 20 508.2 20 528.7 524.3 528.7 524.3 508.2 507.7 508.2 475.85 508.2 210.25 508.2
M 176.7 508.2
L 176.7 505.95 60.5 505.95 60.5 508.2 176.7 508.2
M 210.25 508.2
L 210.25 505.95 176.7 505.95 176.7 508.2 210.25 508.2
M 210.25 505.95
L 210.25 508.2 475.85 508.2 475.85 505.95 210.25 505.95
M 176.7 449.1
L 176.7 418.95 146.4 418.95 146.4 421.55 146.4 449.1 176.7 449.1
M 210.25 456
L 210.25 459.7 475.85 459.7 475.85 456 210.25 456
M 176.7 456
L 176.7 453.8 146.4 453.8 129.8 453.8 67.4 453.8 67.4 456 176.7 456
M 176.7 459.7
L 176.7 456 67.4 456 59.4 456 59.4 459.7 176.7 459.7
M 176.7 418.95
L 176.7 413.5 144.9 413.5 53.25 413.5 34.95 413.5 34.95 418.95 50.6 418.95 67.6 418.95 74.65 418.95 100.2 418.95 129.8 418.95 146.4 418.95 176.7 418.95
M 220.2 417.2
L 210.25 417.2 210.25 448.15 228.7 448.15 228.7 421.95 220.35 432.05 213.1 425.7 220.2 417.2
M 230.4 419.85
L 228.7 421.95 228.7 448.15 210.25 448.15 210.25 449.3 339 449.3 339 419.85 337.2 419.85 230.4 419.85
M 210.25 285.65
L 176.7 285.65 176.7 413.5 176.7 418.95 176.7 449.1 176.7 453.8 176.7 456 176.7 459.7 176.7 505.95 210.25 505.95 210.25 459.7 210.25 456 210.25 449.3 210.25 448.15 210.25 417.2 210.25 285.65
M 191.05 248.75
L 190.1 252.75 227.9 252.75 229.85 248.75 191.05 248.75
M 238.1 232.05
L 213.3 218.25 198.25 218.25 191.05 248.75 229.85 248.75 238.1 232.05
M 321 296.05
L 321 285.65 308.5 285.65 311.8 307.1 321 296.05
M 124.6 320.85
L 119.75 320.85 119.75 384.25 124.6 384.25 124.6 320.85
M 119.75 384.25
L 119.75 388.7 145.1 388.7 145.5 387.45 145.5 384.25 142.15 384.25 138.95 384.25 135.05 384.25 132.8 384.25 127.05 384.25 124.6 384.25 119.75 384.25
M 116.6 320.85
L 93.5 320.8 93.5 362.25 116.6 362.25 116.6 320.85
M 93.5 320.8
L 90.3 320.8 90.3 362.25 93.5 362.25 93.5 320.8
M 90.3 315.65
L 90.3 320.8 93.5 320.8 93.5 315.65 90.3 315.65
M 84 320.75
L 81.55 320.75 81.55 362.25 84 362.25 84 320.75
M 90.3 320.8
L 84 320.75 84 362.25 90.3 362.25 90.3 320.8
M 90.3 315.65
L 84 315.65 84 320.75 90.3 320.8 90.3 315.65
M 81.55 315.65
L 81.55 320.75 84 320.75 84 315.65 81.55 315.65
M 116.6 320.85
L 116.6 315.65 93.5 315.65 93.5 320.8 116.6 320.85
M 116.6 320.85
L 119.75 320.85 119.75 315.65 116.6 315.65 116.6 320.85
M 119.75 320.85
L 116.6 320.85 116.6 362.25 119 362.25 119 384.25 119.75 384.25 119.75 320.85
M 142.15 320.85
L 138.95 320.85 138.95 384.25 142.15 384.25 142.15 320.85
M 132.8 320.85
L 127.05 320.85 127.05 384.25 132.8 384.25 132.8 320.85
M 135.05 320.85
L 132.8 320.85 132.8 384.25 135.05 384.25 135.05 320.85
M 138.95 320.85
L 135.05 320.85 135.05 384.25 138.95 384.25 138.95 320.85
M 135.05 320.85
L 135.05 315.65 132.8 315.65 132.8 320.85 135.05 320.85
M 135.05 315.65
L 135.05 320.85 138.95 320.85 138.95 315.65 135.05 315.65
M 127.05 315.65
L 127.05 320.85 132.8 320.85 132.8 315.65 127.05 315.65
M 124.6 320.85
L 124.6 315.65 119.75 315.65 119.75 320.85 124.6 320.85
M 127.05 320.85
L 124.6 320.85 124.6 384.25 127.05 384.25 127.05 320.85
M 127.05 315.65
L 124.6 315.65 124.6 320.85 127.05 320.85 127.05 315.65
M 142.15 320.85
L 142.15 315.65 138.95 315.65 138.95 320.85 142.15 320.85
M 142.15 320.85
L 145.5 320.85 145.5 318.85 144.85 315.65 142.15 315.65 142.15 320.85
M 145.5 320.85
L 142.15 320.85 142.15 384.25 145.5 384.25 145.5 320.85
M 70.7 391.5
L 59.75 391.5 59.75 397.1 59.75 398.5 60.3 400.85 82.85 400.85 121.45 400.85 141.2 400.85 145.1 388.7 119.75 388.7 119 388.7 119 398 79.15 398 70.7 391.5
M 55.45 362.25
L 55.45 354.8 45.95 354.8 45.95 394.15 34.95 394.15 34.95 405.5 49.3 405.5 49.3 402.9 55.45 402.9 55.45 397.1 55.45 362.25
M 77.1 363.1
L 78.15 362.25 81.55 362.25 81.55 320.75 77.1 320.75 77.1 363.1
M 70.65 368.2
L 69.45 368.2 67.05 368.2 63.5 368.2 58.85 368.2 58.85 362.25 55.45 362.25 55.45 397.1 55.85 397.1 59.4 397.1 59.75 397.1 59.75 391.5 70.7 391.5 79.15 398 119 398 119 388.7 119 384.25 119 362.25 116.6 362.25 93.5 362.25 90.3 362.25 84 362.25 81.55 362.25 78.15 362.25 77.1 363.1 73.75 365.75 70.65 368.2
M 34.95 354.8
L 34.95 394.15 45.95 394.15 45.95 354.8 34.95 354.8
M 63.5 320.75
L 58.85 320.7 58.85 362.25 58.85 368.2 63.5 368.2 63.5 320.75
M 62.1 297.95
L 60.4 307.1 143.2 307.1 141.45 298.2 139.3 292.55 64.45 292.55 62.1 297.95
M 73.75 320.75
L 69.45 320.75 69.45 368.2 70.65 368.2 73.75 365.75 73.75 320.75
M 77.1 320.75
L 73.75 320.75 73.75 365.75 77.1 363.1 77.1 320.75
M 77.1 320.75
L 77.1 315.65 73.75 315.65 73.75 320.75 77.1 320.75
M 77.1 315.65
L 77.1 320.75 81.55 320.75 81.55 315.65 77.1 315.65
M 69.45 320.75
L 67.05 320.75 67.05 368.2 69.45 368.2 69.45 320.75
M 63.5 320.75
L 63.5 315.65 58.85 315.65 58.85 320.7 63.5 320.75
M 67.05 320.75
L 63.5 320.75 63.5 368.2 67.05 368.2 67.05 320.75
M 63.5 315.65
L 67.05 315.65 69.45 315.65 73.75 315.65 77.1 315.65 81.55 315.65 84 315.65 90.3 315.65 93.5 315.65 116.6 315.65 119.75 315.65 124.6 315.65 127.05 315.65 132.8 315.65 135.05 315.65 138.95 315.65 142.15 315.65 144.85 315.65 143.2 307.1 60.4 307.1 58.85 315.65 63.5 315.65
M 67.05 315.65
L 63.5 315.65 63.5 320.75 67.05 320.75 67.05 315.65
M 69.45 320.75
L 69.45 315.65 67.05 315.65 67.05 320.75 69.45 320.75
M 69.45 315.65
L 69.45 320.75 73.75 320.75 73.75 315.65 69.45 315.65
M 132.8 272.05
L 132.8 268.5 70.55 268.5 70.55 272.05 132.8 272.05
M 135 272.05
L 132.8 272.05 70.55 272.05 68.5 272.05 68.5 284.7 64.45 292.55 139.3 292.55 135 281.2 135 272.05
M 507.7 285.65
L 475.85 285.65 475.85 416.1 475.85 448.15 475.85 456 475.85 459.7 475.85 505.95 507.7 505.95 507.7 285.65
M 490.25 208.3
L 495.15 208.3 495.15 205.8 494.95 205.8 190.9 205.8 190.7 205.8 190.7 208.3 195.4 208.3 490.25 208.3
M 494.95 205.8
L 495.15 205.7 495.15 138.8 190.7 138.8 190.7 205.7 190.9 205.8 494.95 205.8
M 370 349.75
L 370 334.1 314.85 334.1 314.85 349.75 370 349.75
M 371.7 349.75
L 370 349.75 314.85 349.75 313 349.75 313 409.4 323.65 409.4 360.8 409.4 371.7 409.4 371.7 349.75
M 357.3 301.5
L 327.95 301.5 316.75 315.1 368.5 315.1 357.3 301.5
M 375.45 323.55
L 372.05 319.4 313.2 319.4 309.8 323.55 375.45 323.55
M 377.85 326.45
L 375.45 323.55 309.8 323.55 307.35 326.5 377.85 326.5 377.85 326.45
M 377.85 334.1
L 377.85 326.5 307.35 326.5 307.2 326.7 307.05 334.1 314.85 334.1 370 334.1 377.85 334.1
M 372.05 319.4
L 370.5 317.55 314.75 317.55 313.2 319.4 372.05 319.4
M 370.5 317.55
L 368.5 315.1 316.75 315.1 314.75 317.55 370.5 317.55
M 376.9 285.65
L 364.6 285.65 364.6 298.95 372.4 308.3 376.9 285.65
M 335.65 292.15
L 328.85 286.6 321 296.05 311.8 307.1 220.2 417.2 213.1 425.7 220.35 432.05 228.7 421.95 230.4 419.85 307.2 326.7 307.2 326.5 307.35 326.5 309.8 323.55 313.2 319.4 314.75 317.55 316.75 315.1 327.95 301.5 335.65 292.15
M 355 287.45
L 349.55 292.15 357.3 301.5 368.5 315.1 370.5 317.55 372.05 319.4 375.45 323.55 377.85 326.45 377.9 326.5 456.45 421.9 464.3 431.4 470.35 426.05 462.1 416.1 372.4 308.3 364.6 298.95 355 287.45
M 465.9 295.55
L 463.75 292.25 457.85 295.65 423.15 315.95 417.15 319.45 419.15 322.1 465.9 295.55
M 455.55 248.75
L 457.7 252.75 494.6 252.75 493.7 248.75 455.55 248.75
M 454.7 294.8
L 448.85 285.65 407.4 285.65 423.7 312.5 454.7 294.8
M 456.55 293.75
L 454.7 294.8 423.7 312.5 421.75 313.6 423.15 315.95 457.85 295.65 456.55 293.75
M 406.85 252.75
L 425.25 252.75 420.2 245.65 406.85 252.75
M 470.65 218.75
L 446.35 231.7 455.55 248.75 493.7 248.75 486.9 218.75 470.65 218.75
M 495.15 138.8
L 495.15 24.05 190.7 24.05 190.7 138.8 495.15 138.8
M 495.15 24.05
L 503.95 24.05 503.95 20 181.95 20 181.95 24.05 190.7 24.05 495.15 24.05 Z"/>
</g>

<path id="Layer0_0_1_STROKES" stroke="#323232" stroke-width="2" stroke-linejoin="miter" stroke-linecap="square" stroke-miterlimit="3" fill="none" d="
M 190.7 138.8
L 190.7 24.05 181.95 24.05 181.95 20 503.95 20 503.95 24.05 495.15 24.05 495.15 138.8 504.15 138.8
M 470.65 218.75
L 446.35 231.7 455.55 248.75 493.7 248.75 486.9 218.75 470.65 218.75 490.25 208.3 195.4 208.3 213.3 218.25 238.1 232.05 275.3 252.75 319.3 252.75 319.3 249.7 319.3 217.75 321.95 217.75 321.95 249.7 362.35 249.7 362.35 217.75 364.95 217.75 364.95 218.2 364.95 249.7 364.95 252.75 406.85 252.75 420.2 245.65 446.35 231.7
M 425.25 252.75
L 406.85 252.75
M 457.85 295.65
L 456.55 293.75 454.7 294.8 423.7 312.5 421.75 313.6 423.15 315.95 457.85 295.65 463.75 292.25 465.9 295.55 419.15 322.1 417.15 319.45 423.15 315.95
M 454.7 294.8
L 448.85 285.65 407.4 285.65 423.7 312.5
M 455.55 248.75
L 457.7 252.75 494.6 252.75 493.7 248.75
M 407.4 285.65
L 376.9 285.65 372.4 308.3 462.1 416.1 475.85 416.1 475.85 285.65 448.85 285.65
M 457.7 252.75
L 425.25 252.75 420.2 245.65
M 364.95 218.2
L 362.7 218.2
M 364.95 249.7
L 362.35 249.7 362.35 252.75 364.95 252.75
M 335.65 292.15
L 327.95 301.5 357.3 301.5 349.55 292.15 355 287.45 364.6 298.95 364.6 285.65 321 285.65 321 296.05 328.85 286.6 335.65 292.15 Z
M 376.9 285.65
L 364.6 285.65
M 370.5 317.55
L 368.5 315.1 316.75 315.1 314.75 317.55 370.5 317.55 372.05 319.4 375.45 323.55 377.85 326.45 377.9 326.5 456.45 421.9 464.3 431.4 470.35 426.05 462.1 416.1
M 364.6 298.95
L 372.4 308.3
M 377.85 326.5
L 377.85 334.1 370 334.1 370 349.75 371.7 349.75 371.7 409.4 360.8 409.4 355.75 414.6 346.9 414.6 346.9 419.85 390.45 419.85 390.45 449.3 339 449.3 210.25 449.3 210.25 456 475.85 456 475.85 448.15 456.45 448.15 456.45 421.9
M 377.9 326.5
L 377.85 326.5 377.85 326.45
M 368.5 315.1
L 357.3 301.5
M 495.15 205.7
L 494.95 205.8 495.15 205.8 495.15 205.7 495.15 138.8 190.7 138.8 190.7 205.7 190.9 205.8 494.95 205.8
M 495.15 205.8
L 495.15 208.3 490.25 208.3
M 507.7 285.65
L 507.7 252.75 494.6 252.75
M 507.7 285.65
L 475.85 285.65
M 190.7 138.8
L 180.2 138.8
M 139.3 292.55
L 135 281.2 135 272.05 132.8 272.05 70.55 272.05 68.5 272.05 68.5 284.7 64.45 292.55 139.3 292.55 141.45 298.2 143.2 307.1 144.85 315.65 145.5 318.85 145.5 320.85 145.5 384.25 145.5 387.45 145.1 388.7 141.2 400.85 121.45 400.85 121.45 410.75 144.9 410.75 144.9 413.5 176.7 413.5 176.7 285.65 176.7 252.75 190.1 252.75 191.05 248.75 198.25 218.25 213.3 218.25
M 132.8 272.05
L 132.8 268.5 70.55 268.5 70.55 272.05
M 69.45 315.65
L 69.45 320.75 73.75 320.75 73.75 315.65 69.45 315.65 67.05 315.65 67.05 320.75 69.45 320.75 69.45 368.2 70.65 368.2 73.75 365.75 73.75 320.75 77.1 320.75 77.1 315.65 73.75 315.65
M 67.05 315.65
L 63.5 315.65 63.5 320.75 67.05 320.75 67.05 368.2 69.45 368.2
M 55.45 402.9
L 49.3 402.9 49.3 405.5 34.95 405.5 34.95 394.15 34.95 354.8 45.95 354.8 55.45 354.8 55.45 362.25 58.85 362.25 58.85 320.7 58.85 315.65 60.4 307.1 62.1 297.95 64.45 292.55
M 58.85 362.25
L 58.85 368.2 63.5 368.2 63.5 320.75 58.85 320.7
M 63.5 315.65
L 58.85 315.65
M 73.75 365.75
L 77.1 363.1 77.1 320.75 81.55 320.75 81.55 315.65 77.1 315.65
M 77.1 363.1
L 78.15 362.25 81.55 362.25 81.55 320.75 84 320.75 84 315.65 81.55 315.65
M 67.05 368.2
L 63.5 368.2
M 34.95 394.15
L 45.95 394.15 45.95 354.8
M 59.75 397.1
L 59.75 391.5 70.7 391.5 79.15 398 119 398 119 388.7 119 384.25 119 362.25 116.6 362.25 93.5 362.25 90.3 362.25 84 362.25 81.55 362.25
M 145.5 320.85
L 142.15 320.85 142.15 384.25 145.5 384.25
M 144.85 315.65
L 142.15 315.65 142.15 320.85 138.95 320.85 138.95 384.25 142.15 384.25
M 124.6 315.65
L 124.6 320.85 127.05 320.85 127.05 315.65 124.6 315.65 119.75 315.65 119.75 320.85 124.6 320.85 124.6 384.25 127.05 384.25 127.05 320.85 132.8 320.85 132.8 315.65 127.05 315.65
M 135.05 320.85
L 138.95 320.85 138.95 315.65 135.05 315.65 135.05 320.85 135.05 384.25 138.95 384.25
M 135.05 315.65
L 132.8 315.65
M 135.05 320.85
L 132.8 320.85 132.8 384.25 135.05 384.25
M 142.15 315.65
L 138.95 315.65
M 119.75 384.25
L 119.75 320.85 116.6 320.85 116.6 362.25
M 119.75 315.65
L 116.6 315.65 116.6 320.85 93.5 320.8 93.5 362.25
M 84 320.75
L 90.3 320.8 90.3 315.65 84 315.65
M 116.6 315.65
L 93.5 315.65 93.5 320.8 90.3 320.8 90.3 362.25
M 93.5 315.65
L 90.3 315.65
M 119 388.7
L 119.75 388.7 119.75 384.25 119 384.25
M 132.8 384.25
L 127.05 384.25
M 124.6 384.25
L 119.75 384.25
M 84 320.75
L 84 362.25
M 145.1 388.7
L 119.75 388.7
M 143.2 307.1
L 60.4 307.1
M 319.3 252.75
L 321.95 252.75 321.95 249.7 319.3 249.7
M 321 285.65
L 308.5 285.65 311.8 307.1 321 296.05
M 190.9 205.8
L 190.7 205.8 190.7 208.3 195.4 208.3
M 190.7 205.7
L 190.7 205.8
M 238.1 232.05
L 229.85 248.75 227.9 252.75 275.3 252.75
M 210.25 285.65
L 176.7 285.65
M 227.9 252.75
L 190.1 252.75
M 229.85 248.75
L 191.05 248.75
M 307.35 326.5
L 309.8 323.55 313.2 319.4 314.75 317.55
M 314.85 334.1
L 307.05 334.1 307.2 326.7 230.4 419.85 337.2 419.85 337.2 414.6 328.55 414.6 323.65 409.4 313 409.4 313 349.75 314.85 349.75 314.85 334.1 370 334.1
M 307.35 326.5
L 307.2 326.5 307.2 326.7 307.35 326.5 377.85 326.5
M 308.5 285.65
L 210.25 285.65 210.25 417.2 220.2 417.2 311.8 307.1
M 220.2 417.2
L 213.1 425.7 220.35 432.05 228.7 421.95 230.4 419.85
M 176.7 413.5
L 176.7 418.95 176.7 449.1 176.7 453.8 176.7 456 176.7 459.7 176.7 505.95 210.25 505.95 210.25 459.7 210.25 456
M 228.7 421.95
L 228.7 448.15 210.25 448.15 210.25 449.3
M 210.25 417.2
L 210.25 448.15
M 210.25 505.95
L 210.25 508.2 475.85 508.2 475.85 505.95 210.25 505.95 Z
M 176.7 505.95
L 176.7 508.2 210.25 508.2
M 129.8 421.55
L 146.4 421.55 146.4 418.95 129.8 418.95 129.8 421.55 129.8 449.1 129.8 453.8 146.4 453.8 146.4 449.1 146.4 421.55
M 507.7 285.65
L 507.7 505.95 507.7 508.2 524.3 508.2 524.3 528.7 20 528.7 20 508.2 31.25 508.2 31.25 505.95 45.75 505.95 45.75 459.7 31.4 459.7 31.4 456 31.4 453.8 50.6 453.8 50.6 421.55 50.6 418.95 34.95 418.95 31.6 418.95 31.6 413.5 34.95 413.5 53.25 413.5 53.25 410.75 82.85 410.75 82.85 400.85 60.3 400.85 59.75 398.5 59.4 397.1 55.85 397.1 55.85 402.9 55.45 402.9 55.45 397.1 55.45 362.25
M 121.45 410.75
L 82.85 410.75
M 121.45 400.85
L 82.85 400.85
M 129.8 418.95
L 100.2 418.95 100.2 449.1 129.8 449.1
M 100.2 449.1
L 74.65 449.1 74.65 418.95 67.6 418.95 67.55 421.55 67.4 453.8 129.8 453.8
M 59.75 398.5
L 59.75 397.1 59.4 397.1
M 55.85 397.1
L 55.45 397.1
M 67.55 421.55
L 50.6 421.55
M 67.6 418.95
L 50.6 418.95
M 34.95 413.5
L 34.95 418.95
M 176.7 456
L 67.4 456 59.4 456 59.4 459.7 176.7 459.7
M 67.4 456
L 67.4 453.8 50.6 453.8
M 59.4 459.7
L 45.75 459.7
M 59.4 456
L 31.4 456
M 176.7 505.95
L 60.5 505.95 60.5 508.2 176.7 508.2
M 60.5 505.95
L 45.75 505.95
M 60.5 508.2
L 31.25 508.2
M 100.2 418.95
L 74.65 418.95
M 144.9 413.5
L 53.25 413.5
M 176.7 418.95
L 146.4 418.95
M 176.7 453.8
L 146.4 453.8
M 176.7 449.1
L 146.4 449.1
M 475.85 456
L 475.85 459.7 475.85 505.95 507.7 505.95
M 475.85 416.1
L 475.85 448.15
M 339 449.3
L 339 419.85 337.2 419.85
M 346.9 414.6
L 337.2 414.6
M 346.9 419.85
L 339 419.85
M 507.7 508.2
L 475.85 508.2
M 362.35 252.75
L 321.95 252.75
M 316.75 315.1
L 327.95 301.5
M 372.05 319.4
L 313.2 319.4
M 375.45 323.55
L 309.8 323.55
M 370 349.75
L 314.85 349.75
M 360.8 409.4
L 323.65 409.4
M 495.15 24.05
L 190.7 24.05
M 475.85 459.7
L 210.25 459.7"/>
</defs>

<g transform="matrix( 1, 0, 0, 1, 0,0) ">
<use xlink:href="#Layer0_0_FILL"/>

<use xlink:href="#Layer0_0_1_STROKES"/>
</g>
</svg>
