
<svg xmlns="http://www.w3.org/2000/svg" version="1.1" xmlns:xlink="http://www.w3.org/1999/xlink" preserveAspectRatio="none" x="0px" y="0px" width="550px" height="350px" viewBox="0 0 550 350">
<defs>
<g id="Layer0_0_FILL">
<path fill="#FFFFFF" stroke="none" d="
M 268.55 321.25
L 266.45 321.25 264.8 321.25 260.4 324.35 274.55 324.35 270.65 321.25 268.55 321.25
M 266.45 321.25
L 268.55 321.25 268.55 312 266.45 312 266.45 321.25
M 186.65 321.7
L 184.55 321.7 182.9 321.7 178.5 324.8 192.65 324.8 188.75 321.7 186.65 321.7
M 184.55 321.7
L 186.65 321.7 186.65 312.45 184.55 312.45 184.55 321.7
M 194.75 238.35
L 194.75 231.05 176.75 231.05 176.75 238.7 182.9 245.85 182.9 312.45 184.55 312.45 186.65 312.45 188.6 312.45 188.55 245.6 194.75 238.35
M 276.65 237.9
L 276.65 236.65 276.65 231.05 258.65 231.05 258.65 238.15 264.8 245.4 264.8 312 266.45 312 268.55 312 270.45 312 270.45 245.1 276.65 237.9
M 295.85 209.6
L 305.35 209.6 305.35 181.1 295.85 209.6
M 24.2 321.7
L 22 321.7 20.35 321.7 15.95 324.8 30.15 324.8 26.2 321.7 24.2 321.7
M 22 321.7
L 24.2 321.7 24.2 312.45 22 312.45 22 321.7
M 26 245.6
L 28.5 242.7 32.25 238.35 32.25 231.05 14.2 231.05 14.2 238.7 20.35 245.85 20.35 312.45 22 312.45 24.2 312.45 26.1 312.45 26 245.6
M 92.15 242.7
L 92.15 231.05 32.25 231.05 32.25 238.35 28.5 242.7 92.15 242.7
M 138 235.05
L 141.8 231.05 127.95 231.05 131.5 234.8 131.5 239.45 138 239.45 138 235.05
M 293.25 184.2
L 259.15 184.2 259.15 209.6 293.25 209.6 293.25 184.2
M 305.35 166.4
L 305.35 159.95 298.25 160.15 298.25 166.4 305.35 166.4
M 307.95 159.8
L 305.35 159.95 305.35 166.4 305.35 181.1 305.35 209.6 313.85 209.6 313.85 181.1 313.85 154.6 309.15 154.6 307.95 159.8
M 317.95 149.7
L 317.95 154.6 322.45 154.6 322.4 149.75 317.95 149.7
M 317.95 140.25
L 312.35 140.25 309.15 154.6 313.85 154.6 317.95 154.6 317.95 149.7 317.95 140.25
M 237.8 161.85
L 237.8 162.1 298.25 160.15 305.35 159.95 307.95 159.8 309.15 154.6 312.35 140.25 317.6 116 317.55 115.85 248.2 117.3 248.15 117.45 237.8 161.85
M 232.35 126.7
L 231.5 126.45 135.5 97.7 134.5 101.1 232.35 130.25 232.35 126.7
M 238.6 128.6
L 237.8 131.3 237.8 161.85 248.15 117.45 248.15 117.3 245.05 106.75 238.6 128.6
M 237.8 131.3
L 237.8 128.35 237.8 125.2 232.35 125.2 232.35 126.7 232.35 130.25 232.35 133.5 179.3 133.5 179.3 125.2 173.85 125.2 173.85 209.6 179.3 209.6 179.3 135.6 232.35 135.6 232.35 209.6 237.8 209.6 237.8 162.1 237.8 161.85 237.8 131.3
M 232.7 122.45
L 233.4 120.1 137.4 91.7 136.6 94.4 232.7 122.45
M 233.4 120.1
L 234.2 117.5 138.05 89.55 137.4 91.7 233.4 120.1
M 234.2 117.5
L 234.8 115.3 138.85 87.1 138.05 89.55 234.2 117.5
M 234.8 115.3
L 236.05 111.15 140.35 82.4 138.85 87.1 234.8 115.3
M 236.05 111.15
L 236.75 108.85 141.1 80 140.35 82.4 236.05 111.15
M 236.75 108.85
L 238.2 103.9 142.45 75.55 141.1 80 236.75 108.85
M 240.1 89.8
L 235.85 88.5 145.85 61.15 142.3 71.95 134.65 69.55 127.2 95.25 127.3 95.25 126.3 98.6 134.5 101.1 135.5 97.7 136.6 94.4 137.4 91.7 138.05 89.55 138.85 87.1 140.35 82.4 141.1 80 142.45 75.55 238.2 103.9 236.75 108.85 236.05 111.15 234.8 115.3 234.2 117.5 233.4 120.1 232.7 122.45 231.5 126.45 232.35 126.7 232.35 125.2 237.8 125.2 237.8 128.35 238.6 128.6 245.05 106.75 249.25 92.55 240.1 89.8
M 237.95 82.4
L 238 82.5 240.1 89.8 249.25 92.55 245.05 106.75 248.15 117.3 248.2 117.3 317.55 115.85 306.6 80.5 237.95 82.4
M 238 82.5
L 235.85 88.5 240.1 89.8 238 82.5
M 504.15 321.7
L 501.95 321.7 500.3 321.7 496 324.8 510.15 324.8 506.15 321.7 504.15 321.7
M 501.95 321.7
L 504.15 321.7 504.15 312.45 501.95 312.45 501.95 321.7
M 494.15 231.05
L 494.15 238.7 500.3 245.85 500.3 312.45 501.95 312.45 504.15 312.45 506.05 312.45 505.95 245.6 512.25 238.35 512.25 231.05 501.85 231.05 494.15 231.05
M 506.05 212.9
L 501.85 212.9 501.85 231.05 512.25 231.05 512.25 212.9 506.05 212.9
M 501.85 212.9
L 506.05 212.9 506.05 200.9 495.4 200.9 495.5 212.9 501.85 212.9
M 422.35 321.7
L 420.25 321.7 418.6 321.7 414.2 324.8 428.4 324.8 424.45 321.7 422.35 321.7
M 420.25 321.7
L 422.35 321.7 422.35 312.45 420.25 312.45 420.25 321.7
M 344 301
L 344 324.6 368.9 324.6 344 301
M 332.1 324.6
L 332.1 301 307.35 324.6 332.1 324.6
M 393.25 321.7
L 391.1 321.7 389.45 321.7 385.1 324.8 399.25 324.8 395.35 321.7 393.25 321.7
M 391.1 321.7
L 393.25 321.7 393.25 312.45 391.1 312.45 391.1 321.7
M 332.1 231.05
L 332.1 209.6 313.85 209.6 305.35 209.6 295.85 209.6 293.25 209.6 259.15 209.6 237.8 209.6 232.35 209.6 179.3 209.6 173.85 209.6 14.2 209.6 14.2 231.05 32.25 231.05 92.15 231.05 127.95 231.05 141.8 231.05 176.75 231.05 194.75 231.05 258.65 231.05 276.65 231.05 332.1 231.05
M 332.1 236.65
L 332.1 231.05 276.65 231.05 276.65 236.65 332.1 236.65
M 349.8 212.9
L 355.1 212.9 355.1 201.1 349.8 201.1 349.8 212.9
M 383.35 231.05
L 383.35 236.65 383.35 238.7 389.45 245.85 389.45 312.45 391.1 312.45 393.25 312.45 395.1 312.45 395.1 245.6 401.35 238.35 401.35 231.05 383.35 231.05
M 383.35 236.65
L 383.35 231.05 344 231.05 344 236.65 383.35 236.65
M 369.9 212.9
L 369.9 201.1 360.25 201.1 357 201.1 357 212.9 369.9 212.9
M 424.25 245.6
L 424.25 245.85 500.3 245.85 494.15 238.7 494.15 231.05 430.5 231.05 430.5 238.35 424.25 245.6
M 412.45 231.05
L 412.45 238.7 418.6 245.85 418.6 312.45 420.25 312.45 422.35 312.45 424.25 312.45 424.25 245.85 424.25 245.6 430.5 238.35 430.5 231.05 417.95 231.05 412.45 231.05
M 407.6 212.9
L 407.6 199.35 403.05 199.35 403.05 212.9 407.6 212.9
M 417.95 212.9
L 420.05 212.9 420.05 204.85 415 204.85 415 212.9 417.95 212.9
M 421.95 212.9
L 420.05 212.9 417.95 212.9 417.95 231.05 430.5 231.05 494.15 231.05 501.85 231.05 501.85 212.9 495.5 212.9 484.75 212.9 441.35 212.9 421.95 212.9
M 423.15 220.75
L 423.15 214.1 500.7 214.1 500.7 220.75 423.15 220.75
M 423.15 214.1
L 423.15 220.75 500.7 220.75 500.7 214.1 423.15 214.1
M 415 212.9
L 407.6 212.9 403.05 212.9 401 212.9 369.9 212.9 357 212.9 355.1 212.9 349.8 212.9 344 212.9 344 231.05 383.35 231.05 401.35 231.05 412.45 231.05 417.95 231.05 417.95 212.9 415 212.9
M 410.85 199.35
L 407.6 199.35 407.6 212.9 415 212.9 415 204.85 415 201.65 410.85 201.65 410.85 199.35
M 420.05 204.85
L 420.05 201.65 415 201.65 415 204.85 420.05 204.85
M 420.05 201.65
L 420.05 199.35 410.85 199.35 410.85 201.65 415 201.65 420.05 201.65
M 441.35 212.9
L 441.35 204.85 421.95 204.85 421.95 212.9 441.35 212.9
M 332.1 117.05
L 332.1 94.8 319.95 114.35 332.1 117.05
M 458.2 165.35
L 458.2 168.1 461.65 168.1 461.65 165.35 458.2 165.35
M 458.2 168.1
L 456.95 168.1 445.5 168.1 445.5 176.6 479.75 176.6 479.75 168.1 463.4 168.1 461.65 168.1 458.2 168.1
M 461.65 165.35
L 461.65 163.95 458.2 163.95 458.2 165.35 461.65 165.35
M 463.4 160.65
L 461.65 160.65 461.65 163.95 461.65 165.35 461.65 168.1 463.4 168.1 463.4 165.35 463.4 163.95 463.4 160.65
M 461.65 160.65
L 458.2 160.65 458.2 163.95 461.65 163.95 461.65 160.65
M 458.2 160.65
L 456.95 160.65 456.95 163.95 456.95 165.35 456.95 168.1 458.2 168.1 458.2 165.35 458.2 163.95 458.2 160.65
M 430.65 190.6
L 433 190.6 433 201.65 421.95 201.65 421.95 204.85 441.35 204.85 441.35 178.75 430.65 178.75 430.65 190.6
M 429.25 178.75
L 425.65 178.75 425.65 190.6 429.25 190.6 429.25 178.75
M 441.35 176.6
L 441.35 178.75 441.35 204.85 441.35 212.9 484.75 212.9 484.75 200.9 453.1 200.9 453.1 194.4 484.75 194.4 484.75 176.6 479.75 176.6 445.5 176.6 441.35 176.6
M 415 190.6
L 423.75 190.6 423.75 178.75 415 178.75 415 190.6
M 410.85 197.1
L 407.6 197.1 401 197.1 401 212.9 403.05 212.9 403.05 199.35 407.6 199.35 410.85 199.35 420.05 199.35 420.05 201.65 420.05 204.85 420.05 212.9 421.95 212.9 421.95 204.85 421.95 201.65 421.95 197.1 410.85 197.1
M 415 190.6
L 410.85 190.6 410.85 197.1 421.95 197.1 421.95 201.65 433 201.65 433 190.6 430.65 190.6 429.25 190.6 425.65 190.6 423.75 190.6 415 190.6
M 415 163.95
L 415 165.35 423.75 165.35 423.75 163.95 415 163.95
M 417.55 157.4
L 417.55 158.85 423.75 158.85 423.75 157.4 417.55 157.4
M 430.65 163.95
L 430.65 165.35 456.95 165.35 456.95 163.95 430.65 163.95
M 425.65 163.95
L 425.65 165.35 429.25 165.35 429.25 163.95 425.65 163.95
M 425.65 158.85
L 425.65 157.4 425.65 152.25 423.75 152.25 423.75 157.4 423.75 158.85 423.75 163.95 423.75 165.35 423.75 178.75 423.75 190.6 425.65 190.6 425.65 178.75 425.65 165.35 425.65 163.95 425.65 158.85
M 425.65 157.4
L 425.65 158.85 453.75 158.85 453.75 157.4 425.65 157.4
M 430.65 159.7
L 429.25 159.7 429.25 163.95 429.25 165.35 429.25 178.75 429.25 190.6 430.65 190.6 430.65 178.75 430.65 165.35 430.65 163.95 430.65 159.7
M 440.75 143.45
L 440.75 135.7 437.35 135.7 437.35 137.9 437.35 141.3 437.35 143.45 440.75 143.45
M 415 137.9
L 415 141.3 437.35 141.3 437.35 137.9 415 137.9
M 470.7 145.7
L 449.95 145.7 449.95 154.75 453.75 154.75 453.75 157.4 453.75 158.85 453.75 160.65 456.95 160.65 458.2 160.65 461.65 160.65 463.4 160.65 470.7 160.65 470.7 158.85 470.7 157.4 470.7 145.7
M 480.55 135.7
L 480.55 133.95 469.1 133.95 451 133.95 440.75 133.95 440.75 135.7 440.75 143.45 440.75 145.7 449.95 145.7 470.7 145.7 480.55 145.7 480.55 143.45 480.55 135.7
M 484.15 135.7
L 480.55 135.7 480.55 143.45 484.15 143.45 484.15 141.3 484.15 137.9 484.15 135.7
M 456.3 105.35
L 456.3 102.65 454 102.65 454 100.9 451 100.9 451 133.95 469.1 133.95 469.1 129.85 454 129.85 454 105.35 456.3 105.35
M 367.4 195.65
L 360.25 195.65 360.25 201.1 369.9 201.1 369.9 212.9 401 212.9 401 197.1 407.6 197.1 407.6 195.65 367.4 195.65
M 327.15 154.6
L 325.3 144.95 322.4 144.85 322.4 149.75 322.45 154.6 327.15 154.6
M 390.25 173.6
L 390.5 173.2 382.95 128.5 344 119.75 344 163.9 390.25 173.6
M 355.1 197.45
L 344 197.45 344 212.9 349.8 212.9 349.8 201.1 355.1 201.1 355.1 197.45
M 344 197.45
L 344 195.4 344 186.1 332.1 186.1 332.1 209.6 332.1 231.05 332.1 236.65 332.1 301 332.1 324.6 344 324.6 344 301 344 236.65 344 231.05 344 212.9 344 197.45
M 344 195.4
L 344 197.45 355.1 197.45 355.1 201.1 355.1 212.9 357 212.9 357 201.1 357 195.4 344 195.4
M 332.1 183.15
L 326.1 183.15 326.1 186.1 332.1 186.1 344 186.1 349.7 186.1 349.7 183.15 344 183.15 332.1 183.15
M 326.1 183.15
L 332.1 183.15 332.1 181.1 313.85 181.1 313.85 209.6 332.1 209.6 332.1 186.1 326.1 186.1 326.1 183.15
M 344 181.1
L 344 183.15 349.7 183.15 349.7 186.1 344 186.1 344 195.4 357 195.4 357 201.1 360.25 201.1 360.25 195.65 367.4 195.65 367.4 181.1 344 181.1
M 328.2 160.55
L 327.15 154.6 322.45 154.6 317.95 154.6 313.85 154.6 313.85 181.1 332.1 181.1 332.1 161.4 328.2 160.55
M 327.15 154.6
L 328.2 160.55 332.1 161.4 332.1 117.05 319.95 114.35 319.7 114.75 325.3 144.95 327.15 154.6
M 383.15 128.5
L 382.95 128.5 390.5 173.2 407.6 147.25 411.5 141.3 407.6 117.65 404.05 96.05 383.15 128.5
M 404.05 96.05
L 403.85 95.2 344 81.65 344 119.75 382.95 128.5 383.15 128.5 404.05 96.05
M 332.1 33.7
L 332.1 31.6 314.7 31.6 314.7 33.7 332.1 33.7
M 344 31.6
L 344 33.7 361 33.7 361 31.6 344 31.6
M 344 25.2
L 344 27.3 361 27.3 361 25.2 344 25.2
M 332.1 27.3
L 332.1 25.2 314.7 25.2 314.7 27.3 332.1 27.3
M 332.1 25.2
L 332.1 27.3 332.1 31.6 332.1 33.7 332.1 94.8 332.1 117.05 332.1 161.4 332.1 181.1 332.1 183.15 344 183.15 344 181.1 344 163.9 344 119.75 344 81.65 344 33.7 344 31.6 344 27.3 344 25.2 332.1 25.2
M 467.85 98.55
L 456.3 98.55 456.3 102.65 456.3 105.35 456.3 108.6 467.85 108.6 467.85 98.55
M 410.65 86.6
L 410.65 90.4 412.5 90.4 412.5 84.5 388.1 84.5 388.1 70.3 384.85 70.3 384.85 86.6 410.65 86.6
M 499.05 194.4
L 496.95 194.4 484.75 194.4 453.1 194.4 453.1 200.9 484.75 200.9 495.4 200.9 506.05 200.9 506.05 194.4 499.05 194.4
M 496.95 165.35
L 496.95 163.95 463.4 163.95 463.4 165.35 496.95 165.35
M 496.95 158.85
L 496.95 157.4 470.7 157.4 470.7 158.85 496.95 158.85
M 499.05 158.85
L 506.05 158.85 506.05 157.4 499.05 157.4 499.05 158.85
M 496.95 152.5
L 496.95 157.4 496.95 158.85 496.95 163.95 496.95 165.35 496.95 194.4 499.05 194.4 499.05 165.35 499.05 163.95 499.05 158.85 499.05 157.4 499.05 152.5 496.95 152.5
M 506.05 141.3
L 506.05 137.9 484.15 137.9 484.15 141.3 506.05 141.3
M 508.05 84.5
L 508.05 90.4 509.95 90.4 509.95 86.6 535.8 86.6 535.8 70.3 532.5 70.3 532.5 84.5 508.05 84.5
M 512.25 90.4
L 509.95 90.4 508.05 90.4 412.5 90.4 410.65 90.4 407.6 90.4 407.6 117.65 411.5 141.3 407.6 147.25 407.6 195.65 407.6 197.1 410.85 197.1 410.85 190.6 415 190.6 415 178.75 415 165.35 415 163.95 415 141.3 415 137.9 415 96.65 506.05 96.65 506.05 137.9 506.05 141.3 506.05 157.4 506.05 158.85 506.05 163.95 506.05 165.35 506.05 194.4 506.05 200.9 506.05 212.9 512.25 212.9 512.25 90.4 Z"/>
</g>

<path id="Layer0_0_1_STROKES" stroke="#323232" stroke-width="1.5" stroke-linejoin="miter" stroke-linecap="square" stroke-miterlimit="3" fill="none" d="
M 237.95 82.4
L 306.6 80.5 317.55 115.85 317.6 116 312.35 140.25 317.95 140.25 317.95 149.7 322.4 149.75 322.4 144.85 325.3 144.95 319.7 114.75 319.95 114.35 332.1 94.8 332.1 33.7 314.7 33.7 314.7 31.6 332.1 31.6 332.1 27.3 314.7 27.3 314.7 25.2 332.1 25.2 344 25.2 361 25.2 361 27.3 344 27.3 344 31.6 361 31.6 361 33.7 344 33.7 344 81.65 403.85 95.2 404.05 96.05 407.6 117.65 407.6 90.4 410.65 90.4 410.65 86.6 384.85 86.6 384.85 70.3 388.1 70.3 388.1 84.5 412.5 84.5 412.5 90.4 508.05 90.4 508.05 84.5 532.5 84.5 532.5 70.3 535.8 70.3 535.8 86.6 509.95 86.6 509.95 90.4 512.25 90.4 512.25 212.9 512.25 231.05 512.25 238.35 505.95 245.6 506.05 312.45 504.15 312.45 504.15 321.7 506.15 321.7 510.15 324.8 496 324.8 500.3 321.7 501.95 321.7 501.95 312.45 500.3 312.45 500.3 245.85 424.25 245.85 424.25 312.45 422.35 312.45 422.35 321.7 424.45 321.7 428.4 324.8 414.2 324.8 418.6 321.7 420.25 321.7 420.25 312.45 418.6 312.45 418.6 245.85 412.45 238.7 412.45 231.05 401.35 231.05 401.35 238.35 395.1 245.6 395.1 312.45 393.25 312.45 393.25 321.7 395.35 321.7 399.25 324.8 385.1 324.8 389.45 321.7 391.1 321.7 391.1 312.45 389.45 312.45 389.45 245.85 383.35 238.7 383.35 236.65 344 236.65 344 301 368.9 324.6 344 324.6 332.1 324.6 307.35 324.6 332.1 301 332.1 236.65 276.65 236.65 276.65 237.9 270.45 245.1 270.45 312 268.55 312 268.55 321.25 270.65 321.25 274.55 324.35 260.4 324.35 264.8 321.25 266.45 321.25 266.45 312 264.8 312 264.8 245.4 258.65 238.15 258.65 231.05 194.75 231.05 194.75 238.35 188.55 245.6 188.6 312.45 186.65 312.45 186.65 321.7 188.75 321.7 192.65 324.8 178.5 324.8 182.9 321.7 184.55 321.7 184.55 312.45 182.9 312.45 182.9 245.85 176.75 238.7 176.75 231.05 141.8 231.05 138 235.05 138 239.45 131.5 239.45 131.5 234.8 127.95 231.05 92.15 231.05 92.15 242.7 28.5 242.7 26 245.6 26.1 312.45 24.2 312.45 24.2 321.7 26.2 321.7 30.15 324.8 15.95 324.8 20.35 321.7 22 321.7 22 312.45 20.35 312.45 20.35 245.85 14.2 238.7 14.2 231.05 14.2 209.6 173.85 209.6 173.85 125.2 179.3 125.2 179.3 133.5 232.35 133.5 232.35 130.25 134.5 101.1 126.3 98.6 127.3 95.25 127.2 95.25 134.65 69.55 142.3 71.95 145.85 61.15 235.85 88.5 238 82.5
M 508.05 90.4
L 509.95 90.4
M 506.05 137.9
L 506.05 141.3 506.05 157.4 506.05 158.85 506.05 163.95 506.05 165.35 506.05 194.4 506.05 200.9 506.05 212.9 512.25 212.9
M 499.05 157.4
L 499.05 152.5 496.95 152.5 496.95 157.4 496.95 158.85 496.95 163.95 496.95 165.35 496.95 194.4 499.05 194.4 499.05 165.35 499.05 163.95 499.05 158.85 499.05 157.4 506.05 157.4
M 499.05 158.85
L 506.05 158.85
M 499.05 163.95
L 506.05 163.95
M 499.05 165.35
L 506.05 165.35
M 506.05 194.4
L 499.05 194.4
M 415 137.9
L 415 96.65 506.05 96.65 506.05 137.9 484.15 137.9 484.15 141.3 506.05 141.3
M 410.65 90.4
L 412.5 90.4
M 415 137.9
L 437.35 137.9 437.35 135.7 440.75 135.7 440.75 133.95 451 133.95 451 100.9 454 100.9 454 102.65 456.3 102.65 456.3 98.55 467.85 98.55 467.85 108.6 456.3 108.6 456.3 105.35 454 105.35 454 129.85 469.1 129.85 469.1 133.95 480.55 133.95 480.55 135.7 484.15 135.7 484.15 137.9
M 332.1 25.2
L 332.1 27.3
M 344 25.2
L 344 27.3
M 344 31.6
L 344 33.7
M 332.1 31.6
L 332.1 33.7
M 344 81.65
L 344 119.75 382.95 128.5 383.15 128.5 404.05 96.05
M 325.3 144.95
L 327.15 154.6 328.2 160.55 332.1 161.4 332.1 117.05 319.95 114.35
M 344 181.1
L 344 183.15 349.7 183.15 349.7 186.1 344 186.1 344 195.4 357 195.4 357 201.1 360.25 201.1 360.25 195.65 367.4 195.65 367.4 181.1 344 181.1 344 163.9 344 119.75
M 313.85 209.6
L 332.1 209.6 332.1 186.1 326.1 186.1 326.1 183.15 332.1 183.15 332.1 181.1 313.85 181.1 313.85 209.6 305.35 209.6 295.85 209.6 293.25 209.6 259.15 209.6 237.8 209.6 232.35 209.6 179.3 209.6 173.85 209.6
M 344 195.4
L 344 197.45 355.1 197.45 355.1 201.1 355.1 212.9 357 212.9 357 201.1
M 332.1 183.15
L 344 183.15
M 332.1 186.1
L 344 186.1
M 332.1 161.4
L 332.1 181.1
M 344 163.9
L 390.25 173.6 390.5 173.2 382.95 128.5
M 456.3 102.65
L 456.3 105.35
M 484.15 141.3
L 484.15 143.45 480.55 143.45 480.55 145.7 470.7 145.7 470.7 157.4 496.95 157.4
M 480.55 135.7
L 480.55 143.45
M 451 133.95
L 469.1 133.95
M 449.95 145.7
L 470.7 145.7
M 407.6 147.25
L 411.5 141.3 407.6 117.65
M 415 137.9
L 415 141.3 437.35 141.3 437.35 137.9
M 440.75 135.7
L 440.75 143.45 440.75 145.7 449.95 145.7 449.95 154.75 453.75 154.75 453.75 157.4 453.75 158.85 453.75 160.65 456.95 160.65 458.2 160.65 461.65 160.65 463.4 160.65 470.7 160.65 470.7 158.85 470.7 157.4
M 437.35 141.3
L 437.35 143.45 440.75 143.45
M 453.75 158.85
L 425.65 158.85 425.65 163.95 429.25 163.95 429.25 159.7 430.65 159.7 430.65 163.95 456.95 163.95 456.95 160.65
M 425.65 157.4
L 425.65 158.85
M 415 141.3
L 415 163.95 423.75 163.95 423.75 158.85 417.55 158.85 417.55 157.4 423.75 157.4 423.75 152.25 425.65 152.25 425.65 157.4 453.75 157.4
M 425.65 163.95
L 425.65 165.35 429.25 165.35 429.25 163.95
M 430.65 165.35
L 430.65 163.95
M 423.75 158.85
L 423.75 157.4
M 415 163.95
L 415 165.35 423.75 165.35 423.75 163.95
M 407.6 195.65
L 407.6 197.1 410.85 197.1 410.85 190.6 415 190.6 415 178.75 415 165.35
M 415 190.6
L 423.75 190.6 423.75 178.75 415 178.75
M 410.85 197.1
L 421.95 197.1 421.95 201.65 433 201.65 433 190.6 430.65 190.6 429.25 190.6 425.65 190.6 423.75 190.6
M 445.5 176.6
L 441.35 176.6 441.35 178.75 441.35 204.85 441.35 212.9 484.75 212.9 484.75 200.9 453.1 200.9 453.1 194.4 484.75 194.4 484.75 176.6 479.75 176.6 445.5 176.6 445.5 168.1 456.95 168.1 456.95 165.35 430.65 165.35 430.65 178.75 441.35 178.75
M 425.65 165.35
L 425.65 178.75 429.25 178.75 429.25 165.35
M 429.25 190.6
L 429.25 178.75
M 430.65 190.6
L 430.65 178.75
M 425.65 178.75
L 425.65 190.6
M 423.75 178.75
L 423.75 165.35
M 463.4 163.95
L 463.4 165.35 496.95 165.35
M 461.65 160.65
L 461.65 163.95 461.65 165.35 461.65 168.1 463.4 168.1 463.4 165.35
M 456.95 163.95
L 456.95 165.35
M 461.65 163.95
L 458.2 163.95 458.2 165.35 461.65 165.35
M 456.95 168.1
L 458.2 168.1 458.2 165.35
M 458.2 168.1
L 461.65 168.1
M 463.4 160.65
L 463.4 163.95 496.95 163.95
M 458.2 160.65
L 458.2 163.95
M 463.4 168.1
L 479.75 168.1 479.75 176.6
M 367.4 195.65
L 407.6 195.65 407.6 147.25 390.5 173.2
M 332.1 94.8
L 332.1 117.05
M 360.25 201.1
L 369.9 201.1 369.9 212.9 401 212.9 401 197.1 407.6 197.1
M 421.95 201.65
L 421.95 204.85 441.35 204.85
M 401 212.9
L 403.05 212.9 403.05 199.35 407.6 199.35 410.85 199.35 420.05 199.35 420.05 201.65 420.05 204.85 420.05 212.9 421.95 212.9 421.95 204.85
M 420.05 201.65
L 415 201.65 415 204.85 420.05 204.85
M 410.85 199.35
L 410.85 201.65 415 201.65
M 407.6 199.35
L 407.6 212.9 415 212.9 415 204.85
M 415 212.9
L 417.95 212.9 420.05 212.9
M 500.7 220.75
L 423.15 220.75 423.15 214.1 500.7 214.1 500.7 220.75 Z
M 412.45 231.05
L 417.95 231.05 417.95 212.9
M 500.3 245.85
L 494.15 238.7 494.15 231.05 430.5 231.05 430.5 238.35 424.25 245.6 424.25 245.85
M 421.95 212.9
L 441.35 212.9
M 417.95 231.05
L 430.5 231.05
M 383.35 236.65
L 383.35 231.05 344 231.05 344 236.65
M 383.35 231.05
L 401.35 231.05
M 355.1 201.1
L 349.8 201.1 349.8 212.9 355.1 212.9
M 332.1 209.6
L 332.1 231.05 332.1 236.65
M 344 197.45
L 344 212.9 349.8 212.9
M 344 212.9
L 344 231.05
M 357 212.9
L 369.9 212.9
M 391.1 321.7
L 393.25 321.7
M 391.1 312.45
L 393.25 312.45
M 332.1 301
L 332.1 324.6
M 344 301
L 344 324.6
M 420.25 321.7
L 422.35 321.7
M 420.25 312.45
L 422.35 312.45
M 403.05 212.9
L 407.6 212.9
M 495.5 212.9
L 501.85 212.9 506.05 212.9
M 506.05 200.9
L 495.4 200.9 495.5 212.9 484.75 212.9
M 494.15 231.05
L 501.85 231.05 501.85 212.9
M 501.85 231.05
L 512.25 231.05
M 501.95 321.7
L 504.15 321.7
M 501.95 312.45
L 504.15 312.45
M 470.7 158.85
L 496.95 158.85
M 496.95 194.4
L 484.75 194.4
M 484.75 200.9
L 495.4 200.9
M 235.85 88.5
L 240.1 89.8 238 82.5
M 238.2 103.9
L 142.45 75.55 141.1 80 236.75 108.85 238.2 103.9 Z
M 141.1 80
L 140.35 82.4 236.05 111.15 236.75 108.85
M 140.35 82.4
L 138.85 87.1 234.8 115.3 236.05 111.15
M 138.85 87.1
L 138.05 89.55 234.2 117.5 234.8 115.3
M 138.05 89.55
L 137.4 91.7 233.4 120.1 234.2 117.5
M 232.7 122.45
L 233.4 120.1
M 237.8 128.35
L 237.8 131.3 238.6 128.6 237.8 128.35 237.8 125.2 232.35 125.2 232.35 126.7 232.35 130.25
M 232.35 126.7
L 231.5 126.45 135.5 97.7
M 231.5 126.45
L 232.7 122.45 136.6 94.4 135.5 97.7 134.5 101.1
M 248.15 117.45
L 237.8 161.85 237.8 162.1 298.25 160.15 305.35 159.95 307.95 159.8 309.15 154.6 312.35 140.25
M 179.3 209.6
L 179.3 135.6 232.35 135.6 232.35 209.6
M 237.8 131.3
L 237.8 161.85
M 240.1 89.8
L 249.25 92.55 245.05 106.75 248.15 117.3 248.2 117.3 317.55 115.85
M 248.15 117.3
L 248.15 117.45 248.2 117.3
M 317.95 149.7
L 317.95 154.6 322.45 154.6 322.4 149.75
M 313.85 181.1
L 313.85 154.6 309.15 154.6
M 305.35 166.4
L 305.35 159.95
M 317.95 154.6
L 313.85 154.6
M 298.25 160.15
L 298.25 166.4 305.35 166.4 305.35 181.1 305.35 209.6
M 259.15 209.6
L 259.15 184.2 293.25 184.2 293.25 209.6
M 245.05 106.75
L 238.6 128.6
M 136.6 94.4
L 137.4 91.7
M 127.95 231.05
L 141.8 231.05
M 14.2 231.05
L 32.25 231.05 92.15 231.05
M 32.25 231.05
L 32.25 238.35 28.5 242.7
M 22 321.7
L 24.2 321.7
M 22 312.45
L 24.2 312.45
M 276.65 236.65
L 276.65 231.05 258.65 231.05
M 176.75 231.05
L 194.75 231.05
M 184.55 321.7
L 186.65 321.7
M 184.55 312.45
L 186.65 312.45
M 266.45 321.25
L 268.55 321.25
M 266.45 312
L 268.55 312
M 237.8 162.1
L 237.8 209.6
M 295.85 209.6
L 305.35 181.1
M 327.15 154.6
L 322.45 154.6
M 276.65 231.05
L 332.1 231.05"/>
</defs>

<g transform="matrix( 1, 0, 0, 1, 0,0) ">
<use xlink:href="#Layer0_0_FILL"/>

<use xlink:href="#Layer0_0_1_STROKES"/>
</g>
</svg>
